G04 #@! TF.GenerationSoftware,KiCad,Pcbnew,(6.0.11)*
G04 #@! TF.CreationDate,2023-03-05T16:18:30-05:00*
G04 #@! TF.ProjectId,pre-thermal-throttle-pcb,7072652d-7468-4657-926d-616c2d746872,rev?*
G04 #@! TF.SameCoordinates,Original*
G04 #@! TF.FileFunction,Soldermask,Bot*
G04 #@! TF.FilePolarity,Negative*
%FSLAX46Y46*%
G04 Gerber Fmt 4.6, Leading zero omitted, Abs format (unit mm)*
G04 Created by KiCad (PCBNEW (6.0.11)) date 2023-03-05 16:18:30*
%MOMM*%
%LPD*%
G01*
G04 APERTURE LIST*
G04 Aperture macros list*
%AMRoundRect*
0 Rectangle with rounded corners*
0 $1 Rounding radius*
0 $2 $3 $4 $5 $6 $7 $8 $9 X,Y pos of 4 corners*
0 Add a 4 corners polygon primitive as box body*
4,1,4,$2,$3,$4,$5,$6,$7,$8,$9,$2,$3,0*
0 Add four circle primitives for the rounded corners*
1,1,$1+$1,$2,$3*
1,1,$1+$1,$4,$5*
1,1,$1+$1,$6,$7*
1,1,$1+$1,$8,$9*
0 Add four rect primitives between the rounded corners*
20,1,$1+$1,$2,$3,$4,$5,0*
20,1,$1+$1,$4,$5,$6,$7,0*
20,1,$1+$1,$6,$7,$8,$9,0*
20,1,$1+$1,$8,$9,$2,$3,0*%
G04 Aperture macros list end*
%ADD10RoundRect,0.250000X0.600000X0.750000X-0.600000X0.750000X-0.600000X-0.750000X0.600000X-0.750000X0*%
%ADD11O,1.700000X2.000000*%
%ADD12C,0.800000*%
%ADD13C,6.000000*%
%ADD14R,1.600000X1.600000*%
%ADD15O,1.600000X1.600000*%
%ADD16C,3.250000*%
%ADD17R,1.500000X1.500000*%
%ADD18C,1.500000*%
%ADD19C,2.300000*%
%ADD20RoundRect,0.250000X-0.600000X-0.725000X0.600000X-0.725000X0.600000X0.725000X-0.600000X0.725000X0*%
%ADD21O,1.700000X1.950000*%
%ADD22C,1.600000*%
%ADD23R,2.000000X1.200000*%
%ADD24O,2.000000X1.200000*%
G04 APERTURE END LIST*
D10*
X181147000Y-122555000D03*
D11*
X178647000Y-122555000D03*
D12*
X140649010Y-50739990D03*
X140649010Y-47558010D03*
X144490000Y-49149000D03*
X143830990Y-50739990D03*
X139990000Y-49149000D03*
X143830990Y-47558010D03*
D13*
X142240000Y-49149000D03*
D12*
X142240000Y-46899000D03*
X142240000Y-51399000D03*
D14*
X170830000Y-106670000D03*
D15*
X173370000Y-106670000D03*
X175910000Y-106670000D03*
X178450000Y-106670000D03*
X180990000Y-106670000D03*
X183530000Y-106670000D03*
X186070000Y-106670000D03*
X188610000Y-106670000D03*
X188610000Y-99050000D03*
X186070000Y-99050000D03*
X183530000Y-99050000D03*
X180990000Y-99050000D03*
X178450000Y-99050000D03*
X175910000Y-99050000D03*
X173370000Y-99050000D03*
X170830000Y-99050000D03*
D16*
X143635000Y-58670000D03*
X143635000Y-71370000D03*
D17*
X146175000Y-68580000D03*
D18*
X147955000Y-67564000D03*
X146175000Y-66548000D03*
X147955000Y-65532000D03*
X146175000Y-64516000D03*
X147955000Y-63500000D03*
X146175000Y-62484000D03*
X147955000Y-61468000D03*
X152775000Y-71880000D03*
X152775000Y-69590000D03*
X152775000Y-60450000D03*
X152775000Y-58160000D03*
D19*
X147065000Y-56890000D03*
X147065000Y-73150000D03*
D10*
X192410000Y-122545000D03*
D11*
X189910000Y-122545000D03*
D12*
X239334990Y-47558010D03*
X237744000Y-51399000D03*
X239994000Y-49149000D03*
X239334990Y-50739990D03*
X236153010Y-47558010D03*
X237744000Y-46899000D03*
X235494000Y-49149000D03*
X236153010Y-50739990D03*
D13*
X237744000Y-49149000D03*
D10*
X169082000Y-122555000D03*
D11*
X166582000Y-122555000D03*
D10*
X144878000Y-122545000D03*
D11*
X142378000Y-122545000D03*
D16*
X143635000Y-78990000D03*
X143635000Y-91690000D03*
D17*
X146175000Y-88900000D03*
D18*
X147955000Y-87884000D03*
X146175000Y-86868000D03*
X147955000Y-85852000D03*
X146175000Y-84836000D03*
X147955000Y-83820000D03*
X146175000Y-82804000D03*
X147955000Y-81788000D03*
X152775000Y-92200000D03*
X152775000Y-89910000D03*
X152775000Y-80770000D03*
X152775000Y-78480000D03*
D19*
X147065000Y-93470000D03*
X147065000Y-77210000D03*
D12*
X142240000Y-128052000D03*
X139990000Y-130302000D03*
X144490000Y-130302000D03*
X143830990Y-131892990D03*
X142240000Y-132552000D03*
D13*
X142240000Y-130302000D03*
D12*
X143830990Y-128711010D03*
X140649010Y-128711010D03*
X140649010Y-131892990D03*
D20*
X201884000Y-126948000D03*
D21*
X204384000Y-126948000D03*
X206884000Y-126948000D03*
X209384000Y-126948000D03*
D10*
X156943000Y-122555000D03*
D11*
X154443000Y-122555000D03*
D12*
X239334990Y-131892990D03*
X236153010Y-128711010D03*
X239994000Y-130302000D03*
X237744000Y-128052000D03*
X237744000Y-132552000D03*
D13*
X237744000Y-130302000D03*
D12*
X239334990Y-128711010D03*
X235494000Y-130302000D03*
X236153010Y-131892990D03*
D22*
X139700000Y-98679000D03*
D15*
X154940000Y-98679000D03*
D23*
X213614000Y-61630560D03*
D24*
X213614000Y-64170560D03*
X213614000Y-66710560D03*
X213614000Y-69250560D03*
X213614000Y-71790560D03*
X213614000Y-74330560D03*
X213614000Y-76870560D03*
X213614000Y-79410560D03*
X213614000Y-81950560D03*
X213614000Y-84490560D03*
X213614000Y-87030560D03*
X213614000Y-89570560D03*
X213614000Y-92110560D03*
X213614000Y-94650560D03*
X213614000Y-97190560D03*
X213614000Y-99730560D03*
X213614000Y-102270560D03*
X213614000Y-104810560D03*
X213614000Y-107350560D03*
X239010320Y-107347840D03*
X239010320Y-104807840D03*
X239014000Y-102270560D03*
X239014000Y-99730560D03*
X239014000Y-97190560D03*
X239014000Y-94650560D03*
X239014000Y-92110560D03*
X239014000Y-89570560D03*
X239014000Y-87030560D03*
X239014000Y-84490560D03*
X239014000Y-81950560D03*
X239014000Y-79410560D03*
X239014000Y-76870560D03*
X239014000Y-74330560D03*
X239014000Y-71790560D03*
X239014000Y-69250560D03*
X239014000Y-66710560D03*
X239014000Y-64170560D03*
X239014000Y-61630560D03*
D22*
X215346000Y-122122000D03*
D15*
X200106000Y-122122000D03*
M02*
