G04 #@! TF.GenerationSoftware,KiCad,Pcbnew,(6.0.11)*
G04 #@! TF.CreationDate,2023-03-05T16:18:30-05:00*
G04 #@! TF.ProjectId,pre-thermal-throttle-pcb,7072652d-7468-4657-926d-616c2d746872,rev?*
G04 #@! TF.SameCoordinates,Original*
G04 #@! TF.FileFunction,Paste,Top*
G04 #@! TF.FilePolarity,Positive*
%FSLAX46Y46*%
G04 Gerber Fmt 4.6, Leading zero omitted, Abs format (unit mm)*
G04 Created by KiCad (PCBNEW (6.0.11)) date 2023-03-05 16:18:30*
%MOMM*%
%LPD*%
G01*
G04 APERTURE LIST*
G04 Aperture macros list*
%AMRoundRect*
0 Rectangle with rounded corners*
0 $1 Rounding radius*
0 $2 $3 $4 $5 $6 $7 $8 $9 X,Y pos of 4 corners*
0 Add a 4 corners polygon primitive as box body*
4,1,4,$2,$3,$4,$5,$6,$7,$8,$9,$2,$3,0*
0 Add four circle primitives for the rounded corners*
1,1,$1+$1,$2,$3*
1,1,$1+$1,$4,$5*
1,1,$1+$1,$6,$7*
1,1,$1+$1,$8,$9*
0 Add four rect primitives between the rounded corners*
20,1,$1+$1,$2,$3,$4,$5,0*
20,1,$1+$1,$4,$5,$6,$7,0*
20,1,$1+$1,$6,$7,$8,$9,0*
20,1,$1+$1,$8,$9,$2,$3,0*%
G04 Aperture macros list end*
%ADD10RoundRect,0.250000X0.262500X0.450000X-0.262500X0.450000X-0.262500X-0.450000X0.262500X-0.450000X0*%
%ADD11RoundRect,0.250000X0.475000X-0.250000X0.475000X0.250000X-0.475000X0.250000X-0.475000X-0.250000X0*%
%ADD12RoundRect,0.250000X-0.475000X0.250000X-0.475000X-0.250000X0.475000X-0.250000X0.475000X0.250000X0*%
%ADD13R,5.000000X3.100000*%
%ADD14RoundRect,0.250000X-0.450000X0.262500X-0.450000X-0.262500X0.450000X-0.262500X0.450000X0.262500X0*%
%ADD15RoundRect,0.250000X0.250000X0.475000X-0.250000X0.475000X-0.250000X-0.475000X0.250000X-0.475000X0*%
%ADD16RoundRect,0.250000X-0.262500X-0.450000X0.262500X-0.450000X0.262500X0.450000X-0.262500X0.450000X0*%
%ADD17R,1.525000X0.650000*%
%ADD18RoundRect,0.250000X-0.250000X-0.475000X0.250000X-0.475000X0.250000X0.475000X-0.250000X0.475000X0*%
%ADD19RoundRect,0.150000X0.150000X-0.825000X0.150000X0.825000X-0.150000X0.825000X-0.150000X-0.825000X0*%
%ADD20R,0.590000X0.350000*%
%ADD21R,0.350000X0.590000*%
%ADD22RoundRect,0.250000X-0.545000X0.255000X-0.545000X-0.255000X0.545000X-0.255000X0.545000X0.255000X0*%
%ADD23RoundRect,0.150000X-0.150000X0.825000X-0.150000X-0.825000X0.150000X-0.825000X0.150000X0.825000X0*%
%ADD24R,0.600000X1.250000*%
G04 APERTURE END LIST*
D10*
X183687000Y-117475000D03*
X181862000Y-117475000D03*
D11*
X156730000Y-87544000D03*
X156730000Y-85644000D03*
D10*
X180490500Y-83566000D03*
X178665500Y-83566000D03*
D11*
X210185000Y-107376000D03*
X210185000Y-105476000D03*
D12*
X190627000Y-89728000D03*
X190627000Y-91628000D03*
D11*
X173460000Y-96801000D03*
X173460000Y-94901000D03*
D13*
X179578000Y-70574000D03*
X179578000Y-59474000D03*
D14*
X159385000Y-68572500D03*
X159385000Y-70397500D03*
D12*
X187706000Y-70678000D03*
X187706000Y-72578000D03*
D11*
X197947000Y-127263000D03*
X197947000Y-125363000D03*
D15*
X143190000Y-117465000D03*
X141290000Y-117465000D03*
D14*
X161280000Y-91416500D03*
X161280000Y-93241500D03*
X156730000Y-80236500D03*
X156730000Y-82061500D03*
D11*
X158740000Y-93279000D03*
X158740000Y-91379000D03*
D10*
X171622000Y-117475000D03*
X169797000Y-117475000D03*
D16*
X178665500Y-81534000D03*
X180490500Y-81534000D03*
D12*
X183687000Y-111765000D03*
X183687000Y-113665000D03*
X171622000Y-111765000D03*
X171622000Y-113665000D03*
D15*
X167177000Y-117475000D03*
X165277000Y-117475000D03*
D14*
X156845000Y-72382500D03*
X156845000Y-74207500D03*
D12*
X147418000Y-111755000D03*
X147418000Y-113655000D03*
D17*
X144878000Y-114925000D03*
X144878000Y-113655000D03*
X144878000Y-112385000D03*
X144878000Y-111115000D03*
X139454000Y-111115000D03*
X139454000Y-112385000D03*
X139454000Y-113655000D03*
X139454000Y-114925000D03*
D18*
X213934000Y-58674000D03*
X215834000Y-58674000D03*
D12*
X176022000Y-74222000D03*
X176022000Y-76122000D03*
D11*
X156730000Y-78289000D03*
X156730000Y-76389000D03*
D10*
X147240000Y-117465000D03*
X145415000Y-117465000D03*
D19*
X145415000Y-107504000D03*
X146685000Y-107504000D03*
X147955000Y-107504000D03*
X149225000Y-107504000D03*
X149225000Y-102554000D03*
X147955000Y-102554000D03*
X146685000Y-102554000D03*
X145415000Y-102554000D03*
D10*
X159483000Y-117475000D03*
X157658000Y-117475000D03*
D12*
X171958000Y-74234000D03*
X171958000Y-76134000D03*
D14*
X156835000Y-60112500D03*
X156835000Y-61937500D03*
D11*
X159270000Y-87544000D03*
X159270000Y-85644000D03*
D17*
X157017000Y-114935000D03*
X157017000Y-113665000D03*
X157017000Y-112395000D03*
X157017000Y-111125000D03*
X151593000Y-111125000D03*
X151593000Y-112395000D03*
X151593000Y-113665000D03*
X151593000Y-114935000D03*
D15*
X179242000Y-117475000D03*
X177342000Y-117475000D03*
D10*
X191761000Y-117465000D03*
X189936000Y-117465000D03*
D11*
X159258000Y-65974000D03*
X159258000Y-64074000D03*
X208986000Y-118644000D03*
X208986000Y-116744000D03*
D14*
X158740000Y-95226500D03*
X158740000Y-97051500D03*
D20*
X186585000Y-89305000D03*
X186585000Y-89805000D03*
X186585000Y-90305000D03*
X186585000Y-90805000D03*
X186585000Y-91305000D03*
X186585000Y-91805000D03*
X186585000Y-92305000D03*
D21*
X185420000Y-92720000D03*
D20*
X184255000Y-92305000D03*
X184255000Y-91805000D03*
X184255000Y-91305000D03*
X184255000Y-90805000D03*
X184255000Y-90305000D03*
X184255000Y-89805000D03*
X184255000Y-89305000D03*
D21*
X185420000Y-88890000D03*
D17*
X181147000Y-114935000D03*
X181147000Y-113665000D03*
X181147000Y-112395000D03*
X181147000Y-111125000D03*
X175723000Y-111125000D03*
X175723000Y-112395000D03*
X175723000Y-113665000D03*
X175723000Y-114935000D03*
D14*
X143500000Y-102211500D03*
X143500000Y-104036500D03*
D11*
X161671000Y-65974000D03*
X161671000Y-64074000D03*
X156845000Y-70335000D03*
X156845000Y-68435000D03*
X151130000Y-104709000D03*
X151130000Y-102809000D03*
D12*
X159523000Y-111765000D03*
X159523000Y-113665000D03*
D17*
X169082000Y-114935000D03*
X169082000Y-113665000D03*
X169082000Y-112395000D03*
X169082000Y-111125000D03*
X163658000Y-111125000D03*
X163658000Y-112395000D03*
X163658000Y-113665000D03*
X163658000Y-114935000D03*
D11*
X156835000Y-58165000D03*
X156835000Y-56265000D03*
D22*
X204216000Y-117024000D03*
X206116000Y-115824000D03*
X204216000Y-115824000D03*
X206116000Y-117024000D03*
D23*
X207071000Y-113949000D03*
X205801000Y-113949000D03*
X204531000Y-113949000D03*
X203261000Y-113949000D03*
X203261000Y-118899000D03*
X204531000Y-118899000D03*
X205801000Y-118899000D03*
X207071000Y-118899000D03*
D24*
X180528000Y-74268000D03*
X179578000Y-74268000D03*
X178628000Y-74268000D03*
X178628000Y-76768000D03*
X179578000Y-76768000D03*
X180528000Y-76768000D03*
D11*
X182626000Y-78754000D03*
X182626000Y-76854000D03*
D12*
X169926000Y-74234000D03*
X169926000Y-76134000D03*
D11*
X170920000Y-96801000D03*
X170920000Y-94901000D03*
D12*
X173990000Y-74234000D03*
X173990000Y-76134000D03*
D15*
X155078000Y-117475000D03*
X153178000Y-117475000D03*
D11*
X180340000Y-91628000D03*
X180340000Y-89728000D03*
M02*
