G04 #@! TF.GenerationSoftware,KiCad,Pcbnew,(6.0.11)*
G04 #@! TF.CreationDate,2023-03-05T16:18:30-05:00*
G04 #@! TF.ProjectId,pre-thermal-throttle-pcb,7072652d-7468-4657-926d-616c2d746872,rev?*
G04 #@! TF.SameCoordinates,Original*
G04 #@! TF.FileFunction,Legend,Bot*
G04 #@! TF.FilePolarity,Positive*
%FSLAX46Y46*%
G04 Gerber Fmt 4.6, Leading zero omitted, Abs format (unit mm)*
G04 Created by KiCad (PCBNEW (6.0.11)) date 2023-03-05 16:18:30*
%MOMM*%
%LPD*%
G01*
G04 APERTURE LIST*
G04 Aperture macros list*
%AMRoundRect*
0 Rectangle with rounded corners*
0 $1 Rounding radius*
0 $2 $3 $4 $5 $6 $7 $8 $9 X,Y pos of 4 corners*
0 Add a 4 corners polygon primitive as box body*
4,1,4,$2,$3,$4,$5,$6,$7,$8,$9,$2,$3,0*
0 Add four circle primitives for the rounded corners*
1,1,$1+$1,$2,$3*
1,1,$1+$1,$4,$5*
1,1,$1+$1,$6,$7*
1,1,$1+$1,$8,$9*
0 Add four rect primitives between the rounded corners*
20,1,$1+$1,$2,$3,$4,$5,0*
20,1,$1+$1,$4,$5,$6,$7,0*
20,1,$1+$1,$6,$7,$8,$9,0*
20,1,$1+$1,$8,$9,$2,$3,0*%
G04 Aperture macros list end*
%ADD10RoundRect,0.250000X0.600000X0.750000X-0.600000X0.750000X-0.600000X-0.750000X0.600000X-0.750000X0*%
%ADD11O,1.700000X2.000000*%
%ADD12C,0.800000*%
%ADD13C,6.000000*%
%ADD14R,1.600000X1.600000*%
%ADD15O,1.600000X1.600000*%
%ADD16C,3.250000*%
%ADD17R,1.500000X1.500000*%
%ADD18C,1.500000*%
%ADD19C,2.300000*%
%ADD20RoundRect,0.250000X-0.600000X-0.725000X0.600000X-0.725000X0.600000X0.725000X-0.600000X0.725000X0*%
%ADD21O,1.700000X1.950000*%
%ADD22C,1.600000*%
%ADD23R,2.000000X1.200000*%
%ADD24O,2.000000X1.200000*%
G04 APERTURE END LIST*
G36*
X168561471Y-104485994D02*
G01*
X165941471Y-104485994D01*
X165941471Y-103945569D01*
X167921471Y-103945569D01*
X167921471Y-102964796D01*
X166241471Y-102964796D01*
X166241471Y-102444387D01*
X167921471Y-102444387D01*
X167921471Y-101523662D01*
X166021471Y-101523662D01*
X166021471Y-100983236D01*
X168561471Y-100983236D01*
X168561471Y-104485994D01*
G37*
G36*
X215966313Y-102167752D02*
G01*
X215971471Y-103352267D01*
X216931471Y-102169167D01*
X217891471Y-100986066D01*
X218421471Y-100983236D01*
X218421471Y-104485994D01*
X217781789Y-104485994D01*
X217776630Y-103307166D01*
X217771471Y-102128337D01*
X216812641Y-103307166D01*
X215853810Y-104485994D01*
X215321471Y-104485994D01*
X215321471Y-100983236D01*
X215961154Y-100983236D01*
X215966313Y-102167752D01*
G37*
G36*
X226241471Y-104485994D02*
G01*
X226241471Y-103468749D01*
X225646471Y-103460514D01*
X225615848Y-103460089D01*
X225451172Y-103457647D01*
X225320006Y-103455135D01*
X225216777Y-103452099D01*
X225135913Y-103448086D01*
X225071840Y-103442641D01*
X225018985Y-103435312D01*
X224971777Y-103425645D01*
X224924643Y-103413186D01*
X224872009Y-103397481D01*
X224822726Y-103381939D01*
X224666967Y-103323542D01*
X224535860Y-103255987D01*
X224417395Y-103172310D01*
X224299563Y-103065549D01*
X224269625Y-103035064D01*
X224154630Y-102897313D01*
X224070218Y-102753612D01*
X224013598Y-102596702D01*
X223981982Y-102419320D01*
X223972580Y-102214205D01*
X223972792Y-102188164D01*
X223973141Y-102181599D01*
X224621722Y-102181599D01*
X224625805Y-102319218D01*
X224647576Y-102448863D01*
X224686413Y-102556275D01*
X224751070Y-102656479D01*
X224858673Y-102760174D01*
X224996479Y-102839205D01*
X225165842Y-102894531D01*
X225183660Y-102898392D01*
X225249249Y-102908324D01*
X225335498Y-102915656D01*
X225447233Y-102920631D01*
X225589282Y-102923489D01*
X225766471Y-102924469D01*
X226241471Y-102924765D01*
X226241471Y-101518858D01*
X225736471Y-101529236D01*
X225717084Y-101529640D01*
X225544436Y-101533946D01*
X225405320Y-101539349D01*
X225293859Y-101546684D01*
X225204175Y-101556783D01*
X225130389Y-101570483D01*
X225066624Y-101588618D01*
X225007003Y-101612023D01*
X224945646Y-101641532D01*
X224937997Y-101645530D01*
X224822742Y-101727597D01*
X224726818Y-101836412D01*
X224660467Y-101960521D01*
X224635948Y-102050263D01*
X224621722Y-102181599D01*
X223973141Y-102181599D01*
X223981027Y-102033057D01*
X224003628Y-101899213D01*
X224044076Y-101771503D01*
X224105849Y-101634795D01*
X224113226Y-101620575D01*
X224201301Y-101489199D01*
X224318855Y-101363792D01*
X224456555Y-101253120D01*
X224605066Y-101165948D01*
X224690459Y-101126714D01*
X224775697Y-101092429D01*
X224862198Y-101063962D01*
X224954264Y-101040793D01*
X225056198Y-101022401D01*
X225172301Y-101008266D01*
X225306876Y-100997868D01*
X225464226Y-100990686D01*
X225648653Y-100986200D01*
X225864459Y-100983891D01*
X226115947Y-100983236D01*
X226881471Y-100983236D01*
X226881471Y-104485994D01*
X226241471Y-104485994D01*
G37*
G36*
X187251466Y-91967408D02*
G01*
X187632057Y-91967938D01*
X188006046Y-91968878D01*
X188370650Y-91970227D01*
X188723086Y-91971985D01*
X189060571Y-91974152D01*
X189380322Y-91976728D01*
X189679556Y-91979712D01*
X189955490Y-91983106D01*
X190205341Y-91986908D01*
X190426326Y-91991120D01*
X190615662Y-91995740D01*
X190770567Y-92000768D01*
X190888256Y-92006206D01*
X190929236Y-92008175D01*
X191014051Y-92011402D01*
X191126043Y-92015077D01*
X191257851Y-92018976D01*
X191402114Y-92022872D01*
X191551471Y-92026540D01*
X191665705Y-92029313D01*
X191808890Y-92033105D01*
X191940051Y-92036922D01*
X192052196Y-92040544D01*
X192138333Y-92043758D01*
X192191471Y-92046345D01*
X192192303Y-92046398D01*
X192251035Y-92049430D01*
X192340946Y-92053201D01*
X192453407Y-92057392D01*
X192579792Y-92061679D01*
X192711471Y-92065741D01*
X192842626Y-92069790D01*
X192974502Y-92074264D01*
X193094519Y-92078722D01*
X193193301Y-92082814D01*
X193261471Y-92086192D01*
X193266563Y-92086487D01*
X193347654Y-92090745D01*
X193454355Y-92095800D01*
X193573386Y-92101043D01*
X193691471Y-92105867D01*
X193903013Y-92114562D01*
X194215778Y-92129060D01*
X194551471Y-92146537D01*
X194823454Y-92161453D01*
X195098674Y-92176785D01*
X195356306Y-92191437D01*
X195608129Y-92206085D01*
X195865925Y-92221409D01*
X196141471Y-92238086D01*
X196262194Y-92245454D01*
X196434408Y-92256009D01*
X196577492Y-92264866D01*
X196698181Y-92272460D01*
X196803212Y-92279227D01*
X196899320Y-92285606D01*
X196993242Y-92292031D01*
X197091714Y-92298939D01*
X197201471Y-92306767D01*
X197208129Y-92307244D01*
X197282100Y-92312543D01*
X197382174Y-92319711D01*
X197496062Y-92327865D01*
X197611471Y-92336127D01*
X197727532Y-92344536D01*
X197876333Y-92355519D01*
X198024129Y-92366606D01*
X198151471Y-92376349D01*
X198251692Y-92384108D01*
X198398473Y-92395428D01*
X198548546Y-92406961D01*
X198681471Y-92417134D01*
X198716520Y-92419812D01*
X198952306Y-92438006D01*
X199169464Y-92455149D01*
X199375297Y-92471874D01*
X199577109Y-92488810D01*
X199782203Y-92506591D01*
X199997883Y-92525848D01*
X200231452Y-92547213D01*
X200490214Y-92571317D01*
X200781471Y-92598793D01*
X200831901Y-92603568D01*
X201020187Y-92621335D01*
X201203452Y-92638537D01*
X201375896Y-92654634D01*
X201531720Y-92669089D01*
X201665124Y-92681363D01*
X201770308Y-92690917D01*
X201841471Y-92697212D01*
X201921400Y-92704209D01*
X202018044Y-92712998D01*
X202098716Y-92720689D01*
X202151471Y-92726168D01*
X202153481Y-92726397D01*
X202194773Y-92730936D01*
X202270427Y-92739108D01*
X202375510Y-92750385D01*
X202505089Y-92764241D01*
X202654231Y-92780146D01*
X202818003Y-92797575D01*
X202991471Y-92815999D01*
X203144204Y-92832260D01*
X203334657Y-92852676D01*
X203521807Y-92872878D01*
X203698359Y-92892073D01*
X203857018Y-92909467D01*
X203990487Y-92924265D01*
X204091471Y-92935675D01*
X204215203Y-92949885D01*
X204439095Y-92975624D01*
X204629551Y-92997566D01*
X204790795Y-93016202D01*
X204927054Y-93032027D01*
X205042553Y-93045533D01*
X205141518Y-93057214D01*
X205228176Y-93067562D01*
X205306752Y-93077072D01*
X205381471Y-93086237D01*
X205460790Y-93096009D01*
X205604328Y-93113643D01*
X205751832Y-93131716D01*
X205881471Y-93147550D01*
X205977306Y-93159350D01*
X206091298Y-93173649D01*
X206194109Y-93186805D01*
X206271471Y-93197008D01*
X206285197Y-93198856D01*
X206379165Y-93211068D01*
X206488220Y-93224706D01*
X206591471Y-93237148D01*
X206610835Y-93239439D01*
X206714470Y-93252121D01*
X206817947Y-93265349D01*
X206901471Y-93276605D01*
X206988039Y-93288608D01*
X207092621Y-93302834D01*
X207191471Y-93316048D01*
X207202400Y-93317495D01*
X207288680Y-93329059D01*
X207399343Y-93344060D01*
X207521303Y-93360716D01*
X207641471Y-93377247D01*
X207662516Y-93380154D01*
X207782476Y-93396685D01*
X207900709Y-93412924D01*
X208004585Y-93427140D01*
X208081471Y-93437600D01*
X208104767Y-93440759D01*
X208248243Y-93460514D01*
X208418775Y-93484397D01*
X208610809Y-93511598D01*
X208818788Y-93541309D01*
X209037156Y-93572723D01*
X209260359Y-93605030D01*
X209482841Y-93637421D01*
X209699046Y-93669090D01*
X209903418Y-93699227D01*
X210090402Y-93727024D01*
X210254443Y-93751672D01*
X210389985Y-93772363D01*
X210491471Y-93788288D01*
X210535417Y-93795286D01*
X210639473Y-93811444D01*
X210736978Y-93826094D01*
X210811471Y-93836746D01*
X210857858Y-93843332D01*
X210958794Y-93858836D01*
X211051471Y-93874316D01*
X211052380Y-93874476D01*
X211134712Y-93888294D01*
X211234903Y-93904074D01*
X211331471Y-93918433D01*
X211352293Y-93921426D01*
X211457174Y-93936967D01*
X211576890Y-93955484D01*
X211717584Y-93977954D01*
X211885397Y-94005356D01*
X212086471Y-94038667D01*
X212217370Y-94060465D01*
X212388414Y-94088949D01*
X212528089Y-94112213D01*
X212641290Y-94131072D01*
X212732910Y-94146342D01*
X212807844Y-94158839D01*
X212870986Y-94169380D01*
X212927230Y-94178778D01*
X212981471Y-94187852D01*
X213025475Y-94195233D01*
X213111928Y-94209829D01*
X213212892Y-94226994D01*
X213333348Y-94247578D01*
X213478276Y-94272434D01*
X213652657Y-94302414D01*
X213861471Y-94338370D01*
X213953136Y-94354283D01*
X214095608Y-94379322D01*
X214241845Y-94405302D01*
X214371471Y-94428617D01*
X214465784Y-94445591D01*
X214609726Y-94471143D01*
X214755080Y-94496617D01*
X214881471Y-94518424D01*
X214891681Y-94520170D01*
X215012135Y-94541218D01*
X215153427Y-94566543D01*
X215298794Y-94593110D01*
X215431471Y-94617890D01*
X215471467Y-94625460D01*
X215612042Y-94651986D01*
X215769923Y-94681686D01*
X215928577Y-94711451D01*
X216071471Y-94738176D01*
X216196481Y-94761627D01*
X216447962Y-94809376D01*
X216725584Y-94862722D01*
X217020964Y-94920043D01*
X217325721Y-94979715D01*
X217631471Y-95040118D01*
X217872344Y-95088183D01*
X218208845Y-95156095D01*
X218558529Y-95227463D01*
X218917900Y-95301537D01*
X219283466Y-95377565D01*
X219651730Y-95454795D01*
X220019201Y-95532477D01*
X220382382Y-95609859D01*
X220737780Y-95686189D01*
X221081901Y-95760718D01*
X221411251Y-95832693D01*
X221722335Y-95901363D01*
X222011659Y-95965977D01*
X222275728Y-96025784D01*
X222511050Y-96080033D01*
X222714129Y-96127972D01*
X222881471Y-96168849D01*
X222945829Y-96184683D01*
X223040362Y-96207434D01*
X223131471Y-96228914D01*
X223207729Y-96246985D01*
X223289716Y-96267065D01*
X223351471Y-96282882D01*
X223356603Y-96284229D01*
X223401684Y-96295575D01*
X223479853Y-96314874D01*
X223586379Y-96340974D01*
X223716533Y-96372719D01*
X223865587Y-96408955D01*
X224028809Y-96448529D01*
X224201471Y-96490287D01*
X224389345Y-96535891D01*
X224660294Y-96602351D01*
X224939815Y-96671633D01*
X225222631Y-96742392D01*
X225503467Y-96813282D01*
X225777047Y-96882959D01*
X226038097Y-96950076D01*
X226281339Y-97013289D01*
X226501500Y-97071252D01*
X226693302Y-97122620D01*
X226851471Y-97166048D01*
X226852213Y-97166255D01*
X226943457Y-97191579D01*
X227058518Y-97223264D01*
X227182742Y-97257287D01*
X227301471Y-97289622D01*
X227417507Y-97321299D01*
X227571146Y-97363869D01*
X227733790Y-97409697D01*
X227915205Y-97461540D01*
X228125159Y-97522155D01*
X228211267Y-97552779D01*
X228282962Y-97597773D01*
X228327418Y-97658254D01*
X228351501Y-97740857D01*
X228356037Y-97782715D01*
X228346713Y-97873751D01*
X228311724Y-97946369D01*
X228254301Y-97992222D01*
X228251658Y-97993370D01*
X228221604Y-98004029D01*
X228187537Y-98009901D01*
X228143585Y-98010495D01*
X228083875Y-98005322D01*
X228002534Y-97993894D01*
X227893691Y-97975719D01*
X227751471Y-97950309D01*
X227657154Y-97933339D01*
X227513213Y-97907807D01*
X227367861Y-97882366D01*
X227241471Y-97860601D01*
X227157194Y-97846248D01*
X227019284Y-97822711D01*
X226880690Y-97799010D01*
X226761471Y-97778573D01*
X226691631Y-97766621D01*
X226571463Y-97746201D01*
X226455550Y-97726657D01*
X226361471Y-97710959D01*
X226297915Y-97700402D01*
X226187537Y-97681951D01*
X226066485Y-97661615D01*
X225951471Y-97642198D01*
X225881105Y-97630385D01*
X225758676Y-97610102D01*
X225618033Y-97587031D01*
X225471517Y-97563194D01*
X225331471Y-97540612D01*
X225229470Y-97524192D01*
X225085283Y-97500807D01*
X224944541Y-97477806D01*
X224819264Y-97457155D01*
X224721471Y-97440821D01*
X224655107Y-97429665D01*
X224529681Y-97408790D01*
X224405426Y-97388328D01*
X224301471Y-97371439D01*
X224271697Y-97366657D01*
X224122303Y-97342719D01*
X223944720Y-97314333D01*
X223748131Y-97282962D01*
X223541718Y-97250068D01*
X223334664Y-97217115D01*
X223136150Y-97185563D01*
X222955358Y-97156877D01*
X222801471Y-97132518D01*
X222772861Y-97127995D01*
X222654499Y-97109252D01*
X222526327Y-97088921D01*
X222411471Y-97070668D01*
X222380460Y-97065737D01*
X222260605Y-97046720D01*
X222135063Y-97026853D01*
X222026427Y-97009712D01*
X222012806Y-97007566D01*
X221896480Y-96989136D01*
X221769291Y-96968850D01*
X221656427Y-96950724D01*
X221653615Y-96950270D01*
X221559526Y-96935390D01*
X221441244Y-96917098D01*
X221313611Y-96897671D01*
X221191471Y-96879386D01*
X221188293Y-96878915D01*
X221065096Y-96860553D01*
X220936156Y-96841157D01*
X220816579Y-96823011D01*
X220721471Y-96808394D01*
X220690458Y-96803589D01*
X220585279Y-96787426D01*
X220482816Y-96771849D01*
X220401471Y-96759661D01*
X220371945Y-96755271D01*
X220280929Y-96741582D01*
X220174990Y-96725494D01*
X220071471Y-96709635D01*
X219987511Y-96696801D01*
X219864602Y-96678210D01*
X219733546Y-96658551D01*
X219611471Y-96640402D01*
X219517781Y-96626519D01*
X219387029Y-96607079D01*
X219239436Y-96585086D01*
X219086938Y-96562318D01*
X218941471Y-96540554D01*
X218788854Y-96517740D01*
X218557256Y-96483303D01*
X218330609Y-96449808D01*
X218113853Y-96417976D01*
X217911934Y-96388526D01*
X217729793Y-96362179D01*
X217572373Y-96339654D01*
X217444618Y-96321671D01*
X217351471Y-96308951D01*
X217258978Y-96296349D01*
X217135815Y-96279017D01*
X217004536Y-96260108D01*
X216881471Y-96241949D01*
X216867681Y-96239889D01*
X216758139Y-96223824D01*
X216621704Y-96204194D01*
X216469420Y-96182571D01*
X216312328Y-96160522D01*
X216161471Y-96139618D01*
X216141075Y-96136813D01*
X215987629Y-96115668D01*
X215828656Y-96093702D01*
X215675446Y-96072478D01*
X215539289Y-96053559D01*
X215431471Y-96038509D01*
X215420073Y-96036913D01*
X215301848Y-96020440D01*
X215183942Y-96004145D01*
X215079451Y-95989829D01*
X215001471Y-95979296D01*
X214903027Y-95966089D01*
X214739545Y-95943874D01*
X214560675Y-95919307D01*
X214377425Y-95893914D01*
X214200803Y-95869224D01*
X214041816Y-95846763D01*
X213911471Y-95828059D01*
X213907910Y-95827546D01*
X213855412Y-95820292D01*
X213779905Y-95810183D01*
X213696471Y-95799242D01*
X213607352Y-95787599D01*
X213490925Y-95772228D01*
X213386471Y-95758289D01*
X213333585Y-95751279D01*
X213229577Y-95737812D01*
X213113314Y-95723036D01*
X213001471Y-95709083D01*
X212783362Y-95681639D01*
X212556842Y-95651835D01*
X212311471Y-95618212D01*
X212260572Y-95611254D01*
X212162491Y-95598204D01*
X212050919Y-95583658D01*
X211941471Y-95569667D01*
X211871233Y-95560760D01*
X211753329Y-95545686D01*
X211641067Y-95531205D01*
X211551471Y-95519506D01*
X211490431Y-95511574D01*
X211383743Y-95498012D01*
X211265352Y-95483217D01*
X211151471Y-95469226D01*
X210968975Y-95446960D01*
X210752223Y-95420263D01*
X210560441Y-95396342D01*
X210398550Y-95375812D01*
X210271471Y-95359287D01*
X210234002Y-95354426D01*
X210140902Y-95342766D01*
X210025338Y-95328656D01*
X209898474Y-95313453D01*
X209771471Y-95298513D01*
X209719155Y-95292405D01*
X209576167Y-95275558D01*
X209429168Y-95258053D01*
X209292742Y-95241633D01*
X209181471Y-95228040D01*
X208963691Y-95201303D01*
X208531855Y-95149497D01*
X208091471Y-95098366D01*
X208048186Y-95093413D01*
X207892534Y-95075568D01*
X207720869Y-95055844D01*
X207551184Y-95036308D01*
X207401471Y-95019031D01*
X207294577Y-95006765D01*
X207114142Y-94986363D01*
X206900872Y-94962554D01*
X206653610Y-94935209D01*
X206371196Y-94904203D01*
X206052474Y-94869406D01*
X205696285Y-94830692D01*
X205301471Y-94787934D01*
X205240911Y-94781417D01*
X205043316Y-94760498D01*
X204818932Y-94737177D01*
X204571677Y-94711836D01*
X204305467Y-94684856D01*
X204024218Y-94656617D01*
X203731847Y-94627500D01*
X203432271Y-94597886D01*
X203129405Y-94568157D01*
X202827166Y-94538693D01*
X202529472Y-94509875D01*
X202240237Y-94482084D01*
X201963380Y-94455701D01*
X201702816Y-94431107D01*
X201462461Y-94408682D01*
X201246233Y-94388809D01*
X201058048Y-94371867D01*
X200901822Y-94358238D01*
X200781471Y-94348302D01*
X200747226Y-94345543D01*
X200663518Y-94338591D01*
X200556192Y-94329512D01*
X200435444Y-94319171D01*
X200311471Y-94308432D01*
X200199856Y-94298755D01*
X199940886Y-94276651D01*
X199677502Y-94254607D01*
X199420765Y-94233533D01*
X199181734Y-94214342D01*
X198971471Y-94197946D01*
X198852479Y-94188820D01*
X198709205Y-94177777D01*
X198569480Y-94166961D01*
X198451471Y-94157774D01*
X198371845Y-94151613D01*
X198250167Y-94142384D01*
X198134378Y-94133793D01*
X198041471Y-94127109D01*
X198028940Y-94126229D01*
X197931587Y-94119290D01*
X197836089Y-94112326D01*
X197761471Y-94106723D01*
X197746505Y-94105596D01*
X197681303Y-94100910D01*
X197586586Y-94094288D01*
X197469966Y-94086257D01*
X197339056Y-94077341D01*
X197201471Y-94068068D01*
X197156215Y-94065033D01*
X197016724Y-94055672D01*
X196884291Y-94046774D01*
X196767129Y-94038893D01*
X196673452Y-94032580D01*
X196611471Y-94028388D01*
X196598313Y-94027500D01*
X196504278Y-94021365D01*
X196394984Y-94014490D01*
X196291471Y-94008203D01*
X196262719Y-94006493D01*
X196174399Y-94001219D01*
X196058575Y-93994281D01*
X195923785Y-93986192D01*
X195778571Y-93977465D01*
X195631471Y-93968610D01*
X195574010Y-93965162D01*
X195420923Y-93956088D01*
X195269581Y-93947266D01*
X195129528Y-93939242D01*
X195010310Y-93932566D01*
X194921471Y-93927786D01*
X194845289Y-93923725D01*
X194740382Y-93917797D01*
X194647846Y-93912211D01*
X194581471Y-93907777D01*
X194566330Y-93906731D01*
X194495714Y-93902605D01*
X194399217Y-93897670D01*
X194287562Y-93892457D01*
X194171471Y-93887496D01*
X194138827Y-93886156D01*
X194019860Y-93881052D01*
X193906297Y-93875872D01*
X193809660Y-93871154D01*
X193741471Y-93867436D01*
X193716845Y-93866035D01*
X193636308Y-93862004D01*
X193531340Y-93857243D01*
X193412782Y-93852233D01*
X193291471Y-93847454D01*
X193235770Y-93845300D01*
X193117668Y-93840440D01*
X193009168Y-93835610D01*
X192920394Y-93831269D01*
X192861471Y-93827879D01*
X192834739Y-93826369D01*
X192762790Y-93823222D01*
X192662339Y-93819471D01*
X192540536Y-93815364D01*
X192404531Y-93811150D01*
X192261471Y-93807075D01*
X192172693Y-93804598D01*
X192034353Y-93800492D01*
X191908082Y-93796454D01*
X191800858Y-93792721D01*
X191719661Y-93789528D01*
X191671471Y-93787113D01*
X191627110Y-93784544D01*
X191509930Y-93779681D01*
X191356555Y-93775161D01*
X191169518Y-93770986D01*
X190951354Y-93767154D01*
X190704594Y-93763665D01*
X190431772Y-93760519D01*
X190135421Y-93757717D01*
X189818075Y-93755258D01*
X189482265Y-93753141D01*
X189130526Y-93751367D01*
X188765390Y-93749936D01*
X188389390Y-93748847D01*
X188005060Y-93748100D01*
X187614933Y-93747695D01*
X187221542Y-93747632D01*
X186827419Y-93747912D01*
X186435099Y-93748532D01*
X186047113Y-93749495D01*
X185665996Y-93750798D01*
X185294280Y-93752443D01*
X184934499Y-93754429D01*
X184589184Y-93756756D01*
X184260871Y-93759423D01*
X183952091Y-93762432D01*
X183665378Y-93765780D01*
X183403264Y-93769470D01*
X183168284Y-93773499D01*
X182962970Y-93777868D01*
X182789854Y-93782578D01*
X182651471Y-93787627D01*
X182647637Y-93787791D01*
X182572023Y-93790492D01*
X182464346Y-93793660D01*
X182332030Y-93797109D01*
X182182498Y-93800655D01*
X182023171Y-93804113D01*
X181861471Y-93807298D01*
X181697992Y-93810489D01*
X181529329Y-93814057D01*
X181366907Y-93817746D01*
X181219165Y-93821357D01*
X181094540Y-93824693D01*
X181001471Y-93827554D01*
X180916420Y-93830374D01*
X180783001Y-93834573D01*
X180632509Y-93839121D01*
X180477736Y-93843634D01*
X180331471Y-93847728D01*
X180212177Y-93851078D01*
X180063557Y-93855480D01*
X179919321Y-93859971D01*
X179791337Y-93864179D01*
X179691471Y-93867733D01*
X179645087Y-93869455D01*
X179524750Y-93873721D01*
X179384823Y-93878478D01*
X179239124Y-93883262D01*
X179101471Y-93887607D01*
X179037843Y-93889595D01*
X178894638Y-93894248D01*
X178749962Y-93899152D01*
X178617634Y-93903834D01*
X178511471Y-93907820D01*
X178414168Y-93911649D01*
X178275275Y-93917114D01*
X178131334Y-93922777D01*
X178001471Y-93927887D01*
X177892897Y-93932192D01*
X177755495Y-93937707D01*
X177622412Y-93943109D01*
X177511471Y-93947679D01*
X177417217Y-93951585D01*
X177286088Y-93956977D01*
X177148231Y-93962609D01*
X177021471Y-93967754D01*
X176911547Y-93972230D01*
X176776889Y-93977784D01*
X176647797Y-93983174D01*
X176541471Y-93987685D01*
X176457641Y-93991254D01*
X176330467Y-93996592D01*
X176195730Y-94002183D01*
X176071471Y-94007275D01*
X176063573Y-94007597D01*
X175946561Y-94012470D01*
X175830435Y-94017553D01*
X175707028Y-94023229D01*
X175568176Y-94029882D01*
X175405713Y-94037895D01*
X175211471Y-94047652D01*
X175148629Y-94050781D01*
X175033860Y-94056362D01*
X174908889Y-94062321D01*
X174791471Y-94067805D01*
X174730522Y-94070672D01*
X174608679Y-94076604D01*
X174467933Y-94083636D01*
X174321219Y-94091118D01*
X174181471Y-94098402D01*
X174088726Y-94103291D01*
X173950081Y-94110570D01*
X173816593Y-94117548D01*
X173699858Y-94123618D01*
X173611471Y-94128176D01*
X173574984Y-94130045D01*
X173350633Y-94141607D01*
X173160348Y-94151560D01*
X172999003Y-94160173D01*
X172861471Y-94167717D01*
X172842476Y-94168774D01*
X172733453Y-94174797D01*
X172612150Y-94181445D01*
X172501471Y-94187459D01*
X172440464Y-94190823D01*
X172325989Y-94197321D01*
X172187960Y-94205301D01*
X172036005Y-94214196D01*
X171879751Y-94223440D01*
X171728827Y-94232464D01*
X171592858Y-94240700D01*
X171481471Y-94247582D01*
X171413639Y-94251495D01*
X171315885Y-94256630D01*
X171204071Y-94262149D01*
X171091471Y-94267379D01*
X171082852Y-94267768D01*
X170979633Y-94272928D01*
X170886743Y-94278415D01*
X170814062Y-94283595D01*
X170771471Y-94287839D01*
X170728520Y-94292141D01*
X170655727Y-94297352D01*
X170563316Y-94302809D01*
X170461471Y-94307854D01*
X170360422Y-94312834D01*
X170265240Y-94318371D01*
X170188702Y-94323693D01*
X170141471Y-94328127D01*
X170100310Y-94332091D01*
X170026109Y-94337357D01*
X169932820Y-94342824D01*
X169831471Y-94347794D01*
X169740707Y-94352221D01*
X169646037Y-94357737D01*
X169569283Y-94363162D01*
X169521471Y-94367784D01*
X169494283Y-94370745D01*
X169425800Y-94376314D01*
X169337413Y-94382143D01*
X169241471Y-94387369D01*
X169179409Y-94390527D01*
X169055078Y-94397546D01*
X168906886Y-94406697D01*
X168731633Y-94418193D01*
X168526114Y-94432246D01*
X168287128Y-94449069D01*
X168011471Y-94468874D01*
X167884513Y-94477915D01*
X167745307Y-94487522D01*
X167614800Y-94496238D01*
X167503389Y-94503367D01*
X167421471Y-94508218D01*
X167383331Y-94510464D01*
X167289587Y-94516606D01*
X167169134Y-94525018D01*
X167030367Y-94535097D01*
X166881682Y-94546239D01*
X166731471Y-94557841D01*
X166643183Y-94564734D01*
X166495305Y-94576125D01*
X166355160Y-94586743D01*
X166230782Y-94595986D01*
X166130207Y-94603255D01*
X166061471Y-94607947D01*
X166060022Y-94608039D01*
X165952706Y-94614894D01*
X165834765Y-94622426D01*
X165731471Y-94629020D01*
X165699272Y-94631239D01*
X165623446Y-94636813D01*
X165514948Y-94645011D01*
X165377948Y-94655511D01*
X165216621Y-94667987D01*
X165035137Y-94682119D01*
X164837670Y-94697582D01*
X164628390Y-94714054D01*
X164411471Y-94731212D01*
X164200036Y-94747978D01*
X163977645Y-94765615D01*
X163789002Y-94780583D01*
X163630750Y-94793152D01*
X163499535Y-94803592D01*
X163392000Y-94812173D01*
X163304789Y-94819165D01*
X163234545Y-94824839D01*
X163177914Y-94829465D01*
X163131538Y-94833312D01*
X163092062Y-94836651D01*
X163056129Y-94839752D01*
X163020385Y-94842885D01*
X162981471Y-94846321D01*
X162980637Y-94846394D01*
X162919333Y-94851685D01*
X162827895Y-94859421D01*
X162712157Y-94869121D01*
X162577950Y-94880303D01*
X162431108Y-94892487D01*
X162277465Y-94905193D01*
X162122852Y-94917939D01*
X161973103Y-94930244D01*
X161834051Y-94941628D01*
X161711529Y-94951610D01*
X161611370Y-94959708D01*
X161539406Y-94965442D01*
X161501471Y-94968332D01*
X161488296Y-94969327D01*
X161434652Y-94973721D01*
X161350933Y-94980787D01*
X161243729Y-94989950D01*
X161119631Y-95000639D01*
X160985228Y-95012280D01*
X160847111Y-95024301D01*
X160711869Y-95036128D01*
X160586095Y-95047188D01*
X160476377Y-95056910D01*
X160389306Y-95064719D01*
X160331471Y-95070043D01*
X160296626Y-95073247D01*
X160224303Y-95079736D01*
X160127152Y-95088355D01*
X160013450Y-95098372D01*
X159891471Y-95109051D01*
X159829645Y-95114462D01*
X159674045Y-95128177D01*
X159510107Y-95142735D01*
X159353895Y-95156709D01*
X159221471Y-95168668D01*
X159185710Y-95171920D01*
X159041132Y-95185055D01*
X158879012Y-95199770D01*
X158716682Y-95214492D01*
X158571471Y-95227649D01*
X158512068Y-95233054D01*
X158375267Y-95245662D01*
X158239213Y-95258393D01*
X158116937Y-95270021D01*
X158021471Y-95279322D01*
X157966326Y-95284774D01*
X157863319Y-95294806D01*
X157770019Y-95303719D01*
X157701471Y-95310067D01*
X157590150Y-95320111D01*
X157261802Y-95350619D01*
X156931932Y-95382686D01*
X156581471Y-95418153D01*
X156527811Y-95423594D01*
X156422231Y-95433913D01*
X156324856Y-95442985D01*
X156251471Y-95449320D01*
X156199858Y-95453806D01*
X156121332Y-95461820D01*
X156061471Y-95469304D01*
X156032383Y-95473198D01*
X155959005Y-95481280D01*
X155881471Y-95488209D01*
X155797242Y-95494902D01*
X155673433Y-95505386D01*
X155553950Y-95516177D01*
X155445902Y-95526583D01*
X155356400Y-95535912D01*
X155292553Y-95543471D01*
X155261471Y-95548568D01*
X155260040Y-95548960D01*
X155223451Y-95554787D01*
X155160674Y-95561501D01*
X155084422Y-95567726D01*
X154989618Y-95575427D01*
X154877472Y-95586137D01*
X154774422Y-95597374D01*
X154722628Y-95603432D01*
X154663444Y-95610099D01*
X154597032Y-95617266D01*
X154517963Y-95625487D01*
X154420804Y-95635319D01*
X154300123Y-95647317D01*
X154150490Y-95662038D01*
X153966471Y-95680036D01*
X153912483Y-95685431D01*
X153798544Y-95697439D01*
X153688961Y-95709683D01*
X153601471Y-95720212D01*
X153516114Y-95730369D01*
X153416754Y-95740801D01*
X153334139Y-95748106D01*
X153310621Y-95749967D01*
X153225832Y-95757630D01*
X153124644Y-95767729D01*
X153024139Y-95778584D01*
X153023136Y-95778697D01*
X152926180Y-95789537D01*
X152805009Y-95802920D01*
X152674985Y-95817158D01*
X152551471Y-95830560D01*
X152545209Y-95831236D01*
X152424221Y-95844495D01*
X152300485Y-95858367D01*
X152188177Y-95871247D01*
X152101471Y-95881530D01*
X152092327Y-95882637D01*
X151990978Y-95894025D01*
X151886974Y-95904418D01*
X151801471Y-95911691D01*
X151779131Y-95913458D01*
X151689069Y-95922235D01*
X151583708Y-95934267D01*
X151481471Y-95947493D01*
X151437233Y-95953494D01*
X151352103Y-95964233D01*
X151282909Y-95971926D01*
X151241471Y-95975206D01*
X151213147Y-95977118D01*
X151143966Y-95983882D01*
X151042640Y-95995012D01*
X150913447Y-96010008D01*
X150760668Y-96028371D01*
X150588583Y-96049601D01*
X150401471Y-96073199D01*
X150300642Y-96085644D01*
X150200467Y-96097246D01*
X150116903Y-96106156D01*
X150061471Y-96111089D01*
X150053189Y-96111684D01*
X150009046Y-96115636D01*
X149945234Y-96122354D01*
X149858898Y-96132181D01*
X149747180Y-96145461D01*
X149607224Y-96162537D01*
X149436173Y-96183752D01*
X149231171Y-96209450D01*
X148989360Y-96239975D01*
X148908505Y-96249936D01*
X148793462Y-96262187D01*
X148708115Y-96267273D01*
X148646220Y-96264734D01*
X148601537Y-96254111D01*
X148567823Y-96234943D01*
X148538837Y-96206770D01*
X148515616Y-96175460D01*
X148489485Y-96097172D01*
X148501690Y-96008657D01*
X148507484Y-95993067D01*
X148538276Y-95944793D01*
X148589260Y-95906989D01*
X148667034Y-95875809D01*
X148778196Y-95847405D01*
X148818609Y-95838623D01*
X149025497Y-95794021D01*
X149229184Y-95750658D01*
X149420713Y-95710420D01*
X149591127Y-95675191D01*
X149731471Y-95646855D01*
X149798292Y-95633591D01*
X149903079Y-95612699D01*
X149984997Y-95596173D01*
X150054841Y-95581803D01*
X150123401Y-95567383D01*
X150201471Y-95550703D01*
X150295003Y-95531268D01*
X150408308Y-95508749D01*
X150511471Y-95489160D01*
X150608441Y-95471055D01*
X150726167Y-95448546D01*
X150831471Y-95427929D01*
X150929149Y-95408696D01*
X151042279Y-95386791D01*
X151141471Y-95367925D01*
X151235562Y-95350024D01*
X151348594Y-95328112D01*
X151451471Y-95307805D01*
X151563976Y-95285512D01*
X151757702Y-95248384D01*
X151932485Y-95216823D01*
X152101471Y-95188417D01*
X152148120Y-95180710D01*
X152228833Y-95166660D01*
X152291337Y-95154853D01*
X152324976Y-95147252D01*
X152329064Y-95146091D01*
X152370291Y-95136813D01*
X152436343Y-95123799D01*
X152514976Y-95109483D01*
X152576750Y-95098598D01*
X152681838Y-95079927D01*
X152798666Y-95059041D01*
X152911471Y-95038752D01*
X153219301Y-94983849D01*
X153513529Y-94932894D01*
X153771471Y-94889964D01*
X153824325Y-94881110D01*
X153912919Y-94865058D01*
X153985968Y-94850350D01*
X154031471Y-94839323D01*
X154044720Y-94835801D01*
X154103014Y-94824024D01*
X154183010Y-94810923D01*
X154271471Y-94798736D01*
X154302170Y-94794783D01*
X154391602Y-94781891D01*
X154469430Y-94768822D01*
X154521577Y-94757878D01*
X154524091Y-94757231D01*
X154573351Y-94746672D01*
X154651135Y-94732125D01*
X154747269Y-94715424D01*
X154851577Y-94698404D01*
X154908742Y-94689338D01*
X155036206Y-94668924D01*
X155181711Y-94645432D01*
X155331414Y-94621098D01*
X155471471Y-94598161D01*
X155532032Y-94588255D01*
X155690212Y-94562772D01*
X155858959Y-94536032D01*
X156021603Y-94510664D01*
X156161471Y-94489299D01*
X156229513Y-94478930D01*
X156347755Y-94460306D01*
X156455448Y-94442629D01*
X156542915Y-94427501D01*
X156600477Y-94416528D01*
X156613759Y-94413920D01*
X156674221Y-94403516D01*
X156770238Y-94388120D01*
X156898893Y-94368155D01*
X157057264Y-94344040D01*
X157242434Y-94316197D01*
X157451483Y-94285048D01*
X157681491Y-94251012D01*
X157929540Y-94214511D01*
X158192711Y-94175966D01*
X158468083Y-94135799D01*
X158752739Y-94094429D01*
X159043758Y-94052278D01*
X159338222Y-94009768D01*
X159633211Y-93967319D01*
X159925807Y-93925351D01*
X160213089Y-93884287D01*
X160492139Y-93844547D01*
X160760038Y-93806552D01*
X161013866Y-93770724D01*
X161250704Y-93737483D01*
X161467633Y-93707249D01*
X161661734Y-93680446D01*
X161830088Y-93657492D01*
X161969775Y-93638810D01*
X162077876Y-93624820D01*
X162151471Y-93615943D01*
X162195927Y-93610824D01*
X162293672Y-93599069D01*
X162417454Y-93583776D01*
X162558917Y-93565990D01*
X162709708Y-93546756D01*
X162861471Y-93527119D01*
X162907941Y-93521080D01*
X163087953Y-93497986D01*
X163282978Y-93473354D01*
X163479349Y-93448889D01*
X163663402Y-93426297D01*
X163821471Y-93407285D01*
X163834564Y-93405732D01*
X163990754Y-93387045D01*
X164155649Y-93367062D01*
X164317139Y-93347267D01*
X164463116Y-93329143D01*
X164581471Y-93314174D01*
X164629346Y-93308100D01*
X164745851Y-93293856D01*
X164853565Y-93281379D01*
X164942200Y-93271839D01*
X165001471Y-93266406D01*
X165053249Y-93261906D01*
X165141287Y-93252917D01*
X165245054Y-93241357D01*
X165351471Y-93228638D01*
X165352282Y-93228537D01*
X165468340Y-93214465D01*
X165606748Y-93198175D01*
X165750220Y-93181677D01*
X165881471Y-93166984D01*
X165931332Y-93161499D01*
X166201489Y-93131598D01*
X166452909Y-93103466D01*
X166678575Y-93077891D01*
X166871471Y-93055661D01*
X166916254Y-93050569D01*
X167018061Y-93039767D01*
X167111726Y-93030758D01*
X167181471Y-93025098D01*
X167222099Y-93022010D01*
X167297808Y-93014494D01*
X167355827Y-93006607D01*
X167375947Y-93003523D01*
X167439366Y-92995536D01*
X167523552Y-92986245D01*
X167615827Y-92977090D01*
X167636623Y-92975142D01*
X167726877Y-92966592D01*
X167825690Y-92957063D01*
X167939309Y-92945940D01*
X168073980Y-92932609D01*
X168235952Y-92916456D01*
X168431471Y-92896865D01*
X168541553Y-92885826D01*
X168705347Y-92869450D01*
X168836490Y-92856424D01*
X168939524Y-92846307D01*
X169018994Y-92838661D01*
X169079446Y-92833043D01*
X169125424Y-92829014D01*
X169161471Y-92826134D01*
X169202900Y-92822740D01*
X169282297Y-92815695D01*
X169379320Y-92806705D01*
X169481471Y-92796912D01*
X169531409Y-92792068D01*
X169719764Y-92774235D01*
X169939931Y-92754000D01*
X170193927Y-92731184D01*
X170483769Y-92705604D01*
X170811471Y-92677078D01*
X170890508Y-92670230D01*
X171029050Y-92658191D01*
X171156643Y-92647061D01*
X171266061Y-92637472D01*
X171350080Y-92630056D01*
X171401471Y-92625446D01*
X171413096Y-92624382D01*
X171460246Y-92620107D01*
X171507961Y-92615884D01*
X171560171Y-92611395D01*
X171620809Y-92606322D01*
X171693805Y-92600349D01*
X171783092Y-92593159D01*
X171892599Y-92584434D01*
X172026260Y-92573857D01*
X172188004Y-92561112D01*
X172381764Y-92545881D01*
X172611471Y-92527847D01*
X172785322Y-92514213D01*
X172994501Y-92497860D01*
X173171733Y-92484090D01*
X173321617Y-92472566D01*
X173448755Y-92462948D01*
X173557744Y-92454899D01*
X173653186Y-92448080D01*
X173739680Y-92442153D01*
X173821825Y-92436780D01*
X173904223Y-92431622D01*
X173991471Y-92426340D01*
X174046384Y-92422882D01*
X174160710Y-92415049D01*
X174285286Y-92405916D01*
X174401471Y-92396825D01*
X174460245Y-92392214D01*
X174593867Y-92382622D01*
X174731601Y-92373676D01*
X174851471Y-92366841D01*
X174920657Y-92363074D01*
X175016766Y-92357120D01*
X175097861Y-92351285D01*
X175151471Y-92346417D01*
X175200281Y-92342135D01*
X175279628Y-92336825D01*
X175377076Y-92331316D01*
X175481471Y-92326291D01*
X175582513Y-92321395D01*
X175677699Y-92315904D01*
X175754239Y-92310583D01*
X175801471Y-92306103D01*
X175828668Y-92303167D01*
X175897151Y-92297573D01*
X175985535Y-92291646D01*
X176081471Y-92286260D01*
X176127397Y-92283912D01*
X176243381Y-92277782D01*
X176357805Y-92271503D01*
X176451471Y-92266121D01*
X176488819Y-92263917D01*
X176610038Y-92256966D01*
X176757058Y-92248759D01*
X176923901Y-92239611D01*
X177104591Y-92229838D01*
X177293153Y-92219754D01*
X177483609Y-92209675D01*
X177669984Y-92199917D01*
X177846302Y-92190793D01*
X178006586Y-92182620D01*
X178144860Y-92175713D01*
X178255147Y-92170387D01*
X178331471Y-92166958D01*
X178434280Y-92162512D01*
X178557437Y-92156803D01*
X178671676Y-92151142D01*
X178761471Y-92146276D01*
X178783348Y-92145019D01*
X178875517Y-92140060D01*
X178983614Y-92134773D01*
X179112449Y-92128944D01*
X179266830Y-92122362D01*
X179451568Y-92114814D01*
X179671471Y-92106087D01*
X179793770Y-92101214D01*
X179928900Y-92095703D01*
X180056949Y-92090370D01*
X180161471Y-92085891D01*
X180213398Y-92083735D01*
X180324752Y-92079538D01*
X180456415Y-92074954D01*
X180596088Y-92070407D01*
X180731471Y-92066317D01*
X180807943Y-92064057D01*
X180950779Y-92059589D01*
X181092650Y-92054880D01*
X181220550Y-92050366D01*
X181321471Y-92046485D01*
X181351172Y-92045316D01*
X181452821Y-92041747D01*
X181581243Y-92037674D01*
X181726872Y-92033383D01*
X181880137Y-92029160D01*
X182031471Y-92025291D01*
X182095694Y-92023697D01*
X182244295Y-92019840D01*
X182387929Y-92015900D01*
X182517840Y-92012127D01*
X182625272Y-92008772D01*
X182701471Y-92006086D01*
X182788450Y-92002959D01*
X182969256Y-91997757D01*
X183182421Y-91992966D01*
X183425164Y-91988584D01*
X183694700Y-91984611D01*
X183988247Y-91981049D01*
X184303022Y-91977896D01*
X184636242Y-91975152D01*
X184985123Y-91972817D01*
X185346884Y-91970893D01*
X185718741Y-91969377D01*
X186097910Y-91968271D01*
X186481609Y-91967574D01*
X186867055Y-91967286D01*
X187251466Y-91967408D01*
G37*
G36*
X155481471Y-104485994D02*
G01*
X154841471Y-104485994D01*
X154841471Y-100983236D01*
X155481471Y-100983236D01*
X155481471Y-104485994D01*
G37*
G36*
X187175837Y-100954500D02*
G01*
X187420286Y-100992368D01*
X187648463Y-101056409D01*
X187649942Y-101056936D01*
X187888803Y-101162257D01*
X188103872Y-101297594D01*
X188293636Y-101459725D01*
X188456583Y-101645433D01*
X188591199Y-101851498D01*
X188695972Y-102074700D01*
X188769390Y-102311820D01*
X188809938Y-102559638D01*
X188816104Y-102814935D01*
X188786376Y-103074491D01*
X188719241Y-103335088D01*
X188666003Y-103475205D01*
X188547459Y-103702199D01*
X188398020Y-103905782D01*
X188219803Y-104084245D01*
X188014924Y-104235878D01*
X187785498Y-104358971D01*
X187533642Y-104451816D01*
X187261471Y-104512702D01*
X187194839Y-104518978D01*
X187096998Y-104522294D01*
X186981186Y-104522554D01*
X186858565Y-104519996D01*
X186740297Y-104514857D01*
X186637545Y-104507376D01*
X186561471Y-104497791D01*
X186355304Y-104448558D01*
X186113474Y-104356862D01*
X185890795Y-104233446D01*
X185692663Y-104080897D01*
X185646437Y-104040057D01*
X185608286Y-104004519D01*
X185587436Y-103975241D01*
X185585712Y-103946453D01*
X185604938Y-103912391D01*
X185646939Y-103867286D01*
X185713538Y-103805371D01*
X185806561Y-103720881D01*
X185981651Y-103560773D01*
X186063460Y-103634741D01*
X186092992Y-103660562D01*
X186233242Y-103764690D01*
X186384065Y-103851170D01*
X186530641Y-103911232D01*
X186576085Y-103924625D01*
X186644663Y-103939996D01*
X186719205Y-103949351D01*
X186811033Y-103953927D01*
X186931471Y-103954959D01*
X186967415Y-103954815D01*
X187071597Y-103953024D01*
X187150587Y-103948054D01*
X187215891Y-103938365D01*
X187279017Y-103922412D01*
X187351471Y-103898653D01*
X187420631Y-103872517D01*
X187615612Y-103773080D01*
X187784097Y-103645710D01*
X187923779Y-103492382D01*
X188032353Y-103315072D01*
X188081291Y-103205319D01*
X188128141Y-103059870D01*
X188153715Y-102908151D01*
X188161471Y-102734615D01*
X188157521Y-102606608D01*
X188137263Y-102450369D01*
X188096693Y-102304734D01*
X188032353Y-102154158D01*
X188025943Y-102141258D01*
X187915226Y-101964838D01*
X187775632Y-101814298D01*
X187610173Y-101691504D01*
X187421867Y-101598321D01*
X187213728Y-101536617D01*
X186988772Y-101508257D01*
X186893559Y-101506555D01*
X186667801Y-101527503D01*
X186459315Y-101584284D01*
X186268624Y-101676725D01*
X186096253Y-101804650D01*
X185981034Y-101907553D01*
X185768732Y-101710803D01*
X185556431Y-101514052D01*
X185683921Y-101396701D01*
X185791251Y-101306582D01*
X185999048Y-101170080D01*
X186228515Y-101061922D01*
X186438742Y-100997578D01*
X186675676Y-100957142D01*
X186924503Y-100942771D01*
X187175837Y-100954500D01*
G37*
G36*
X178092463Y-100954101D02*
G01*
X178262063Y-100958533D01*
X178404806Y-100970008D01*
X178530110Y-100990345D01*
X178647396Y-101021364D01*
X178766081Y-101064883D01*
X178895586Y-101122723D01*
X179109313Y-101239909D01*
X179322668Y-101396733D01*
X179505013Y-101578789D01*
X179656172Y-101785868D01*
X179775967Y-102017759D01*
X179864222Y-102274253D01*
X179889850Y-102405010D01*
X179905442Y-102562818D01*
X179910687Y-102733621D01*
X179905582Y-102904517D01*
X179890126Y-103062603D01*
X179864318Y-103194978D01*
X179817715Y-103343743D01*
X179710514Y-103585566D01*
X179571846Y-103804572D01*
X179403853Y-103998759D01*
X179208677Y-104166125D01*
X178988460Y-104304668D01*
X178745344Y-104412387D01*
X178481471Y-104487279D01*
X178398581Y-104502355D01*
X178178862Y-104523595D01*
X177943122Y-104523659D01*
X177703531Y-104503368D01*
X177472257Y-104463542D01*
X177261471Y-104405003D01*
X177203405Y-104383635D01*
X177079033Y-104330834D01*
X176952413Y-104269378D01*
X176837056Y-104206019D01*
X176746471Y-104147513D01*
X176661471Y-104085428D01*
X176661471Y-102704592D01*
X177280829Y-102704592D01*
X177286150Y-103248592D01*
X177291471Y-103792593D01*
X177384310Y-103838917D01*
X177453611Y-103870912D01*
X177567077Y-103910811D01*
X177689490Y-103936951D01*
X177830928Y-103951238D01*
X178001471Y-103955577D01*
X178100355Y-103954857D01*
X178198250Y-103951254D01*
X178275529Y-103943554D01*
X178343001Y-103930587D01*
X178411471Y-103911183D01*
X178475236Y-103889027D01*
X178669503Y-103795676D01*
X178843677Y-103671894D01*
X178993400Y-103521824D01*
X179114312Y-103349613D01*
X179202054Y-103159405D01*
X179218001Y-103104803D01*
X179239995Y-102986603D01*
X179254216Y-102849731D01*
X179259899Y-102707383D01*
X179256281Y-102572752D01*
X179242598Y-102459035D01*
X179213349Y-102346036D01*
X179141799Y-102172780D01*
X179043485Y-102008385D01*
X178925220Y-101865589D01*
X178867470Y-101811181D01*
X178700945Y-101690323D01*
X178515087Y-101599357D01*
X178315329Y-101538441D01*
X178107101Y-101507736D01*
X177895834Y-101507400D01*
X177686959Y-101537592D01*
X177485907Y-101598473D01*
X177298108Y-101690200D01*
X177128994Y-101812933D01*
X177028065Y-101901293D01*
X176833935Y-101706279D01*
X176749324Y-101618860D01*
X176689900Y-101551262D01*
X176658002Y-101505440D01*
X176652026Y-101479394D01*
X176652224Y-101478885D01*
X176683907Y-101433890D01*
X176744826Y-101376853D01*
X176828021Y-101312504D01*
X176926536Y-101245575D01*
X177033410Y-101180797D01*
X177141685Y-101122902D01*
X177244403Y-101076620D01*
X177301535Y-101054396D01*
X177406442Y-101017817D01*
X177505060Y-100991115D01*
X177606631Y-100972830D01*
X177720396Y-100961502D01*
X177855596Y-100955673D01*
X178021471Y-100953881D01*
X178092463Y-100954101D01*
G37*
G36*
X162341471Y-101523662D02*
G01*
X161181471Y-101523662D01*
X161181471Y-104485994D01*
X160541729Y-104485994D01*
X160531471Y-101533670D01*
X159381471Y-101523048D01*
X159381471Y-100983236D01*
X162341471Y-100983236D01*
X162341471Y-101523662D01*
G37*
G36*
X160819323Y-84841635D02*
G01*
X160868489Y-84858004D01*
X160891172Y-84868627D01*
X160935386Y-84905576D01*
X160962470Y-84966069D01*
X160966150Y-84978784D01*
X160975287Y-85029419D01*
X160968665Y-85076462D01*
X160944265Y-85139102D01*
X160937220Y-85154646D01*
X160887242Y-85252485D01*
X160815098Y-85378119D01*
X160720199Y-85532507D01*
X160601960Y-85716609D01*
X160459793Y-85931384D01*
X160365747Y-86070084D01*
X159976997Y-86611509D01*
X159551736Y-87156844D01*
X159092264Y-87703746D01*
X158600885Y-88249870D01*
X158079900Y-88792870D01*
X157531612Y-89330401D01*
X156958323Y-89860119D01*
X156362335Y-90379679D01*
X155745950Y-90886735D01*
X155111471Y-91378943D01*
X154676454Y-91691513D01*
X154126087Y-92048682D01*
X153541699Y-92388543D01*
X152922971Y-92711237D01*
X152269581Y-93016906D01*
X151581208Y-93305689D01*
X150857531Y-93577728D01*
X150098230Y-93833163D01*
X149302984Y-94072136D01*
X148471471Y-94294788D01*
X147833837Y-94448703D01*
X146868519Y-94654145D01*
X145904075Y-94825651D01*
X144931471Y-94964932D01*
X144866610Y-94972277D01*
X144816545Y-94973769D01*
X144777136Y-94966858D01*
X144733019Y-94950421D01*
X144695609Y-94929092D01*
X144647784Y-94870797D01*
X144631197Y-94795525D01*
X144648793Y-94711623D01*
X144652578Y-94703051D01*
X144682918Y-94652809D01*
X144714778Y-94621992D01*
X144721475Y-94619134D01*
X144763733Y-94605196D01*
X144836211Y-94583658D01*
X144932688Y-94556297D01*
X145046944Y-94524890D01*
X145172756Y-94491213D01*
X145656960Y-94359696D01*
X146630699Y-94073643D01*
X147598134Y-93760920D01*
X148554143Y-93423452D01*
X149493603Y-93063164D01*
X150411393Y-92681980D01*
X151302390Y-92281827D01*
X152161471Y-91864629D01*
X152592283Y-91642461D01*
X153208881Y-91306752D01*
X153797381Y-90963364D01*
X154364922Y-90607605D01*
X154918640Y-90234782D01*
X155465673Y-89840201D01*
X156013159Y-89419169D01*
X156568234Y-88966994D01*
X157053941Y-88550533D01*
X157553780Y-88102025D01*
X158058358Y-87630317D01*
X158561219Y-87141801D01*
X159055907Y-86642867D01*
X159535966Y-86139907D01*
X159994941Y-85639311D01*
X160426375Y-85147472D01*
X160444371Y-85126500D01*
X160539259Y-85018438D01*
X160615087Y-84938605D01*
X160676433Y-84884004D01*
X160727870Y-84851639D01*
X160773975Y-84838514D01*
X160819323Y-84841635D01*
G37*
G36*
X158361471Y-104485994D02*
G01*
X158361471Y-103465190D01*
X157430456Y-103465190D01*
X157074399Y-103975592D01*
X156718343Y-104485994D01*
X156022960Y-104485994D01*
X156423764Y-103913759D01*
X156504752Y-103797829D01*
X156591121Y-103673470D01*
X156667239Y-103563088D01*
X156730547Y-103470431D01*
X156778486Y-103399247D01*
X156808497Y-103353285D01*
X156818020Y-103336293D01*
X156817319Y-103335810D01*
X156793890Y-103322789D01*
X156745473Y-103297060D01*
X156681471Y-103263629D01*
X156561615Y-103190050D01*
X156411216Y-103060578D01*
X156283750Y-102905270D01*
X156184560Y-102730956D01*
X156118987Y-102544465D01*
X156106047Y-102474146D01*
X156095337Y-102355504D01*
X156092491Y-102222933D01*
X156093957Y-102182410D01*
X156741725Y-102182410D01*
X156745851Y-102319670D01*
X156767529Y-102448860D01*
X156806144Y-102555743D01*
X156875523Y-102662778D01*
X156986919Y-102769409D01*
X157127632Y-102849109D01*
X157298037Y-102902142D01*
X157305983Y-102903659D01*
X157367891Y-102910633D01*
X157462535Y-102916465D01*
X157583872Y-102920920D01*
X157725860Y-102923765D01*
X157882456Y-102924765D01*
X158361471Y-102924765D01*
X158361471Y-101518858D01*
X157856471Y-101529236D01*
X157837084Y-101529640D01*
X157664436Y-101533946D01*
X157525320Y-101539349D01*
X157413859Y-101546684D01*
X157324175Y-101556783D01*
X157250389Y-101570483D01*
X157186624Y-101588618D01*
X157127003Y-101612023D01*
X157065646Y-101641532D01*
X157057997Y-101645530D01*
X156942742Y-101727597D01*
X156846818Y-101836412D01*
X156780467Y-101960521D01*
X156755765Y-102051320D01*
X156741725Y-102182410D01*
X156093957Y-102182410D01*
X156097308Y-102089768D01*
X156109585Y-101969340D01*
X156129120Y-101874984D01*
X156166269Y-101768100D01*
X156262388Y-101577265D01*
X156388368Y-101412336D01*
X156542997Y-101274750D01*
X156725066Y-101165948D01*
X156810459Y-101126714D01*
X156895697Y-101092429D01*
X156982198Y-101063962D01*
X157074264Y-101040793D01*
X157176198Y-101022401D01*
X157292301Y-101008266D01*
X157426876Y-100997868D01*
X157584226Y-100990686D01*
X157768653Y-100986200D01*
X157984459Y-100983891D01*
X158235947Y-100983236D01*
X159001471Y-100983236D01*
X159001471Y-104485994D01*
X158361471Y-104485994D01*
G37*
G36*
X198386313Y-102167752D02*
G01*
X198391471Y-103352267D01*
X199351471Y-102169167D01*
X200311471Y-100986066D01*
X200841471Y-100983236D01*
X200841471Y-104485994D01*
X200201789Y-104485994D01*
X200196630Y-103307166D01*
X200191471Y-102128337D01*
X199232641Y-103307166D01*
X198273810Y-104485994D01*
X197741471Y-104485994D01*
X197741471Y-100983236D01*
X198381154Y-100983236D01*
X198386313Y-102167752D01*
G37*
G36*
X163975837Y-100954500D02*
G01*
X164220286Y-100992368D01*
X164448463Y-101056409D01*
X164449942Y-101056936D01*
X164688803Y-101162257D01*
X164903872Y-101297594D01*
X165093636Y-101459725D01*
X165256583Y-101645433D01*
X165391199Y-101851498D01*
X165495972Y-102074700D01*
X165569390Y-102311820D01*
X165609938Y-102559638D01*
X165616104Y-102814935D01*
X165586376Y-103074491D01*
X165519241Y-103335088D01*
X165466003Y-103475205D01*
X165347459Y-103702199D01*
X165198020Y-103905782D01*
X165019803Y-104084245D01*
X164814924Y-104235878D01*
X164585498Y-104358971D01*
X164333642Y-104451816D01*
X164061471Y-104512702D01*
X163994839Y-104518978D01*
X163896998Y-104522294D01*
X163781186Y-104522554D01*
X163658565Y-104519996D01*
X163540297Y-104514857D01*
X163437545Y-104507376D01*
X163361471Y-104497791D01*
X163155304Y-104448558D01*
X162913474Y-104356862D01*
X162690795Y-104233446D01*
X162492663Y-104080897D01*
X162446437Y-104040057D01*
X162408286Y-104004519D01*
X162387436Y-103975241D01*
X162385712Y-103946453D01*
X162404938Y-103912391D01*
X162446939Y-103867286D01*
X162513538Y-103805371D01*
X162606561Y-103720881D01*
X162781651Y-103560773D01*
X162863460Y-103634741D01*
X162892992Y-103660562D01*
X163033242Y-103764690D01*
X163184065Y-103851170D01*
X163330641Y-103911232D01*
X163376085Y-103924625D01*
X163444663Y-103939996D01*
X163519205Y-103949351D01*
X163611033Y-103953927D01*
X163731471Y-103954959D01*
X163767415Y-103954815D01*
X163871597Y-103953024D01*
X163950587Y-103948054D01*
X164015891Y-103938365D01*
X164079017Y-103922412D01*
X164151471Y-103898653D01*
X164220631Y-103872517D01*
X164415612Y-103773080D01*
X164584097Y-103645710D01*
X164723779Y-103492382D01*
X164832353Y-103315072D01*
X164881291Y-103205319D01*
X164928141Y-103059870D01*
X164953715Y-102908151D01*
X164961471Y-102734615D01*
X164957521Y-102606608D01*
X164937263Y-102450369D01*
X164896693Y-102304734D01*
X164832353Y-102154158D01*
X164825943Y-102141258D01*
X164715226Y-101964838D01*
X164575632Y-101814298D01*
X164410173Y-101691504D01*
X164221867Y-101598321D01*
X164013728Y-101536617D01*
X163788772Y-101508257D01*
X163693559Y-101506555D01*
X163467801Y-101527503D01*
X163259315Y-101584284D01*
X163068624Y-101676725D01*
X162896253Y-101804650D01*
X162781034Y-101907553D01*
X162568732Y-101710803D01*
X162356431Y-101514052D01*
X162483921Y-101396701D01*
X162591251Y-101306582D01*
X162799048Y-101170080D01*
X163028515Y-101061922D01*
X163238742Y-100997578D01*
X163475676Y-100957142D01*
X163724503Y-100942771D01*
X163975837Y-100954500D01*
G37*
G36*
X210981471Y-104485994D02*
G01*
X208361471Y-104485994D01*
X208361471Y-103945569D01*
X210341471Y-103945569D01*
X210341471Y-102964796D01*
X208661471Y-102964796D01*
X208661471Y-102444387D01*
X210341471Y-102444387D01*
X210341471Y-101523662D01*
X208441471Y-101523662D01*
X208441471Y-100983236D01*
X210981471Y-100983236D01*
X210981471Y-104485994D01*
G37*
G36*
X208221471Y-101523662D02*
G01*
X207061471Y-101523662D01*
X207061471Y-104485994D01*
X206421729Y-104485994D01*
X206411471Y-101533670D01*
X205261471Y-101523048D01*
X205261471Y-100983236D01*
X208221471Y-100983236D01*
X208221471Y-101523662D01*
G37*
G36*
X233463088Y-68721769D02*
G01*
X233523006Y-68764862D01*
X233560833Y-68825980D01*
X233567433Y-68847983D01*
X233574803Y-68893759D01*
X233569665Y-68938712D01*
X233549136Y-68987426D01*
X233510330Y-69044489D01*
X233450365Y-69114485D01*
X233366356Y-69202000D01*
X233255420Y-69311620D01*
X233002264Y-69549608D01*
X232647150Y-69859628D01*
X232259236Y-70174680D01*
X231841973Y-70492492D01*
X231398812Y-70810793D01*
X230933206Y-71127312D01*
X230448604Y-71439776D01*
X229948459Y-71745915D01*
X229436222Y-72043456D01*
X228915344Y-72330128D01*
X228389277Y-72603660D01*
X227861471Y-72861779D01*
X227604208Y-72982117D01*
X227262546Y-73137656D01*
X226927165Y-73285587D01*
X226602836Y-73423922D01*
X226294330Y-73550672D01*
X226006420Y-73663848D01*
X225743877Y-73761459D01*
X225511471Y-73841517D01*
X225455693Y-73859629D01*
X224856329Y-74037088D01*
X224225999Y-74193672D01*
X223567879Y-74328908D01*
X222885140Y-74442323D01*
X222180956Y-74533442D01*
X221458502Y-74601793D01*
X220720949Y-74646901D01*
X219971471Y-74668293D01*
X219655124Y-74670115D01*
X219271116Y-74667568D01*
X218873550Y-74660380D01*
X218473115Y-74648868D01*
X218080498Y-74633344D01*
X217706388Y-74614124D01*
X217361471Y-74591522D01*
X217195574Y-74578673D01*
X216973394Y-74559852D01*
X216749730Y-74539243D01*
X216528718Y-74517335D01*
X216314495Y-74494616D01*
X216111197Y-74471576D01*
X215922961Y-74448703D01*
X215753922Y-74426487D01*
X215608217Y-74405418D01*
X215489983Y-74385983D01*
X215403356Y-74368673D01*
X215352472Y-74353975D01*
X215336980Y-74346503D01*
X215283005Y-74297247D01*
X215255581Y-74230391D01*
X215255195Y-74156462D01*
X215282333Y-74085987D01*
X215337482Y-74029492D01*
X215356806Y-74018546D01*
X215383889Y-74009258D01*
X215422082Y-74002879D01*
X215477162Y-73999027D01*
X215554903Y-73997320D01*
X215661081Y-73997377D01*
X215801471Y-73998815D01*
X215806873Y-73998881D01*
X215975418Y-73999517D01*
X216176881Y-73998000D01*
X216404493Y-73994522D01*
X216651488Y-73989277D01*
X216911096Y-73982457D01*
X217176551Y-73974255D01*
X217441084Y-73964865D01*
X217697927Y-73954480D01*
X217940312Y-73943292D01*
X218161471Y-73931494D01*
X218309104Y-73922691D01*
X219234893Y-73854934D01*
X220143888Y-73766698D01*
X221033345Y-73658418D01*
X221900518Y-73530530D01*
X222742662Y-73383469D01*
X223557033Y-73217672D01*
X224340884Y-73033573D01*
X225091471Y-72831609D01*
X225341147Y-72757847D01*
X226045635Y-72529189D01*
X226765485Y-72266109D01*
X227498731Y-71969567D01*
X228243408Y-71640526D01*
X228997551Y-71279949D01*
X229759195Y-70888797D01*
X230526374Y-70468033D01*
X231297123Y-70018618D01*
X232069478Y-69541514D01*
X232841471Y-69037684D01*
X232857403Y-69027015D01*
X232980133Y-68945435D01*
X233093198Y-68871311D01*
X233191909Y-68807643D01*
X233271573Y-68757428D01*
X233327502Y-68723667D01*
X233355003Y-68709357D01*
X233394562Y-68704342D01*
X233463088Y-68721769D01*
G37*
G36*
X219881471Y-104485994D02*
G01*
X219241471Y-104485994D01*
X219241471Y-100983236D01*
X219881471Y-100983236D01*
X219881471Y-104485994D01*
G37*
G36*
X185041471Y-104485994D02*
G01*
X184401471Y-104485994D01*
X184401471Y-100983236D01*
X185041471Y-100983236D01*
X185041471Y-104485994D01*
G37*
G36*
X222781471Y-104485994D02*
G01*
X222781471Y-103465190D01*
X221850456Y-103465190D01*
X221494399Y-103975592D01*
X221138343Y-104485994D01*
X220442960Y-104485994D01*
X220843764Y-103913759D01*
X220924752Y-103797829D01*
X221011121Y-103673470D01*
X221087239Y-103563088D01*
X221150547Y-103470431D01*
X221198486Y-103399247D01*
X221228497Y-103353285D01*
X221238020Y-103336293D01*
X221237319Y-103335810D01*
X221213890Y-103322789D01*
X221165473Y-103297060D01*
X221101471Y-103263629D01*
X220981615Y-103190050D01*
X220831216Y-103060578D01*
X220703750Y-102905270D01*
X220604560Y-102730956D01*
X220538987Y-102544465D01*
X220526047Y-102474146D01*
X220515337Y-102355504D01*
X220512491Y-102222933D01*
X220513957Y-102182410D01*
X221161725Y-102182410D01*
X221165851Y-102319670D01*
X221187529Y-102448860D01*
X221226144Y-102555743D01*
X221295523Y-102662778D01*
X221406919Y-102769409D01*
X221547632Y-102849109D01*
X221718037Y-102902142D01*
X221725983Y-102903659D01*
X221787891Y-102910633D01*
X221882535Y-102916465D01*
X222003872Y-102920920D01*
X222145860Y-102923765D01*
X222302456Y-102924765D01*
X222781471Y-102924765D01*
X222781471Y-101518858D01*
X222276471Y-101529236D01*
X222257084Y-101529640D01*
X222084436Y-101533946D01*
X221945320Y-101539349D01*
X221833859Y-101546684D01*
X221744175Y-101556783D01*
X221670389Y-101570483D01*
X221606624Y-101588618D01*
X221547003Y-101612023D01*
X221485646Y-101641532D01*
X221477997Y-101645530D01*
X221362742Y-101727597D01*
X221266818Y-101836412D01*
X221200467Y-101960521D01*
X221175765Y-102051320D01*
X221161725Y-102182410D01*
X220513957Y-102182410D01*
X220517308Y-102089768D01*
X220529585Y-101969340D01*
X220549120Y-101874984D01*
X220586269Y-101768100D01*
X220682388Y-101577265D01*
X220808368Y-101412336D01*
X220962997Y-101274750D01*
X221145066Y-101165948D01*
X221230459Y-101126714D01*
X221315697Y-101092429D01*
X221402198Y-101063962D01*
X221494264Y-101040793D01*
X221596198Y-101022401D01*
X221712301Y-101008266D01*
X221846876Y-100997868D01*
X222004226Y-100990686D01*
X222188653Y-100986200D01*
X222404459Y-100983891D01*
X222655947Y-100983236D01*
X223421471Y-100983236D01*
X223421471Y-104485994D01*
X222781471Y-104485994D01*
G37*
G36*
X192163000Y-103458987D02*
G01*
X192255465Y-103665166D01*
X192339659Y-103853007D01*
X192414419Y-104019916D01*
X192478581Y-104163295D01*
X192530984Y-104280550D01*
X192570464Y-104369085D01*
X192595858Y-104426304D01*
X192606005Y-104449612D01*
X192609207Y-104460250D01*
X192606329Y-104470918D01*
X192590339Y-104478016D01*
X192555862Y-104482082D01*
X192497521Y-104483655D01*
X192409940Y-104483272D01*
X192287745Y-104481472D01*
X191954952Y-104475986D01*
X191790159Y-104088629D01*
X191775093Y-104053315D01*
X191726081Y-103939864D01*
X191682199Y-103840379D01*
X191646034Y-103760599D01*
X191620173Y-103706259D01*
X191607204Y-103683095D01*
X191602789Y-103681526D01*
X191564961Y-103677765D01*
X191492004Y-103674629D01*
X191387453Y-103672169D01*
X191254844Y-103670439D01*
X191097711Y-103669488D01*
X190919589Y-103669370D01*
X190724015Y-103670137D01*
X189858989Y-103675356D01*
X189511471Y-104485062D01*
X189174805Y-104485528D01*
X189113291Y-104485375D01*
X188999462Y-104483481D01*
X188914245Y-104479625D01*
X188861430Y-104474021D01*
X188844805Y-104466884D01*
X188845866Y-104464336D01*
X188859672Y-104433073D01*
X188888430Y-104368641D01*
X188930996Y-104273583D01*
X188986229Y-104150445D01*
X189052984Y-104001770D01*
X189130118Y-103830104D01*
X189216489Y-103637990D01*
X189310953Y-103427972D01*
X189412367Y-103202596D01*
X189443691Y-103133009D01*
X190089557Y-103133009D01*
X190089746Y-103141998D01*
X190098578Y-103149127D01*
X190119974Y-103154611D01*
X190157852Y-103158664D01*
X190216132Y-103161499D01*
X190298734Y-103163332D01*
X190409577Y-103164376D01*
X190552581Y-103164845D01*
X190731664Y-103164954D01*
X190785082Y-103164948D01*
X190953855Y-103164756D01*
X191087659Y-103164139D01*
X191190435Y-103162883D01*
X191266122Y-103160774D01*
X191318660Y-103157596D01*
X191351991Y-103153137D01*
X191370053Y-103147182D01*
X191376787Y-103139516D01*
X191376134Y-103129926D01*
X191365476Y-103101598D01*
X191341279Y-103042297D01*
X191305634Y-102956893D01*
X191260623Y-102850228D01*
X191208330Y-102727144D01*
X191150839Y-102592485D01*
X191090232Y-102451091D01*
X191028592Y-102307806D01*
X190968003Y-102167473D01*
X190910547Y-102034932D01*
X190858308Y-101915028D01*
X190813370Y-101812601D01*
X190777815Y-101732495D01*
X190753726Y-101679552D01*
X190743186Y-101658615D01*
X190742239Y-101659064D01*
X190729040Y-101682273D01*
X190702523Y-101736538D01*
X190664733Y-101817243D01*
X190617718Y-101919771D01*
X190563526Y-102039508D01*
X190504203Y-102171837D01*
X190441797Y-102312144D01*
X190378355Y-102455811D01*
X190315925Y-102598224D01*
X190256553Y-102734767D01*
X190202287Y-102860825D01*
X190155174Y-102971781D01*
X190117261Y-103063020D01*
X190090596Y-103129926D01*
X190089557Y-103133009D01*
X189443691Y-103133009D01*
X189519587Y-102964406D01*
X189631471Y-102715946D01*
X190411471Y-100984118D01*
X191051471Y-100984166D01*
X191821471Y-102698216D01*
X191847600Y-102756382D01*
X191957904Y-103001999D01*
X192019635Y-103139516D01*
X192063425Y-103237066D01*
X192163000Y-103458987D01*
G37*
G36*
X174661471Y-104485994D02*
G01*
X172041471Y-104485994D01*
X172041471Y-103945569D01*
X174021471Y-103945569D01*
X174021471Y-102964796D01*
X172341471Y-102964796D01*
X172341471Y-102444387D01*
X174021471Y-102444387D01*
X174021471Y-101523662D01*
X172121471Y-101523662D01*
X172121471Y-100983236D01*
X174661471Y-100983236D01*
X174661471Y-104485994D01*
G37*
G36*
X152615837Y-100954500D02*
G01*
X152860286Y-100992368D01*
X153088463Y-101056409D01*
X153089942Y-101056936D01*
X153328803Y-101162257D01*
X153543872Y-101297594D01*
X153733636Y-101459725D01*
X153896583Y-101645433D01*
X154031199Y-101851498D01*
X154135972Y-102074700D01*
X154209390Y-102311820D01*
X154249938Y-102559638D01*
X154256104Y-102814935D01*
X154226376Y-103074491D01*
X154159241Y-103335088D01*
X154106003Y-103475205D01*
X153987459Y-103702199D01*
X153838020Y-103905782D01*
X153659803Y-104084245D01*
X153454924Y-104235878D01*
X153225498Y-104358971D01*
X152973642Y-104451816D01*
X152701471Y-104512702D01*
X152634839Y-104518978D01*
X152536998Y-104522294D01*
X152421186Y-104522554D01*
X152298565Y-104519996D01*
X152180297Y-104514857D01*
X152077545Y-104507376D01*
X152001471Y-104497791D01*
X151795304Y-104448558D01*
X151553474Y-104356862D01*
X151330795Y-104233446D01*
X151132663Y-104080897D01*
X151086437Y-104040057D01*
X151048286Y-104004519D01*
X151027436Y-103975241D01*
X151025712Y-103946453D01*
X151044938Y-103912391D01*
X151086939Y-103867286D01*
X151153538Y-103805371D01*
X151246561Y-103720881D01*
X151421651Y-103560773D01*
X151503460Y-103634741D01*
X151532992Y-103660562D01*
X151673242Y-103764690D01*
X151824065Y-103851170D01*
X151970641Y-103911232D01*
X152016085Y-103924625D01*
X152084663Y-103939996D01*
X152159205Y-103949351D01*
X152251033Y-103953927D01*
X152371471Y-103954959D01*
X152407415Y-103954815D01*
X152511597Y-103953024D01*
X152590587Y-103948054D01*
X152655891Y-103938365D01*
X152719017Y-103922412D01*
X152791471Y-103898653D01*
X152901843Y-103854714D01*
X153092882Y-103747810D01*
X153257406Y-103612213D01*
X153393344Y-103450163D01*
X153498623Y-103263900D01*
X153571171Y-103055666D01*
X153576244Y-103033688D01*
X153592401Y-102921067D01*
X153599972Y-102787810D01*
X153598957Y-102648852D01*
X153589357Y-102519126D01*
X153571171Y-102413564D01*
X153548313Y-102336722D01*
X153483040Y-102178696D01*
X153398742Y-102028449D01*
X153303832Y-101902077D01*
X153234182Y-101830944D01*
X153072381Y-101705537D01*
X152891438Y-101610066D01*
X152696679Y-101544825D01*
X152493430Y-101510108D01*
X152287018Y-101506208D01*
X152082768Y-101533419D01*
X151886006Y-101592033D01*
X151702059Y-101682346D01*
X151536253Y-101804650D01*
X151421034Y-101907553D01*
X151208732Y-101710803D01*
X150996431Y-101514052D01*
X151123921Y-101396701D01*
X151231251Y-101306582D01*
X151439048Y-101170080D01*
X151668515Y-101061922D01*
X151878742Y-100997578D01*
X152115676Y-100957142D01*
X152364503Y-100942771D01*
X152615837Y-100954500D01*
G37*
G36*
X171441471Y-104485994D02*
G01*
X168981471Y-104485994D01*
X168981471Y-103945569D01*
X170801471Y-103945569D01*
X170801471Y-100983236D01*
X171441471Y-100983236D01*
X171441471Y-104485994D01*
G37*
G36*
X205162631Y-102959899D02*
G01*
X205154964Y-103044233D01*
X205142451Y-103119096D01*
X205124107Y-103194978D01*
X205080396Y-103335425D01*
X204973996Y-103578949D01*
X204836216Y-103799095D01*
X204668910Y-103994131D01*
X204473929Y-104162323D01*
X204253128Y-104301938D01*
X204008357Y-104411242D01*
X203741471Y-104488502D01*
X203669817Y-104501174D01*
X203526479Y-104515394D01*
X203363522Y-104521212D01*
X203192744Y-104518898D01*
X203025943Y-104508721D01*
X202874920Y-104490953D01*
X202751471Y-104465862D01*
X202739704Y-104462634D01*
X202482388Y-104371712D01*
X202247042Y-104248899D01*
X202035860Y-104096320D01*
X201851036Y-103916099D01*
X201694761Y-103710361D01*
X201569231Y-103481232D01*
X201476638Y-103230836D01*
X201461985Y-103176889D01*
X201448838Y-103115024D01*
X201440024Y-103048772D01*
X201434732Y-102969224D01*
X201432152Y-102867474D01*
X201431471Y-102734615D01*
X201431798Y-102652445D01*
X202067536Y-102652445D01*
X202069700Y-102866297D01*
X202106377Y-103075431D01*
X202178255Y-103273371D01*
X202278539Y-103449620D01*
X202414173Y-103614434D01*
X202576178Y-103749262D01*
X202763929Y-103853594D01*
X202976800Y-103926917D01*
X202978861Y-103927442D01*
X203197025Y-103963712D01*
X203414106Y-103963012D01*
X203625147Y-103926630D01*
X203825188Y-103855855D01*
X204009271Y-103751974D01*
X204172439Y-103616277D01*
X204258797Y-103521407D01*
X204375588Y-103351312D01*
X204457466Y-103165582D01*
X204505678Y-102961066D01*
X204521471Y-102734615D01*
X204521202Y-102705467D01*
X204516047Y-102595569D01*
X204505520Y-102492794D01*
X204491171Y-102413564D01*
X204472168Y-102346768D01*
X204390514Y-102149820D01*
X204277772Y-101972524D01*
X204137719Y-101818576D01*
X203974133Y-101691670D01*
X203790791Y-101595499D01*
X203591471Y-101533758D01*
X203440552Y-101510408D01*
X203220339Y-101505856D01*
X203007235Y-101535580D01*
X202805811Y-101598030D01*
X202620638Y-101691654D01*
X202456286Y-101814901D01*
X202317327Y-101966218D01*
X202261225Y-102047375D01*
X202163988Y-102236507D01*
X202099195Y-102440356D01*
X202067536Y-102652445D01*
X201431798Y-102652445D01*
X201431917Y-102622690D01*
X201434103Y-102516097D01*
X201438857Y-102433278D01*
X201446991Y-102365326D01*
X201459314Y-102303334D01*
X201476638Y-102238395D01*
X201480226Y-102226163D01*
X201574409Y-101976779D01*
X201701437Y-101748714D01*
X201859089Y-101544120D01*
X202045141Y-101365150D01*
X202257371Y-101213957D01*
X202493555Y-101092694D01*
X202751471Y-101003515D01*
X202884251Y-100976131D01*
X203049107Y-100956643D01*
X203228007Y-100946826D01*
X203408211Y-100947005D01*
X203576976Y-100957508D01*
X203721564Y-100978661D01*
X203889261Y-101020502D01*
X204144675Y-101114746D01*
X204376632Y-101239938D01*
X204583406Y-101394482D01*
X204763268Y-101576781D01*
X204914491Y-101785240D01*
X205035347Y-102018263D01*
X205124107Y-102274253D01*
X205141044Y-102343455D01*
X205154044Y-102417979D01*
X205162110Y-102501022D01*
X205166226Y-102603071D01*
X205167379Y-102734615D01*
X205166438Y-102855609D01*
X205162631Y-102959899D01*
G37*
G36*
X213115837Y-100954500D02*
G01*
X213360286Y-100992368D01*
X213588463Y-101056409D01*
X213589942Y-101056936D01*
X213828803Y-101162257D01*
X214043872Y-101297594D01*
X214233636Y-101459725D01*
X214396583Y-101645433D01*
X214531199Y-101851498D01*
X214635972Y-102074700D01*
X214709390Y-102311820D01*
X214749938Y-102559638D01*
X214756104Y-102814935D01*
X214726376Y-103074491D01*
X214659241Y-103335088D01*
X214606003Y-103475205D01*
X214487459Y-103702199D01*
X214338020Y-103905782D01*
X214159803Y-104084245D01*
X213954924Y-104235878D01*
X213725498Y-104358971D01*
X213473642Y-104451816D01*
X213201471Y-104512702D01*
X213134839Y-104518978D01*
X213036998Y-104522294D01*
X212921186Y-104522554D01*
X212798565Y-104519996D01*
X212680297Y-104514857D01*
X212577545Y-104507376D01*
X212501471Y-104497791D01*
X212295304Y-104448558D01*
X212053474Y-104356862D01*
X211830795Y-104233446D01*
X211632663Y-104080897D01*
X211586437Y-104040057D01*
X211548286Y-104004519D01*
X211527436Y-103975241D01*
X211525712Y-103946453D01*
X211544938Y-103912391D01*
X211586939Y-103867286D01*
X211653538Y-103805371D01*
X211746561Y-103720881D01*
X211921651Y-103560773D01*
X212003460Y-103634741D01*
X212032992Y-103660562D01*
X212173242Y-103764690D01*
X212324065Y-103851170D01*
X212470641Y-103911232D01*
X212516085Y-103924625D01*
X212584663Y-103939996D01*
X212659205Y-103949351D01*
X212751033Y-103953927D01*
X212871471Y-103954959D01*
X212907415Y-103954815D01*
X213011597Y-103953024D01*
X213090587Y-103948054D01*
X213155891Y-103938365D01*
X213219017Y-103922412D01*
X213291471Y-103898653D01*
X213401843Y-103854714D01*
X213592882Y-103747810D01*
X213757406Y-103612213D01*
X213893344Y-103450163D01*
X213998623Y-103263900D01*
X214071171Y-103055666D01*
X214076244Y-103033688D01*
X214092401Y-102921067D01*
X214099972Y-102787810D01*
X214098957Y-102648852D01*
X214089357Y-102519126D01*
X214071171Y-102413564D01*
X214048313Y-102336722D01*
X213983040Y-102178696D01*
X213898742Y-102028449D01*
X213803832Y-101902077D01*
X213734182Y-101830944D01*
X213572381Y-101705537D01*
X213391438Y-101610066D01*
X213196679Y-101544825D01*
X212993430Y-101510108D01*
X212787018Y-101506208D01*
X212582768Y-101533419D01*
X212386006Y-101592033D01*
X212202059Y-101682346D01*
X212036253Y-101804650D01*
X211921034Y-101907553D01*
X211708732Y-101710803D01*
X211496431Y-101514052D01*
X211623921Y-101396701D01*
X211731251Y-101306582D01*
X211939048Y-101170080D01*
X212168515Y-101061922D01*
X212378742Y-100997578D01*
X212615676Y-100957142D01*
X212864503Y-100942771D01*
X213115837Y-100954500D01*
G37*
G36*
X181126313Y-102167752D02*
G01*
X181131471Y-103352267D01*
X182091471Y-102169167D01*
X183051471Y-100986066D01*
X183581471Y-100983236D01*
X183581471Y-104485994D01*
X182941789Y-104485994D01*
X182936630Y-103307166D01*
X182931471Y-102128337D01*
X181972641Y-103307166D01*
X181013810Y-104485994D01*
X180481471Y-104485994D01*
X180481471Y-100983236D01*
X181121154Y-100983236D01*
X181126313Y-102167752D01*
G37*
G36*
X195021471Y-104485994D02*
G01*
X195021471Y-103465190D01*
X194090456Y-103465190D01*
X193734399Y-103975592D01*
X193378343Y-104485994D01*
X192682960Y-104485994D01*
X193083764Y-103913759D01*
X193164752Y-103797829D01*
X193251121Y-103673470D01*
X193327239Y-103563088D01*
X193390547Y-103470431D01*
X193438486Y-103399247D01*
X193468497Y-103353285D01*
X193478020Y-103336293D01*
X193477319Y-103335810D01*
X193453890Y-103322789D01*
X193405473Y-103297060D01*
X193341471Y-103263629D01*
X193221615Y-103190050D01*
X193071216Y-103060578D01*
X192943750Y-102905270D01*
X192844560Y-102730956D01*
X192778987Y-102544465D01*
X192766047Y-102474146D01*
X192755337Y-102355504D01*
X192752491Y-102222933D01*
X192753957Y-102182410D01*
X193401725Y-102182410D01*
X193405851Y-102319670D01*
X193427529Y-102448860D01*
X193466144Y-102555743D01*
X193535523Y-102662778D01*
X193646919Y-102769409D01*
X193787632Y-102849109D01*
X193958037Y-102902142D01*
X193965983Y-102903659D01*
X194027891Y-102910633D01*
X194122535Y-102916465D01*
X194243872Y-102920920D01*
X194385860Y-102923765D01*
X194542456Y-102924765D01*
X195021471Y-102924765D01*
X195021471Y-101518858D01*
X194516471Y-101529236D01*
X194497084Y-101529640D01*
X194324436Y-101533946D01*
X194185320Y-101539349D01*
X194073859Y-101546684D01*
X193984175Y-101556783D01*
X193910389Y-101570483D01*
X193846624Y-101588618D01*
X193787003Y-101612023D01*
X193725646Y-101641532D01*
X193717997Y-101645530D01*
X193602742Y-101727597D01*
X193506818Y-101836412D01*
X193440467Y-101960521D01*
X193415765Y-102051320D01*
X193401725Y-102182410D01*
X192753957Y-102182410D01*
X192757308Y-102089768D01*
X192769585Y-101969340D01*
X192789120Y-101874984D01*
X192826269Y-101768100D01*
X192922388Y-101577265D01*
X193048368Y-101412336D01*
X193202997Y-101274750D01*
X193385066Y-101165948D01*
X193470459Y-101126714D01*
X193555697Y-101092429D01*
X193642198Y-101063962D01*
X193734264Y-101040793D01*
X193836198Y-101022401D01*
X193952301Y-101008266D01*
X194086876Y-100997868D01*
X194244226Y-100990686D01*
X194428653Y-100986200D01*
X194644459Y-100983891D01*
X194895947Y-100983236D01*
X195661471Y-100983236D01*
X195661471Y-104485994D01*
X195021471Y-104485994D01*
G37*
G36*
X204780390Y-80388438D02*
G01*
X204832415Y-80448891D01*
X204834623Y-80453202D01*
X204852991Y-80494891D01*
X204861786Y-80533548D01*
X204858501Y-80571477D01*
X204840627Y-80610981D01*
X204805659Y-80654365D01*
X204751087Y-80703932D01*
X204674406Y-80761987D01*
X204573108Y-80830832D01*
X204444686Y-80912772D01*
X204286631Y-81010111D01*
X204096438Y-81125152D01*
X203830709Y-81283160D01*
X202970911Y-81769125D01*
X202086786Y-82231738D01*
X201182829Y-82669131D01*
X200263535Y-83079435D01*
X199333400Y-83460782D01*
X198396919Y-83811303D01*
X197458587Y-84129129D01*
X196522901Y-84412391D01*
X195594354Y-84659222D01*
X195586418Y-84661180D01*
X194863186Y-84830476D01*
X194163244Y-84975391D01*
X193479124Y-85097027D01*
X192803356Y-85196484D01*
X192128471Y-85274862D01*
X191446999Y-85333263D01*
X190751471Y-85372787D01*
X190704346Y-85374599D01*
X190568113Y-85378305D01*
X190397896Y-85381323D01*
X190197898Y-85383673D01*
X189972320Y-85385376D01*
X189725365Y-85386451D01*
X189461235Y-85386918D01*
X189184131Y-85386798D01*
X188898255Y-85386110D01*
X188607809Y-85384874D01*
X188316996Y-85383111D01*
X188030016Y-85380841D01*
X187751072Y-85378083D01*
X187484366Y-85374858D01*
X187234100Y-85371185D01*
X187004476Y-85367085D01*
X186799695Y-85362578D01*
X186623959Y-85357683D01*
X186481471Y-85352422D01*
X186432515Y-85350271D01*
X185807810Y-85320562D01*
X185217020Y-85287986D01*
X184654554Y-85252075D01*
X184114821Y-85212360D01*
X183592230Y-85168374D01*
X183081191Y-85119649D01*
X182576112Y-85065714D01*
X182071402Y-85006104D01*
X181561471Y-84940349D01*
X181274314Y-84900935D01*
X180890437Y-84845235D01*
X180508734Y-84786172D01*
X180125519Y-84723025D01*
X179737107Y-84655073D01*
X179339810Y-84581593D01*
X178929943Y-84501866D01*
X178503819Y-84415168D01*
X178057753Y-84320779D01*
X177588058Y-84217977D01*
X177091048Y-84106040D01*
X176563036Y-83984248D01*
X176000338Y-83851878D01*
X175748884Y-83792363D01*
X175273853Y-83680832D01*
X174832930Y-83578692D01*
X174423081Y-83485363D01*
X174041270Y-83400267D01*
X173684461Y-83322825D01*
X173349618Y-83252456D01*
X173033706Y-83188582D01*
X172733688Y-83130624D01*
X172446529Y-83078003D01*
X172169194Y-83030139D01*
X171898647Y-82986454D01*
X171631851Y-82946368D01*
X171365771Y-82909301D01*
X171097372Y-82874676D01*
X170823617Y-82841912D01*
X170541471Y-82810431D01*
X170353942Y-82790948D01*
X169636975Y-82729624D01*
X168893998Y-82685745D01*
X168132894Y-82659336D01*
X167361551Y-82650422D01*
X166587852Y-82659030D01*
X165819682Y-82685184D01*
X165064927Y-82728911D01*
X164331471Y-82790236D01*
X163371504Y-82899767D01*
X162309568Y-83057864D01*
X161247305Y-83254356D01*
X160187205Y-83488553D01*
X159131759Y-83759766D01*
X158083456Y-84067306D01*
X157044786Y-84410484D01*
X156018239Y-84788610D01*
X155006304Y-85200995D01*
X154011471Y-85646951D01*
X153836077Y-85729304D01*
X153506339Y-85884356D01*
X153204764Y-86026535D01*
X152925899Y-86158456D01*
X152664292Y-86282730D01*
X152414488Y-86401972D01*
X152171035Y-86518795D01*
X151928481Y-86635811D01*
X151681371Y-86755634D01*
X151424254Y-86880877D01*
X151151675Y-87014154D01*
X150858183Y-87158077D01*
X150144894Y-87508269D01*
X150134141Y-87615532D01*
X150133612Y-87622008D01*
X150131131Y-87669431D01*
X150127770Y-87752662D01*
X150123632Y-87868423D01*
X150118818Y-88013433D01*
X150113430Y-88184412D01*
X150107570Y-88378080D01*
X150101339Y-88591158D01*
X150094840Y-88820365D01*
X150088173Y-89062422D01*
X150081441Y-89314048D01*
X150075426Y-89536437D01*
X150067829Y-89801189D01*
X150060330Y-90045285D01*
X150053021Y-90266304D01*
X150045994Y-90461825D01*
X150039340Y-90629427D01*
X150033153Y-90766689D01*
X150027525Y-90871192D01*
X150022547Y-90940513D01*
X150018312Y-90972232D01*
X149993508Y-91021393D01*
X149934301Y-91066523D01*
X149914108Y-91075079D01*
X149860352Y-91091606D01*
X149813325Y-91088889D01*
X149752096Y-91066978D01*
X149734551Y-91058922D01*
X149688994Y-91022221D01*
X149662100Y-90961895D01*
X149660883Y-90956241D01*
X149654797Y-90913384D01*
X149645443Y-90834464D01*
X149633109Y-90722354D01*
X149618086Y-90579927D01*
X149600662Y-90410058D01*
X149581128Y-90215621D01*
X149559773Y-89999490D01*
X149536887Y-89764538D01*
X149512759Y-89513639D01*
X149487679Y-89249668D01*
X149461936Y-88975498D01*
X149433000Y-88664936D01*
X149406533Y-88379363D01*
X149383527Y-88128960D01*
X149363798Y-87911344D01*
X149347166Y-87724133D01*
X149333449Y-87564943D01*
X149322464Y-87431391D01*
X149314029Y-87321094D01*
X149307963Y-87231669D01*
X149304084Y-87160733D01*
X149302209Y-87105903D01*
X149302158Y-87064795D01*
X149303747Y-87035028D01*
X149306795Y-87014217D01*
X149311121Y-86999981D01*
X149313803Y-86994376D01*
X149350338Y-86948356D01*
X149419802Y-86884121D01*
X149520513Y-86802862D01*
X149650793Y-86705771D01*
X149808959Y-86594040D01*
X149993331Y-86468859D01*
X150202230Y-86331420D01*
X150433974Y-86182916D01*
X150686882Y-86024537D01*
X151077807Y-85786858D01*
X151952989Y-85285828D01*
X152856409Y-84809725D01*
X153785076Y-84359733D01*
X154736000Y-83937036D01*
X155706190Y-83542821D01*
X156692657Y-83178272D01*
X157692408Y-82844573D01*
X158702455Y-82542911D01*
X159719806Y-82274469D01*
X160741471Y-82040433D01*
X161036453Y-81979251D01*
X161677150Y-81855421D01*
X162308745Y-81746431D01*
X162939274Y-81651200D01*
X163576775Y-81568649D01*
X164229284Y-81497699D01*
X164904837Y-81437270D01*
X165611471Y-81386282D01*
X165645806Y-81384255D01*
X165769090Y-81378761D01*
X165926531Y-81373707D01*
X166113802Y-81369119D01*
X166326579Y-81365017D01*
X166560536Y-81361425D01*
X166811348Y-81358366D01*
X167074690Y-81355861D01*
X167346237Y-81353933D01*
X167621662Y-81352605D01*
X167896642Y-81351899D01*
X168166851Y-81351838D01*
X168427963Y-81352445D01*
X168675653Y-81353742D01*
X168905596Y-81355752D01*
X169113466Y-81358497D01*
X169294939Y-81361999D01*
X169445690Y-81366282D01*
X169952140Y-81386260D01*
X170861921Y-81434034D01*
X171766218Y-81497279D01*
X172673149Y-81576738D01*
X173590830Y-81673154D01*
X174527382Y-81787271D01*
X175490921Y-81919832D01*
X175602258Y-81936028D01*
X175841586Y-81971265D01*
X176075627Y-82006374D01*
X176307355Y-82041863D01*
X176539739Y-82078241D01*
X176775754Y-82116013D01*
X177018370Y-82155689D01*
X177270559Y-82197775D01*
X177535295Y-82242780D01*
X177815548Y-82291210D01*
X178114291Y-82343574D01*
X178434496Y-82400380D01*
X178779135Y-82462134D01*
X179151180Y-82529344D01*
X179553603Y-82602518D01*
X179989376Y-82682165D01*
X180461471Y-82768790D01*
X180744673Y-82820688D01*
X181354388Y-82931262D01*
X181928698Y-83033630D01*
X182470122Y-83128119D01*
X182981183Y-83215052D01*
X183464402Y-83294756D01*
X183922300Y-83367555D01*
X184357400Y-83433775D01*
X184772222Y-83493740D01*
X185169288Y-83547776D01*
X185551120Y-83596209D01*
X185920239Y-83639362D01*
X186279167Y-83677562D01*
X186630425Y-83711134D01*
X186976534Y-83740403D01*
X187320017Y-83765693D01*
X187663394Y-83787331D01*
X188009188Y-83805641D01*
X188359920Y-83820949D01*
X188718110Y-83833579D01*
X188962118Y-83840043D01*
X189897299Y-83843238D01*
X190851772Y-83813095D01*
X191823781Y-83749936D01*
X192811566Y-83654084D01*
X193813370Y-83525862D01*
X194827434Y-83365593D01*
X195851999Y-83173598D01*
X196885309Y-82950201D01*
X197925604Y-82695725D01*
X198971125Y-82410493D01*
X200020116Y-82094826D01*
X201070818Y-81749048D01*
X202121471Y-81373482D01*
X202474559Y-81240257D01*
X202899662Y-81074757D01*
X203313654Y-80908089D01*
X203707326Y-80743973D01*
X204071471Y-80586126D01*
X204167162Y-80543953D01*
X204291864Y-80489706D01*
X204403838Y-80441792D01*
X204497143Y-80402723D01*
X204565833Y-80375010D01*
X204603968Y-80361162D01*
X204622096Y-80356681D01*
X204706899Y-80356402D01*
X204780390Y-80388438D01*
G37*
G36*
X199275571Y-74568483D02*
G01*
X199368902Y-74584182D01*
X199491135Y-74608217D01*
X199647332Y-74640809D01*
X200014555Y-74719596D01*
X200828612Y-74902883D01*
X201632234Y-75095649D01*
X202422137Y-75296940D01*
X203195036Y-75505799D01*
X203947649Y-75721272D01*
X204676691Y-75942403D01*
X205378878Y-76168238D01*
X206050926Y-76397820D01*
X206689552Y-76630194D01*
X207291471Y-76864406D01*
X207297865Y-76866984D01*
X207473524Y-76938444D01*
X207639134Y-77007245D01*
X207799772Y-77075702D01*
X207960515Y-77146128D01*
X208126440Y-77220839D01*
X208302622Y-77302148D01*
X208494140Y-77392370D01*
X208706069Y-77493819D01*
X208943488Y-77608810D01*
X209211471Y-77739656D01*
X209524792Y-77892657D01*
X210055405Y-78149465D01*
X210554393Y-78387625D01*
X211023793Y-78607826D01*
X211465641Y-78810757D01*
X211881974Y-78997109D01*
X212274828Y-79167569D01*
X212646240Y-79322828D01*
X212998246Y-79463575D01*
X213332881Y-79590499D01*
X213652184Y-79704289D01*
X213958189Y-79805635D01*
X214252934Y-79895225D01*
X214538454Y-79973750D01*
X214816787Y-80041899D01*
X215089968Y-80100360D01*
X215360034Y-80149824D01*
X215629022Y-80190979D01*
X215898967Y-80224514D01*
X216171906Y-80251120D01*
X216449875Y-80271485D01*
X216734912Y-80286299D01*
X216949623Y-80293267D01*
X217423371Y-80295310D01*
X217928412Y-80280831D01*
X218461497Y-80250323D01*
X219019378Y-80204276D01*
X219598806Y-80143184D01*
X220196533Y-80067537D01*
X220809309Y-79977829D01*
X221433887Y-79874549D01*
X222067018Y-79758192D01*
X222705452Y-79629247D01*
X223345943Y-79488208D01*
X223985240Y-79335566D01*
X224620095Y-79171813D01*
X225247260Y-78997440D01*
X225381317Y-78958931D01*
X225495434Y-78926862D01*
X225581252Y-78904116D01*
X225644021Y-78889652D01*
X225688991Y-78882429D01*
X225721415Y-78881404D01*
X225746542Y-78885536D01*
X225769624Y-78893782D01*
X225797476Y-78907530D01*
X225831777Y-78932198D01*
X225868245Y-78969191D01*
X225910353Y-79023033D01*
X225961574Y-79098244D01*
X226025380Y-79199347D01*
X226105242Y-79330864D01*
X226211490Y-79514152D01*
X226426772Y-79927702D01*
X226628302Y-80373249D01*
X226814675Y-80846525D01*
X226984487Y-81343263D01*
X227136334Y-81859193D01*
X227268811Y-82390047D01*
X227380514Y-82931556D01*
X227470040Y-83479454D01*
X227533533Y-83991468D01*
X227595223Y-84756507D01*
X227618542Y-85528554D01*
X227603645Y-86305586D01*
X227550684Y-87085583D01*
X227459813Y-87866519D01*
X227331184Y-88646373D01*
X227164952Y-89423121D01*
X226961270Y-90194741D01*
X226941838Y-90261188D01*
X226872530Y-90488371D01*
X226798209Y-90718569D01*
X226720263Y-90948339D01*
X226640078Y-91174238D01*
X226559042Y-91392823D01*
X226478541Y-91600652D01*
X226399964Y-91794280D01*
X226324697Y-91970265D01*
X226254127Y-92125164D01*
X226189642Y-92255534D01*
X226132629Y-92357932D01*
X226084475Y-92428915D01*
X226046567Y-92465039D01*
X226004020Y-92484713D01*
X225940297Y-92493721D01*
X225870913Y-92472641D01*
X225818750Y-92431952D01*
X225777628Y-92366957D01*
X225761471Y-92296654D01*
X225761476Y-92296288D01*
X225767776Y-92263819D01*
X225784719Y-92200268D01*
X225810347Y-92112357D01*
X225842702Y-92006808D01*
X225879827Y-91890341D01*
X226025496Y-91422632D01*
X226234629Y-90666712D01*
X226409213Y-89917873D01*
X226548896Y-89178062D01*
X226653329Y-88449224D01*
X226722161Y-87733305D01*
X226755041Y-87032251D01*
X226758274Y-86814948D01*
X226757628Y-86553683D01*
X226751088Y-86303424D01*
X226738022Y-86058691D01*
X226717801Y-85814004D01*
X226689795Y-85563880D01*
X226653372Y-85302840D01*
X226607904Y-85025402D01*
X226552759Y-84726086D01*
X226487307Y-84399411D01*
X226410917Y-84039895D01*
X226397661Y-83979274D01*
X226300994Y-83560267D01*
X226201167Y-83166466D01*
X226098809Y-82799719D01*
X225994551Y-82461873D01*
X225889022Y-82154777D01*
X225782852Y-81880276D01*
X225676673Y-81640221D01*
X225571112Y-81436457D01*
X225466801Y-81270833D01*
X225429061Y-81219391D01*
X225390458Y-81174872D01*
X225360967Y-81154972D01*
X225334118Y-81153995D01*
X225321057Y-81158057D01*
X225272099Y-81176319D01*
X225197846Y-81205858D01*
X225105792Y-81243667D01*
X225003429Y-81286737D01*
X224845308Y-81351673D01*
X224579966Y-81452539D01*
X224288824Y-81554903D01*
X223980142Y-81656090D01*
X223662183Y-81753421D01*
X223343205Y-81844220D01*
X223031471Y-81925809D01*
X222437579Y-82064050D01*
X221772200Y-82194629D01*
X221107346Y-82298451D01*
X220434571Y-82376647D01*
X219745428Y-82430346D01*
X219031471Y-82460677D01*
X218647336Y-82464721D01*
X217952811Y-82442643D01*
X217244800Y-82383126D01*
X216523568Y-82286235D01*
X215789380Y-82152032D01*
X215042499Y-81980580D01*
X214283191Y-81771944D01*
X213511720Y-81526186D01*
X212728350Y-81243370D01*
X211933346Y-80923559D01*
X211126972Y-80566816D01*
X211101272Y-80554855D01*
X210996837Y-80505201D01*
X210862513Y-80440139D01*
X210702657Y-80361833D01*
X210521629Y-80272448D01*
X210323789Y-80174147D01*
X210113494Y-80069093D01*
X209895103Y-79959452D01*
X209672976Y-79847386D01*
X209451471Y-79735059D01*
X209409028Y-79713480D01*
X208613718Y-79310067D01*
X207852716Y-78925913D01*
X207125452Y-78560751D01*
X206431354Y-78214312D01*
X205769851Y-77886327D01*
X205140371Y-77576527D01*
X204542343Y-77284646D01*
X203975196Y-77010413D01*
X203438358Y-76753561D01*
X202931257Y-76513821D01*
X202453324Y-76290924D01*
X202003985Y-76084603D01*
X201582670Y-75894588D01*
X201188808Y-75720612D01*
X200821826Y-75562406D01*
X200481155Y-75419701D01*
X200166221Y-75292229D01*
X199876455Y-75179721D01*
X199611284Y-75081910D01*
X199370137Y-74998526D01*
X199278866Y-74968017D01*
X199187507Y-74936422D01*
X199123799Y-74911939D01*
X199081825Y-74891586D01*
X199055674Y-74872376D01*
X199039429Y-74851326D01*
X199027179Y-74825450D01*
X199012161Y-74773859D01*
X199016563Y-74689290D01*
X199058030Y-74615179D01*
X199065232Y-74607317D01*
X199090000Y-74584640D01*
X199118355Y-74569198D01*
X199155360Y-74561211D01*
X199206078Y-74560899D01*
X199275571Y-74568483D01*
G37*
%LPC*%
D10*
X181147000Y-122555000D03*
D11*
X178647000Y-122555000D03*
D12*
X140649010Y-50739990D03*
X140649010Y-47558010D03*
X144490000Y-49149000D03*
X143830990Y-50739990D03*
X139990000Y-49149000D03*
X143830990Y-47558010D03*
D13*
X142240000Y-49149000D03*
D12*
X142240000Y-46899000D03*
X142240000Y-51399000D03*
D14*
X170830000Y-106670000D03*
D15*
X173370000Y-106670000D03*
X175910000Y-106670000D03*
X178450000Y-106670000D03*
X180990000Y-106670000D03*
X183530000Y-106670000D03*
X186070000Y-106670000D03*
X188610000Y-106670000D03*
X188610000Y-99050000D03*
X186070000Y-99050000D03*
X183530000Y-99050000D03*
X180990000Y-99050000D03*
X178450000Y-99050000D03*
X175910000Y-99050000D03*
X173370000Y-99050000D03*
X170830000Y-99050000D03*
D16*
X143635000Y-58670000D03*
X143635000Y-71370000D03*
D17*
X146175000Y-68580000D03*
D18*
X147955000Y-67564000D03*
X146175000Y-66548000D03*
X147955000Y-65532000D03*
X146175000Y-64516000D03*
X147955000Y-63500000D03*
X146175000Y-62484000D03*
X147955000Y-61468000D03*
X152775000Y-71880000D03*
X152775000Y-69590000D03*
X152775000Y-60450000D03*
X152775000Y-58160000D03*
D19*
X147065000Y-56890000D03*
X147065000Y-73150000D03*
D10*
X192410000Y-122545000D03*
D11*
X189910000Y-122545000D03*
D12*
X239334990Y-47558010D03*
X237744000Y-51399000D03*
X239994000Y-49149000D03*
X239334990Y-50739990D03*
X236153010Y-47558010D03*
X237744000Y-46899000D03*
X235494000Y-49149000D03*
X236153010Y-50739990D03*
D13*
X237744000Y-49149000D03*
D10*
X169082000Y-122555000D03*
D11*
X166582000Y-122555000D03*
D10*
X144878000Y-122545000D03*
D11*
X142378000Y-122545000D03*
D16*
X143635000Y-78990000D03*
X143635000Y-91690000D03*
D17*
X146175000Y-88900000D03*
D18*
X147955000Y-87884000D03*
X146175000Y-86868000D03*
X147955000Y-85852000D03*
X146175000Y-84836000D03*
X147955000Y-83820000D03*
X146175000Y-82804000D03*
X147955000Y-81788000D03*
X152775000Y-92200000D03*
X152775000Y-89910000D03*
X152775000Y-80770000D03*
X152775000Y-78480000D03*
D19*
X147065000Y-93470000D03*
X147065000Y-77210000D03*
D12*
X142240000Y-128052000D03*
X139990000Y-130302000D03*
X144490000Y-130302000D03*
X143830990Y-131892990D03*
X142240000Y-132552000D03*
D13*
X142240000Y-130302000D03*
D12*
X143830990Y-128711010D03*
X140649010Y-128711010D03*
X140649010Y-131892990D03*
D20*
X201884000Y-126948000D03*
D21*
X204384000Y-126948000D03*
X206884000Y-126948000D03*
X209384000Y-126948000D03*
D10*
X156943000Y-122555000D03*
D11*
X154443000Y-122555000D03*
D12*
X239334990Y-131892990D03*
X236153010Y-128711010D03*
X239994000Y-130302000D03*
X237744000Y-128052000D03*
X237744000Y-132552000D03*
D13*
X237744000Y-130302000D03*
D12*
X239334990Y-128711010D03*
X235494000Y-130302000D03*
X236153010Y-131892990D03*
D22*
X139700000Y-98679000D03*
D15*
X154940000Y-98679000D03*
D23*
X213614000Y-61630560D03*
D24*
X213614000Y-64170560D03*
X213614000Y-66710560D03*
X213614000Y-69250560D03*
X213614000Y-71790560D03*
X213614000Y-74330560D03*
X213614000Y-76870560D03*
X213614000Y-79410560D03*
X213614000Y-81950560D03*
X213614000Y-84490560D03*
X213614000Y-87030560D03*
X213614000Y-89570560D03*
X213614000Y-92110560D03*
X213614000Y-94650560D03*
X213614000Y-97190560D03*
X213614000Y-99730560D03*
X213614000Y-102270560D03*
X213614000Y-104810560D03*
X213614000Y-107350560D03*
X239010320Y-107347840D03*
X239010320Y-104807840D03*
X239014000Y-102270560D03*
X239014000Y-99730560D03*
X239014000Y-97190560D03*
X239014000Y-94650560D03*
X239014000Y-92110560D03*
X239014000Y-89570560D03*
X239014000Y-87030560D03*
X239014000Y-84490560D03*
X239014000Y-81950560D03*
X239014000Y-79410560D03*
X239014000Y-76870560D03*
X239014000Y-74330560D03*
X239014000Y-71790560D03*
X239014000Y-69250560D03*
X239014000Y-66710560D03*
X239014000Y-64170560D03*
X239014000Y-61630560D03*
D22*
X215346000Y-122122000D03*
D15*
X200106000Y-122122000D03*
M02*
