%TF.GenerationSoftware,KiCad,Pcbnew,(6.0.11)*%
%TF.CreationDate,2023-03-05T16:19:06-05:00*%
%TF.ProjectId,pre-thermal-throttle-pcb,7072652d-7468-4657-926d-616c2d746872,rev?*%
%TF.SameCoordinates,Original*%
%TF.FileFunction,Drillmap*%
%TF.FilePolarity,Positive*%
%FSLAX45Y45*%
G04 Gerber Fmt 4.5, Leading zero omitted, Abs format (unit mm)*
G04 Created by KiCad (PCBNEW (6.0.11)) date 2023-03-05 16:19:06*
%MOMM*%
%LPD*%
G01*
G04 APERTURE LIST*
%ADD10C,0.100000*%
%ADD11C,0.200000*%
%ADD12C,0.020000*%
%ADD13C,0.040000*%
%ADD14C,0.050000*%
%ADD15C,0.080000*%
%ADD16C,0.089000*%
%ADD17C,0.095000*%
%ADD18C,0.157000*%
%ADD19C,0.300000*%
G04 APERTURE END LIST*
D10*
X23384374Y-13910174D02*
G75*
G03*
X24654374Y-12640174I0J1270000D01*
G01*
X24654374Y-5304926D02*
X24654374Y-12640174D01*
X14614026Y-4034926D02*
X23384374Y-4034926D01*
X13344026Y-5304926D02*
X13344025Y-12640174D01*
X23384374Y-13910174D02*
X14614025Y-13910174D01*
X14614026Y-4034926D02*
G75*
G03*
X13344026Y-5304926I0J-1270000D01*
G01*
X13344025Y-12640174D02*
G75*
G03*
X14614025Y-13910174I1270001J1D01*
G01*
X24654374Y-5304926D02*
G75*
G03*
X23384374Y-4034926I-1270004J-4D01*
G01*
D11*
D12*
X20366600Y-11562400D02*
X20386600Y-11582400D01*
X20386600Y-11562400D02*
X20366600Y-11582400D01*
X20366600Y-11702400D02*
X20386600Y-11722400D01*
X20386600Y-11702400D02*
X20366600Y-11722400D01*
X20506600Y-11562400D02*
X20526600Y-11582400D01*
X20526600Y-11562400D02*
X20506600Y-11582400D01*
X20506600Y-11702400D02*
X20526600Y-11722400D01*
X20526600Y-11702400D02*
X20506600Y-11722400D01*
X20646600Y-11562400D02*
X20666600Y-11582400D01*
X20666600Y-11562400D02*
X20646600Y-11582400D01*
X20646600Y-11702400D02*
X20666600Y-11722400D01*
X20666600Y-11702400D02*
X20646600Y-11722400D01*
D13*
X14448200Y-11746500D02*
G75*
G03*
X14448200Y-11746500I-20000J0D01*
G01*
X14579726Y-10586274D02*
G75*
G03*
X14579726Y-10586274I-20000J0D01*
G01*
X14651400Y-11111500D02*
G75*
G03*
X14651400Y-11111500I-20000J0D01*
G01*
X14867124Y-10516424D02*
G75*
G03*
X14867124Y-10516424I-20000J0D01*
G01*
X15653700Y-11747500D02*
G75*
G03*
X15653700Y-11747500I-20000J0D01*
G01*
X15693000Y-7923600D02*
G75*
G03*
X15693000Y-7923600I-20000J0D01*
G01*
X15703500Y-5906500D02*
G75*
G03*
X15703500Y-5906500I-20000J0D01*
G01*
X15704500Y-7137400D02*
G75*
G03*
X15704500Y-7137400I-20000J0D01*
G01*
X15826900Y-8564400D02*
G75*
G03*
X15826900Y-8564400I-20000J0D01*
G01*
X15869600Y-11112500D02*
G75*
G03*
X15869600Y-11112500I-20000J0D01*
G01*
X15894000Y-9424400D02*
G75*
G03*
X15894000Y-9424400I-20000J0D01*
G01*
X16071280Y-6407400D02*
G75*
G03*
X16071280Y-6407400I-20000J0D01*
G01*
X16276000Y-9753600D02*
G75*
G03*
X16276000Y-9753600I-20000J0D01*
G01*
X16860200Y-11747500D02*
G75*
G03*
X16860200Y-11747500I-20000J0D01*
G01*
X17076100Y-11112500D02*
G75*
G03*
X17076100Y-11112500I-20000J0D01*
G01*
X17777300Y-7426800D02*
G75*
G03*
X17777300Y-7426800I-20000J0D01*
G01*
X17977800Y-7302500D02*
G75*
G03*
X17977800Y-7302500I-20000J0D01*
G01*
X17977800Y-7835900D02*
G75*
G03*
X17977800Y-7835900I-20000J0D01*
G01*
X18079400Y-11747500D02*
G75*
G03*
X18079400Y-11747500I-20000J0D01*
G01*
X18257200Y-8978900D02*
G75*
G03*
X18257200Y-8978900I-20000J0D01*
G01*
X18257200Y-9144000D02*
G75*
G03*
X18257200Y-9144000I-20000J0D01*
G01*
X18282600Y-9652000D02*
G75*
G03*
X18282600Y-9652000I-20000J0D01*
G01*
X18295300Y-11112500D02*
G75*
G03*
X18295300Y-11112500I-20000J0D01*
G01*
X18321770Y-9510370D02*
G75*
G03*
X18321770Y-9510370I-20000J0D01*
G01*
X18384200Y-7251700D02*
G75*
G03*
X18384200Y-7251700I-20000J0D01*
G01*
X18384200Y-7366000D02*
G75*
G03*
X18384200Y-7366000I-20000J0D01*
G01*
X18483900Y-7685400D02*
G75*
G03*
X18483900Y-7685400I-20000J0D01*
G01*
X18498500Y-7251700D02*
G75*
G03*
X18498500Y-7251700I-20000J0D01*
G01*
X18498500Y-7366000D02*
G75*
G03*
X18498500Y-7366000I-20000J0D01*
G01*
X18498500Y-7480300D02*
G75*
G03*
X18498500Y-7480300I-20000J0D01*
G01*
X18579950Y-9116060D02*
G75*
G03*
X18579950Y-9116060I-20000J0D01*
G01*
X18612800Y-7251700D02*
G75*
G03*
X18612800Y-7251700I-20000J0D01*
G01*
X18612800Y-7366000D02*
G75*
G03*
X18612800Y-7366000I-20000J0D01*
G01*
X18612800Y-7480300D02*
G75*
G03*
X18612800Y-7480300I-20000J0D01*
G01*
X18727100Y-7480300D02*
G75*
G03*
X18727100Y-7480300I-20000J0D01*
G01*
X18739800Y-8737600D02*
G75*
G03*
X18739800Y-8737600I-20000J0D01*
G01*
X19311300Y-9207500D02*
G75*
G03*
X19311300Y-9207500I-20000J0D01*
G01*
X20136800Y-10414000D02*
G75*
G03*
X20136800Y-10414000I-20000J0D01*
G01*
X20176123Y-11889900D02*
G75*
G03*
X20176123Y-11889900I-20000J0D01*
G01*
X20213000Y-10337800D02*
G75*
G03*
X20213000Y-10337800I-20000J0D01*
G01*
X20919600Y-11539100D02*
G75*
G03*
X20919600Y-11539100I-20000J0D01*
G01*
X21038500Y-10363200D02*
G75*
G03*
X21038500Y-10363200I-20000J0D01*
G01*
X21800500Y-5867400D02*
G75*
G03*
X21800500Y-5867400I-20000J0D01*
G01*
D14*
X13999000Y-4889900D02*
X13999000Y-4939900D01*
X13974000Y-4914900D02*
X14024000Y-4914900D01*
X13999000Y-13005200D02*
X13999000Y-13055200D01*
X13974000Y-13030200D02*
X14024000Y-13030200D01*
X14064901Y-4730801D02*
X14064901Y-4780801D01*
X14039901Y-4755801D02*
X14089901Y-4755801D01*
X14064901Y-5048999D02*
X14064901Y-5098999D01*
X14039901Y-5073999D02*
X14089901Y-5073999D01*
X14064901Y-12846101D02*
X14064901Y-12896101D01*
X14039901Y-12871101D02*
X14089901Y-12871101D01*
X14064901Y-13164299D02*
X14064901Y-13214299D01*
X14039901Y-13189299D02*
X14089901Y-13189299D01*
X14224000Y-4664900D02*
X14224000Y-4714900D01*
X14199000Y-4689900D02*
X14249000Y-4689900D01*
X14224000Y-5114900D02*
X14224000Y-5164900D01*
X14199000Y-5139900D02*
X14249000Y-5139900D01*
X14224000Y-12780200D02*
X14224000Y-12830200D01*
X14199000Y-12805200D02*
X14249000Y-12805200D01*
X14224000Y-13230200D02*
X14224000Y-13280200D01*
X14199000Y-13255200D02*
X14249000Y-13255200D01*
X14383099Y-4730801D02*
X14383099Y-4780801D01*
X14358099Y-4755801D02*
X14408099Y-4755801D01*
X14383099Y-5048999D02*
X14383099Y-5098999D01*
X14358099Y-5073999D02*
X14408099Y-5073999D01*
X14383099Y-12846101D02*
X14383099Y-12896101D01*
X14358099Y-12871101D02*
X14408099Y-12871101D01*
X14383099Y-13164299D02*
X14383099Y-13214299D01*
X14358099Y-13189299D02*
X14408099Y-13189299D01*
X14449000Y-4889900D02*
X14449000Y-4939900D01*
X14424000Y-4914900D02*
X14474000Y-4914900D01*
X14449000Y-13005200D02*
X14449000Y-13055200D01*
X14424000Y-13030200D02*
X14474000Y-13030200D01*
X23549400Y-4889900D02*
X23549400Y-4939900D01*
X23524400Y-4914900D02*
X23574400Y-4914900D01*
X23549400Y-13005200D02*
X23549400Y-13055200D01*
X23524400Y-13030200D02*
X23574400Y-13030200D01*
X23615301Y-4730801D02*
X23615301Y-4780801D01*
X23590301Y-4755801D02*
X23640301Y-4755801D01*
X23615301Y-5048999D02*
X23615301Y-5098999D01*
X23590301Y-5073999D02*
X23640301Y-5073999D01*
X23615301Y-12846101D02*
X23615301Y-12896101D01*
X23590301Y-12871101D02*
X23640301Y-12871101D01*
X23615301Y-13164299D02*
X23615301Y-13214299D01*
X23590301Y-13189299D02*
X23640301Y-13189299D01*
X23774400Y-4664900D02*
X23774400Y-4714900D01*
X23749400Y-4689900D02*
X23799400Y-4689900D01*
X23774400Y-5114900D02*
X23774400Y-5164900D01*
X23749400Y-5139900D02*
X23799400Y-5139900D01*
X23774400Y-12780200D02*
X23774400Y-12830200D01*
X23749400Y-12805200D02*
X23799400Y-12805200D01*
X23774400Y-13230200D02*
X23774400Y-13280200D01*
X23749400Y-13255200D02*
X23799400Y-13255200D01*
X23933499Y-4730801D02*
X23933499Y-4780801D01*
X23908499Y-4755801D02*
X23958499Y-4755801D01*
X23933499Y-5048999D02*
X23933499Y-5098999D01*
X23908499Y-5073999D02*
X23958499Y-5073999D01*
X23933499Y-12846101D02*
X23933499Y-12896101D01*
X23908499Y-12871101D02*
X23958499Y-12871101D01*
X23933499Y-13164299D02*
X23933499Y-13214299D01*
X23908499Y-13189299D02*
X23958499Y-13189299D01*
X23999400Y-4889900D02*
X23999400Y-4939900D01*
X23974400Y-4914900D02*
X24024400Y-4914900D01*
X23999400Y-13005200D02*
X23999400Y-13055200D01*
X23974400Y-13030200D02*
X24024400Y-13030200D01*
D15*
X13998284Y-9896185D02*
X13998284Y-9839616D01*
X13941715Y-9839616D01*
X13941715Y-9896185D01*
X13998284Y-9896185D01*
X15522284Y-9896185D02*
X15522284Y-9839616D01*
X15465715Y-9839616D01*
X15465715Y-9896185D01*
X15522284Y-9896185D01*
X17111285Y-9933285D02*
X17111285Y-9876716D01*
X17054716Y-9876716D01*
X17054716Y-9933285D01*
X17111285Y-9933285D01*
X17111285Y-10695285D02*
X17111285Y-10638716D01*
X17054716Y-10638716D01*
X17054716Y-10695285D01*
X17111285Y-10695285D01*
X17365285Y-9933285D02*
X17365285Y-9876716D01*
X17308716Y-9876716D01*
X17308716Y-9933285D01*
X17365285Y-9933285D01*
X17365285Y-10695285D02*
X17365285Y-10638716D01*
X17308716Y-10638716D01*
X17308716Y-10695285D01*
X17365285Y-10695285D01*
X17619285Y-9933285D02*
X17619285Y-9876716D01*
X17562716Y-9876716D01*
X17562716Y-9933285D01*
X17619285Y-9933285D01*
X17619285Y-10695285D02*
X17619285Y-10638716D01*
X17562716Y-10638716D01*
X17562716Y-10695285D01*
X17619285Y-10695285D01*
X17873285Y-9933285D02*
X17873285Y-9876716D01*
X17816716Y-9876716D01*
X17816716Y-9933285D01*
X17873285Y-9933285D01*
X17873285Y-10695285D02*
X17873285Y-10638716D01*
X17816716Y-10638716D01*
X17816716Y-10695285D01*
X17873285Y-10695285D01*
X18127285Y-9933285D02*
X18127285Y-9876716D01*
X18070716Y-9876716D01*
X18070716Y-9933285D01*
X18127285Y-9933285D01*
X18127285Y-10695285D02*
X18127285Y-10638716D01*
X18070716Y-10638716D01*
X18070716Y-10695285D01*
X18127285Y-10695285D01*
X18381285Y-9933285D02*
X18381285Y-9876716D01*
X18324716Y-9876716D01*
X18324716Y-9933285D01*
X18381285Y-9933285D01*
X18381285Y-10695285D02*
X18381285Y-10638716D01*
X18324716Y-10638716D01*
X18324716Y-10695285D01*
X18381285Y-10695285D01*
X18635285Y-9933285D02*
X18635285Y-9876716D01*
X18578716Y-9876716D01*
X18578716Y-9933285D01*
X18635285Y-9933285D01*
X18635285Y-10695285D02*
X18635285Y-10638716D01*
X18578716Y-10638716D01*
X18578716Y-10695285D01*
X18635285Y-10695285D01*
X18889285Y-9933285D02*
X18889285Y-9876716D01*
X18832716Y-9876716D01*
X18832716Y-9933285D01*
X18889285Y-9933285D01*
X18889285Y-10695285D02*
X18889285Y-10638716D01*
X18832716Y-10638716D01*
X18832716Y-10695285D01*
X18889285Y-10695285D01*
X20038885Y-12240484D02*
X20038885Y-12183915D01*
X19982316Y-12183915D01*
X19982316Y-12240484D01*
X20038885Y-12240484D01*
X21389685Y-6191340D02*
X21389685Y-6134771D01*
X21333116Y-6134771D01*
X21333116Y-6191340D01*
X21389685Y-6191340D01*
X21389685Y-6445340D02*
X21389685Y-6388771D01*
X21333116Y-6388771D01*
X21333116Y-6445340D01*
X21389685Y-6445340D01*
X21389685Y-6699340D02*
X21389685Y-6642771D01*
X21333116Y-6642771D01*
X21333116Y-6699340D01*
X21389685Y-6699340D01*
X21389685Y-6953340D02*
X21389685Y-6896771D01*
X21333116Y-6896771D01*
X21333116Y-6953340D01*
X21389685Y-6953340D01*
X21389685Y-7207340D02*
X21389685Y-7150771D01*
X21333116Y-7150771D01*
X21333116Y-7207340D01*
X21389685Y-7207340D01*
X21389685Y-7461340D02*
X21389685Y-7404771D01*
X21333116Y-7404771D01*
X21333116Y-7461340D01*
X21389685Y-7461340D01*
X21389685Y-7715340D02*
X21389685Y-7658771D01*
X21333116Y-7658771D01*
X21333116Y-7715340D01*
X21389685Y-7715340D01*
X21389685Y-7969340D02*
X21389685Y-7912771D01*
X21333116Y-7912771D01*
X21333116Y-7969340D01*
X21389685Y-7969340D01*
X21389685Y-8223340D02*
X21389685Y-8166771D01*
X21333116Y-8166771D01*
X21333116Y-8223340D01*
X21389685Y-8223340D01*
X21389685Y-8477341D02*
X21389685Y-8420772D01*
X21333116Y-8420772D01*
X21333116Y-8477341D01*
X21389685Y-8477341D01*
X21389685Y-8731341D02*
X21389685Y-8674772D01*
X21333116Y-8674772D01*
X21333116Y-8731341D01*
X21389685Y-8731341D01*
X21389685Y-8985341D02*
X21389685Y-8928772D01*
X21333116Y-8928772D01*
X21333116Y-8985341D01*
X21389685Y-8985341D01*
X21389685Y-9239341D02*
X21389685Y-9182772D01*
X21333116Y-9182772D01*
X21333116Y-9239341D01*
X21389685Y-9239341D01*
X21389685Y-9493341D02*
X21389685Y-9436772D01*
X21333116Y-9436772D01*
X21333116Y-9493341D01*
X21389685Y-9493341D01*
X21389685Y-9747341D02*
X21389685Y-9690772D01*
X21333116Y-9690772D01*
X21333116Y-9747341D01*
X21389685Y-9747341D01*
X21389685Y-10001341D02*
X21389685Y-9944772D01*
X21333116Y-9944772D01*
X21333116Y-10001341D01*
X21389685Y-10001341D01*
X21389685Y-10255341D02*
X21389685Y-10198772D01*
X21333116Y-10198772D01*
X21333116Y-10255341D01*
X21389685Y-10255341D01*
X21389685Y-10509341D02*
X21389685Y-10452772D01*
X21333116Y-10452772D01*
X21333116Y-10509341D01*
X21389685Y-10509341D01*
X21389685Y-10763341D02*
X21389685Y-10706772D01*
X21333116Y-10706772D01*
X21333116Y-10763341D01*
X21389685Y-10763341D01*
X21562885Y-12240484D02*
X21562885Y-12183915D01*
X21506316Y-12183915D01*
X21506316Y-12240484D01*
X21562885Y-12240484D01*
X23929316Y-10509069D02*
X23929316Y-10452500D01*
X23872747Y-10452500D01*
X23872747Y-10509069D01*
X23929316Y-10509069D01*
X23929316Y-10763069D02*
X23929316Y-10706500D01*
X23872747Y-10706500D01*
X23872747Y-10763069D01*
X23929316Y-10763069D01*
X23929684Y-6191340D02*
X23929684Y-6134771D01*
X23873115Y-6134771D01*
X23873115Y-6191340D01*
X23929684Y-6191340D01*
X23929684Y-6445340D02*
X23929684Y-6388771D01*
X23873115Y-6388771D01*
X23873115Y-6445340D01*
X23929684Y-6445340D01*
X23929684Y-6699340D02*
X23929684Y-6642771D01*
X23873115Y-6642771D01*
X23873115Y-6699340D01*
X23929684Y-6699340D01*
X23929684Y-6953340D02*
X23929684Y-6896771D01*
X23873115Y-6896771D01*
X23873115Y-6953340D01*
X23929684Y-6953340D01*
X23929684Y-7207340D02*
X23929684Y-7150771D01*
X23873115Y-7150771D01*
X23873115Y-7207340D01*
X23929684Y-7207340D01*
X23929684Y-7461340D02*
X23929684Y-7404771D01*
X23873115Y-7404771D01*
X23873115Y-7461340D01*
X23929684Y-7461340D01*
X23929684Y-7715340D02*
X23929684Y-7658771D01*
X23873115Y-7658771D01*
X23873115Y-7715340D01*
X23929684Y-7715340D01*
X23929684Y-7969340D02*
X23929684Y-7912771D01*
X23873115Y-7912771D01*
X23873115Y-7969340D01*
X23929684Y-7969340D01*
X23929684Y-8223340D02*
X23929684Y-8166771D01*
X23873115Y-8166771D01*
X23873115Y-8223340D01*
X23929684Y-8223340D01*
X23929684Y-8477341D02*
X23929684Y-8420772D01*
X23873115Y-8420772D01*
X23873115Y-8477341D01*
X23929684Y-8477341D01*
X23929684Y-8731341D02*
X23929684Y-8674772D01*
X23873115Y-8674772D01*
X23873115Y-8731341D01*
X23929684Y-8731341D01*
X23929684Y-8985341D02*
X23929684Y-8928772D01*
X23873115Y-8928772D01*
X23873115Y-8985341D01*
X23929684Y-8985341D01*
X23929684Y-9239341D02*
X23929684Y-9182772D01*
X23873115Y-9182772D01*
X23873115Y-9239341D01*
X23929684Y-9239341D01*
X23929684Y-9493341D02*
X23929684Y-9436772D01*
X23873115Y-9436772D01*
X23873115Y-9493341D01*
X23929684Y-9493341D01*
X23929684Y-9747341D02*
X23929684Y-9690772D01*
X23873115Y-9690772D01*
X23873115Y-9747341D01*
X23929684Y-9747341D01*
X23929684Y-10001341D02*
X23929684Y-9944772D01*
X23873115Y-9944772D01*
X23873115Y-10001341D01*
X23929684Y-10001341D01*
X23929684Y-10255341D02*
X23929684Y-10198772D01*
X23873115Y-10198772D01*
X23873115Y-10255341D01*
X23929684Y-10255341D01*
D16*
X14617500Y-6292900D02*
X14662000Y-6248400D01*
X14617500Y-6203900D01*
X14573000Y-6248400D01*
X14617500Y-6292900D01*
X14617500Y-6496100D02*
X14662000Y-6451600D01*
X14617500Y-6407100D01*
X14573000Y-6451600D01*
X14617500Y-6496100D01*
X14617500Y-6699300D02*
X14662000Y-6654800D01*
X14617500Y-6610300D01*
X14573000Y-6654800D01*
X14617500Y-6699300D01*
X14617500Y-6902500D02*
X14662000Y-6858000D01*
X14617500Y-6813500D01*
X14573000Y-6858000D01*
X14617500Y-6902500D01*
X14617500Y-8324900D02*
X14662000Y-8280400D01*
X14617500Y-8235900D01*
X14573000Y-8280400D01*
X14617500Y-8324900D01*
X14617500Y-8528100D02*
X14662000Y-8483600D01*
X14617500Y-8439100D01*
X14573000Y-8483600D01*
X14617500Y-8528100D01*
X14617500Y-8731300D02*
X14662000Y-8686800D01*
X14617500Y-8642300D01*
X14573000Y-8686800D01*
X14617500Y-8731300D01*
X14617500Y-8934500D02*
X14662000Y-8890000D01*
X14617500Y-8845500D01*
X14573000Y-8890000D01*
X14617500Y-8934500D01*
X14795500Y-6191300D02*
X14840000Y-6146800D01*
X14795500Y-6102300D01*
X14751000Y-6146800D01*
X14795500Y-6191300D01*
X14795500Y-6394500D02*
X14840000Y-6350000D01*
X14795500Y-6305500D01*
X14751000Y-6350000D01*
X14795500Y-6394500D01*
X14795500Y-6597700D02*
X14840000Y-6553200D01*
X14795500Y-6508700D01*
X14751000Y-6553200D01*
X14795500Y-6597700D01*
X14795500Y-6800900D02*
X14840000Y-6756400D01*
X14795500Y-6711900D01*
X14751000Y-6756400D01*
X14795500Y-6800900D01*
X14795500Y-8223300D02*
X14840000Y-8178800D01*
X14795500Y-8134300D01*
X14751000Y-8178800D01*
X14795500Y-8223300D01*
X14795500Y-8426500D02*
X14840000Y-8382000D01*
X14795500Y-8337500D01*
X14751000Y-8382000D01*
X14795500Y-8426500D01*
X14795500Y-8629700D02*
X14840000Y-8585200D01*
X14795500Y-8540700D01*
X14751000Y-8585200D01*
X14795500Y-8629700D01*
X14795500Y-8832900D02*
X14840000Y-8788400D01*
X14795500Y-8743900D01*
X14751000Y-8788400D01*
X14795500Y-8832900D01*
X15277500Y-5860500D02*
X15322000Y-5816000D01*
X15277500Y-5771500D01*
X15233000Y-5816000D01*
X15277500Y-5860500D01*
X15277500Y-6089500D02*
X15322000Y-6045000D01*
X15277500Y-6000500D01*
X15233000Y-6045000D01*
X15277500Y-6089500D01*
X15277500Y-7003500D02*
X15322000Y-6959000D01*
X15277500Y-6914500D01*
X15233000Y-6959000D01*
X15277500Y-7003500D01*
X15277500Y-7232500D02*
X15322000Y-7188000D01*
X15277500Y-7143500D01*
X15233000Y-7188000D01*
X15277500Y-7232500D01*
X15277500Y-7892500D02*
X15322000Y-7848000D01*
X15277500Y-7803500D01*
X15233000Y-7848000D01*
X15277500Y-7892500D01*
X15277500Y-8121500D02*
X15322000Y-8077000D01*
X15277500Y-8032500D01*
X15233000Y-8077000D01*
X15277500Y-8121500D01*
X15277500Y-9035500D02*
X15322000Y-8991000D01*
X15277500Y-8946500D01*
X15233000Y-8991000D01*
X15277500Y-9035500D01*
X15277500Y-9264500D02*
X15322000Y-9220000D01*
X15277500Y-9175500D01*
X15233000Y-9220000D01*
X15277500Y-9264500D01*
D17*
X20140900Y-12647300D02*
X20235900Y-12742300D01*
X20235900Y-12647300D02*
X20140900Y-12742300D01*
X20235900Y-12694800D02*
G75*
G03*
X20235900Y-12694800I-47500J0D01*
G01*
X20390900Y-12647300D02*
X20485900Y-12742300D01*
X20485900Y-12647300D02*
X20390900Y-12742300D01*
X20485900Y-12694800D02*
G75*
G03*
X20485900Y-12694800I-47500J0D01*
G01*
X20640900Y-12647300D02*
X20735900Y-12742300D01*
X20735900Y-12647300D02*
X20640900Y-12742300D01*
X20735900Y-12694800D02*
G75*
G03*
X20735900Y-12694800I-47500J0D01*
G01*
X20890900Y-12647300D02*
X20985900Y-12742300D01*
X20985900Y-12647300D02*
X20890900Y-12742300D01*
X20985900Y-12694800D02*
G75*
G03*
X20985900Y-12694800I-47500J0D01*
G01*
D10*
X14187800Y-12204500D02*
X14287800Y-12304500D01*
X14287800Y-12204500D02*
X14187800Y-12304500D01*
X14237800Y-12204500D02*
X14237800Y-12304500D01*
X14187800Y-12254500D02*
X14287800Y-12254500D01*
X14437800Y-12204500D02*
X14537800Y-12304500D01*
X14537800Y-12204500D02*
X14437800Y-12304500D01*
X14487800Y-12204500D02*
X14487800Y-12304500D01*
X14437800Y-12254500D02*
X14537800Y-12254500D01*
X15394300Y-12205500D02*
X15494300Y-12305500D01*
X15494300Y-12205500D02*
X15394300Y-12305500D01*
X15444300Y-12205500D02*
X15444300Y-12305500D01*
X15394300Y-12255500D02*
X15494300Y-12255500D01*
X15644300Y-12205500D02*
X15744300Y-12305500D01*
X15744300Y-12205500D02*
X15644300Y-12305500D01*
X15694300Y-12205500D02*
X15694300Y-12305500D01*
X15644300Y-12255500D02*
X15744300Y-12255500D01*
X16608200Y-12205500D02*
X16708200Y-12305500D01*
X16708200Y-12205500D02*
X16608200Y-12305500D01*
X16658200Y-12205500D02*
X16658200Y-12305500D01*
X16608200Y-12255500D02*
X16708200Y-12255500D01*
X16858200Y-12205500D02*
X16958200Y-12305500D01*
X16958200Y-12205500D02*
X16858200Y-12305500D01*
X16908200Y-12205500D02*
X16908200Y-12305500D01*
X16858200Y-12255500D02*
X16958200Y-12255500D01*
X17814700Y-12205500D02*
X17914700Y-12305500D01*
X17914700Y-12205500D02*
X17814700Y-12305500D01*
X17864700Y-12205500D02*
X17864700Y-12305500D01*
X17814700Y-12255500D02*
X17914700Y-12255500D01*
X18064700Y-12205500D02*
X18164700Y-12305500D01*
X18164700Y-12205500D02*
X18064700Y-12305500D01*
X18114700Y-12205500D02*
X18114700Y-12305500D01*
X18064700Y-12255500D02*
X18164700Y-12255500D01*
X18941000Y-12204500D02*
X19041000Y-12304500D01*
X19041000Y-12204500D02*
X18941000Y-12304500D01*
X18991000Y-12204500D02*
X18991000Y-12304500D01*
X18941000Y-12254500D02*
X19041000Y-12254500D01*
X19191000Y-12204500D02*
X19291000Y-12304500D01*
X19291000Y-12204500D02*
X19191000Y-12304500D01*
X19241000Y-12204500D02*
X19241000Y-12304500D01*
X19191000Y-12254500D02*
X19291000Y-12254500D01*
D18*
X14628000Y-5610500D02*
X14785000Y-5767500D01*
X14785000Y-5610500D02*
X14628000Y-5767500D01*
X14762008Y-5744508D02*
X14762008Y-5633492D01*
X14650992Y-5633492D01*
X14650992Y-5744508D01*
X14762008Y-5744508D01*
X14628000Y-7236500D02*
X14785000Y-7393500D01*
X14785000Y-7236500D02*
X14628000Y-7393500D01*
X14762008Y-7370508D02*
X14762008Y-7259492D01*
X14650992Y-7259492D01*
X14650992Y-7370508D01*
X14762008Y-7370508D01*
X14628000Y-7642500D02*
X14785000Y-7799500D01*
X14785000Y-7642500D02*
X14628000Y-7799500D01*
X14762008Y-7776508D02*
X14762008Y-7665492D01*
X14650992Y-7665492D01*
X14650992Y-7776508D01*
X14762008Y-7776508D01*
X14628000Y-9268500D02*
X14785000Y-9425500D01*
X14785000Y-9268500D02*
X14628000Y-9425500D01*
X14762008Y-9402508D02*
X14762008Y-9291492D01*
X14650992Y-9291492D01*
X14650992Y-9402508D01*
X14762008Y-9402508D01*
D19*
X14074000Y-4764900D02*
X14374000Y-5064900D01*
X14374000Y-4764900D02*
X14074000Y-5064900D01*
X14224000Y-5064900D02*
X14374000Y-4914900D01*
X14224000Y-4764900D01*
X14074000Y-4914900D01*
X14224000Y-5064900D01*
X14074000Y-12880200D02*
X14374000Y-13180200D01*
X14374000Y-12880200D02*
X14074000Y-13180200D01*
X14224000Y-13180200D02*
X14374000Y-13030200D01*
X14224000Y-12880200D01*
X14074000Y-13030200D01*
X14224000Y-13180200D01*
X23624400Y-4764900D02*
X23924400Y-5064900D01*
X23924400Y-4764900D02*
X23624400Y-5064900D01*
X23774400Y-5064900D02*
X23924400Y-4914900D01*
X23774400Y-4764900D01*
X23624400Y-4914900D01*
X23774400Y-5064900D01*
X23624400Y-12880200D02*
X23924400Y-13180200D01*
X23924400Y-12880200D02*
X23624400Y-13180200D01*
X23774400Y-13180200D02*
X23924400Y-13030200D01*
X23774400Y-12880200D01*
X23624400Y-13030200D01*
X23774400Y-13180200D01*
D11*
X13596644Y-14225651D02*
X13596644Y-14025651D01*
X13644263Y-14025651D01*
X13672835Y-14035174D01*
X13691883Y-14054222D01*
X13701406Y-14073270D01*
X13710930Y-14111365D01*
X13710930Y-14139936D01*
X13701406Y-14178032D01*
X13691883Y-14197079D01*
X13672835Y-14216127D01*
X13644263Y-14225651D01*
X13596644Y-14225651D01*
X13796644Y-14225651D02*
X13796644Y-14092317D01*
X13796644Y-14130412D02*
X13806168Y-14111365D01*
X13815692Y-14101841D01*
X13834740Y-14092317D01*
X13853787Y-14092317D01*
X13920454Y-14225651D02*
X13920454Y-14092317D01*
X13920454Y-14025651D02*
X13910930Y-14035174D01*
X13920454Y-14044698D01*
X13929978Y-14035174D01*
X13920454Y-14025651D01*
X13920454Y-14044698D01*
X14044263Y-14225651D02*
X14025216Y-14216127D01*
X14015692Y-14197079D01*
X14015692Y-14025651D01*
X14149025Y-14225651D02*
X14129978Y-14216127D01*
X14120454Y-14197079D01*
X14120454Y-14025651D01*
X14377597Y-14225651D02*
X14377597Y-14025651D01*
X14444263Y-14168508D01*
X14510930Y-14025651D01*
X14510930Y-14225651D01*
X14691883Y-14225651D02*
X14691883Y-14120889D01*
X14682359Y-14101841D01*
X14663311Y-14092317D01*
X14625216Y-14092317D01*
X14606168Y-14101841D01*
X14691883Y-14216127D02*
X14672835Y-14225651D01*
X14625216Y-14225651D01*
X14606168Y-14216127D01*
X14596644Y-14197079D01*
X14596644Y-14178032D01*
X14606168Y-14158984D01*
X14625216Y-14149460D01*
X14672835Y-14149460D01*
X14691883Y-14139936D01*
X14787121Y-14092317D02*
X14787121Y-14292317D01*
X14787121Y-14101841D02*
X14806168Y-14092317D01*
X14844263Y-14092317D01*
X14863311Y-14101841D01*
X14872835Y-14111365D01*
X14882359Y-14130412D01*
X14882359Y-14187555D01*
X14872835Y-14206603D01*
X14863311Y-14216127D01*
X14844263Y-14225651D01*
X14806168Y-14225651D01*
X14787121Y-14216127D01*
X14968073Y-14206603D02*
X14977597Y-14216127D01*
X14968073Y-14225651D01*
X14958549Y-14216127D01*
X14968073Y-14206603D01*
X14968073Y-14225651D01*
X14968073Y-14101841D02*
X14977597Y-14111365D01*
X14968073Y-14120889D01*
X14958549Y-14111365D01*
X14968073Y-14101841D01*
X14968073Y-14120889D01*
D12*
X13319025Y-14545174D02*
X13339025Y-14565174D01*
X13339025Y-14545174D02*
X13319025Y-14565174D01*
D11*
X13634740Y-14445651D02*
X13653787Y-14445651D01*
X13672835Y-14455174D01*
X13682359Y-14464698D01*
X13691883Y-14483746D01*
X13701406Y-14521841D01*
X13701406Y-14569460D01*
X13691883Y-14607555D01*
X13682359Y-14626603D01*
X13672835Y-14636127D01*
X13653787Y-14645651D01*
X13634740Y-14645651D01*
X13615692Y-14636127D01*
X13606168Y-14626603D01*
X13596644Y-14607555D01*
X13587121Y-14569460D01*
X13587121Y-14521841D01*
X13596644Y-14483746D01*
X13606168Y-14464698D01*
X13615692Y-14455174D01*
X13634740Y-14445651D01*
X13787121Y-14626603D02*
X13796644Y-14636127D01*
X13787121Y-14645651D01*
X13777597Y-14636127D01*
X13787121Y-14626603D01*
X13787121Y-14645651D01*
X13872835Y-14464698D02*
X13882359Y-14455174D01*
X13901406Y-14445651D01*
X13949025Y-14445651D01*
X13968073Y-14455174D01*
X13977597Y-14464698D01*
X13987121Y-14483746D01*
X13987121Y-14502793D01*
X13977597Y-14531365D01*
X13863311Y-14645651D01*
X13987121Y-14645651D01*
X14110930Y-14445651D02*
X14129978Y-14445651D01*
X14149025Y-14455174D01*
X14158549Y-14464698D01*
X14168073Y-14483746D01*
X14177597Y-14521841D01*
X14177597Y-14569460D01*
X14168073Y-14607555D01*
X14158549Y-14626603D01*
X14149025Y-14636127D01*
X14129978Y-14645651D01*
X14110930Y-14645651D01*
X14091883Y-14636127D01*
X14082359Y-14626603D01*
X14072835Y-14607555D01*
X14063311Y-14569460D01*
X14063311Y-14521841D01*
X14072835Y-14483746D01*
X14082359Y-14464698D01*
X14091883Y-14455174D01*
X14110930Y-14445651D01*
X14301406Y-14445651D02*
X14320454Y-14445651D01*
X14339502Y-14455174D01*
X14349025Y-14464698D01*
X14358549Y-14483746D01*
X14368073Y-14521841D01*
X14368073Y-14569460D01*
X14358549Y-14607555D01*
X14349025Y-14626603D01*
X14339502Y-14636127D01*
X14320454Y-14645651D01*
X14301406Y-14645651D01*
X14282359Y-14636127D01*
X14272835Y-14626603D01*
X14263311Y-14607555D01*
X14253787Y-14569460D01*
X14253787Y-14521841D01*
X14263311Y-14483746D01*
X14272835Y-14464698D01*
X14282359Y-14455174D01*
X14301406Y-14445651D01*
X14453787Y-14645651D02*
X14453787Y-14512317D01*
X14453787Y-14531365D02*
X14463311Y-14521841D01*
X14482359Y-14512317D01*
X14510930Y-14512317D01*
X14529978Y-14521841D01*
X14539502Y-14540889D01*
X14539502Y-14645651D01*
X14539502Y-14540889D02*
X14549025Y-14521841D01*
X14568073Y-14512317D01*
X14596644Y-14512317D01*
X14615692Y-14521841D01*
X14625216Y-14540889D01*
X14625216Y-14645651D01*
X14720454Y-14645651D02*
X14720454Y-14512317D01*
X14720454Y-14531365D02*
X14729978Y-14521841D01*
X14749025Y-14512317D01*
X14777597Y-14512317D01*
X14796644Y-14521841D01*
X14806168Y-14540889D01*
X14806168Y-14645651D01*
X14806168Y-14540889D02*
X14815692Y-14521841D01*
X14834740Y-14512317D01*
X14863311Y-14512317D01*
X14882359Y-14521841D01*
X14891883Y-14540889D01*
X14891883Y-14645651D01*
X15282359Y-14436127D02*
X15110930Y-14693270D01*
X15539502Y-14445651D02*
X15558549Y-14445651D01*
X15577597Y-14455174D01*
X15587121Y-14464698D01*
X15596644Y-14483746D01*
X15606168Y-14521841D01*
X15606168Y-14569460D01*
X15596644Y-14607555D01*
X15587121Y-14626603D01*
X15577597Y-14636127D01*
X15558549Y-14645651D01*
X15539502Y-14645651D01*
X15520454Y-14636127D01*
X15510930Y-14626603D01*
X15501406Y-14607555D01*
X15491883Y-14569460D01*
X15491883Y-14521841D01*
X15501406Y-14483746D01*
X15510930Y-14464698D01*
X15520454Y-14455174D01*
X15539502Y-14445651D01*
X15691883Y-14626603D02*
X15701406Y-14636127D01*
X15691883Y-14645651D01*
X15682359Y-14636127D01*
X15691883Y-14626603D01*
X15691883Y-14645651D01*
X15825216Y-14445651D02*
X15844263Y-14445651D01*
X15863311Y-14455174D01*
X15872835Y-14464698D01*
X15882359Y-14483746D01*
X15891883Y-14521841D01*
X15891883Y-14569460D01*
X15882359Y-14607555D01*
X15872835Y-14626603D01*
X15863311Y-14636127D01*
X15844263Y-14645651D01*
X15825216Y-14645651D01*
X15806168Y-14636127D01*
X15796644Y-14626603D01*
X15787121Y-14607555D01*
X15777597Y-14569460D01*
X15777597Y-14521841D01*
X15787121Y-14483746D01*
X15796644Y-14464698D01*
X15806168Y-14455174D01*
X15825216Y-14445651D01*
X16015692Y-14445651D02*
X16034740Y-14445651D01*
X16053787Y-14455174D01*
X16063311Y-14464698D01*
X16072835Y-14483746D01*
X16082359Y-14521841D01*
X16082359Y-14569460D01*
X16072835Y-14607555D01*
X16063311Y-14626603D01*
X16053787Y-14636127D01*
X16034740Y-14645651D01*
X16015692Y-14645651D01*
X15996644Y-14636127D01*
X15987121Y-14626603D01*
X15977597Y-14607555D01*
X15968073Y-14569460D01*
X15968073Y-14521841D01*
X15977597Y-14483746D01*
X15987121Y-14464698D01*
X15996644Y-14455174D01*
X16015692Y-14445651D01*
X16149025Y-14445651D02*
X16282359Y-14445651D01*
X16196644Y-14645651D01*
X16368073Y-14645651D02*
X16406168Y-14645651D01*
X16425216Y-14636127D01*
X16434740Y-14626603D01*
X16453787Y-14598032D01*
X16463311Y-14559936D01*
X16463311Y-14483746D01*
X16453787Y-14464698D01*
X16444263Y-14455174D01*
X16425216Y-14445651D01*
X16387121Y-14445651D01*
X16368073Y-14455174D01*
X16358549Y-14464698D01*
X16349025Y-14483746D01*
X16349025Y-14531365D01*
X16358549Y-14550412D01*
X16368073Y-14559936D01*
X16387121Y-14569460D01*
X16425216Y-14569460D01*
X16444263Y-14559936D01*
X16453787Y-14550412D01*
X16463311Y-14531365D01*
X16539502Y-14445651D02*
X16539502Y-14483746D01*
X16615692Y-14445651D02*
X16615692Y-14483746D01*
X16910930Y-14721841D02*
X16901406Y-14712317D01*
X16882359Y-14683746D01*
X16872835Y-14664698D01*
X16863311Y-14636127D01*
X16853787Y-14588508D01*
X16853787Y-14550412D01*
X16863311Y-14502793D01*
X16872835Y-14474222D01*
X16882359Y-14455174D01*
X16901406Y-14426603D01*
X16910930Y-14417079D01*
X17072835Y-14445651D02*
X17034740Y-14445651D01*
X17015692Y-14455174D01*
X17006168Y-14464698D01*
X16987121Y-14493270D01*
X16977597Y-14531365D01*
X16977597Y-14607555D01*
X16987121Y-14626603D01*
X16996645Y-14636127D01*
X17015692Y-14645651D01*
X17053787Y-14645651D01*
X17072835Y-14636127D01*
X17082359Y-14626603D01*
X17091883Y-14607555D01*
X17091883Y-14559936D01*
X17082359Y-14540889D01*
X17072835Y-14531365D01*
X17053787Y-14521841D01*
X17015692Y-14521841D01*
X16996645Y-14531365D01*
X16987121Y-14540889D01*
X16977597Y-14559936D01*
X17329978Y-14645651D02*
X17329978Y-14445651D01*
X17415692Y-14645651D02*
X17415692Y-14540889D01*
X17406168Y-14521841D01*
X17387121Y-14512317D01*
X17358549Y-14512317D01*
X17339502Y-14521841D01*
X17329978Y-14531365D01*
X17539502Y-14645651D02*
X17520454Y-14636127D01*
X17510930Y-14626603D01*
X17501406Y-14607555D01*
X17501406Y-14550412D01*
X17510930Y-14531365D01*
X17520454Y-14521841D01*
X17539502Y-14512317D01*
X17568073Y-14512317D01*
X17587121Y-14521841D01*
X17596645Y-14531365D01*
X17606168Y-14550412D01*
X17606168Y-14607555D01*
X17596645Y-14626603D01*
X17587121Y-14636127D01*
X17568073Y-14645651D01*
X17539502Y-14645651D01*
X17720454Y-14645651D02*
X17701406Y-14636127D01*
X17691883Y-14617079D01*
X17691883Y-14445651D01*
X17872835Y-14636127D02*
X17853787Y-14645651D01*
X17815692Y-14645651D01*
X17796645Y-14636127D01*
X17787121Y-14617079D01*
X17787121Y-14540889D01*
X17796645Y-14521841D01*
X17815692Y-14512317D01*
X17853787Y-14512317D01*
X17872835Y-14521841D01*
X17882359Y-14540889D01*
X17882359Y-14559936D01*
X17787121Y-14578984D01*
X17958549Y-14636127D02*
X17977597Y-14645651D01*
X18015692Y-14645651D01*
X18034740Y-14636127D01*
X18044264Y-14617079D01*
X18044264Y-14607555D01*
X18034740Y-14588508D01*
X18015692Y-14578984D01*
X17987121Y-14578984D01*
X17968073Y-14569460D01*
X17958549Y-14550412D01*
X17958549Y-14540889D01*
X17968073Y-14521841D01*
X17987121Y-14512317D01*
X18015692Y-14512317D01*
X18034740Y-14521841D01*
X18110930Y-14721841D02*
X18120454Y-14712317D01*
X18139502Y-14683746D01*
X18149025Y-14664698D01*
X18158549Y-14636127D01*
X18168073Y-14588508D01*
X18168073Y-14550412D01*
X18158549Y-14502793D01*
X18149025Y-14474222D01*
X18139502Y-14455174D01*
X18120454Y-14426603D01*
X18110930Y-14417079D01*
D13*
X13339025Y-14819174D02*
G75*
G03*
X13339025Y-14819174I-20000J0D01*
G01*
D11*
X13634740Y-14709651D02*
X13653787Y-14709651D01*
X13672835Y-14719174D01*
X13682359Y-14728698D01*
X13691883Y-14747746D01*
X13701406Y-14785841D01*
X13701406Y-14833460D01*
X13691883Y-14871555D01*
X13682359Y-14890603D01*
X13672835Y-14900127D01*
X13653787Y-14909651D01*
X13634740Y-14909651D01*
X13615692Y-14900127D01*
X13606168Y-14890603D01*
X13596644Y-14871555D01*
X13587121Y-14833460D01*
X13587121Y-14785841D01*
X13596644Y-14747746D01*
X13606168Y-14728698D01*
X13615692Y-14719174D01*
X13634740Y-14709651D01*
X13787121Y-14890603D02*
X13796644Y-14900127D01*
X13787121Y-14909651D01*
X13777597Y-14900127D01*
X13787121Y-14890603D01*
X13787121Y-14909651D01*
X13968073Y-14776317D02*
X13968073Y-14909651D01*
X13920454Y-14700127D02*
X13872835Y-14842984D01*
X13996644Y-14842984D01*
X14110930Y-14709651D02*
X14129978Y-14709651D01*
X14149025Y-14719174D01*
X14158549Y-14728698D01*
X14168073Y-14747746D01*
X14177597Y-14785841D01*
X14177597Y-14833460D01*
X14168073Y-14871555D01*
X14158549Y-14890603D01*
X14149025Y-14900127D01*
X14129978Y-14909651D01*
X14110930Y-14909651D01*
X14091883Y-14900127D01*
X14082359Y-14890603D01*
X14072835Y-14871555D01*
X14063311Y-14833460D01*
X14063311Y-14785841D01*
X14072835Y-14747746D01*
X14082359Y-14728698D01*
X14091883Y-14719174D01*
X14110930Y-14709651D01*
X14301406Y-14709651D02*
X14320454Y-14709651D01*
X14339502Y-14719174D01*
X14349025Y-14728698D01*
X14358549Y-14747746D01*
X14368073Y-14785841D01*
X14368073Y-14833460D01*
X14358549Y-14871555D01*
X14349025Y-14890603D01*
X14339502Y-14900127D01*
X14320454Y-14909651D01*
X14301406Y-14909651D01*
X14282359Y-14900127D01*
X14272835Y-14890603D01*
X14263311Y-14871555D01*
X14253787Y-14833460D01*
X14253787Y-14785841D01*
X14263311Y-14747746D01*
X14272835Y-14728698D01*
X14282359Y-14719174D01*
X14301406Y-14709651D01*
X14453787Y-14909651D02*
X14453787Y-14776317D01*
X14453787Y-14795365D02*
X14463311Y-14785841D01*
X14482359Y-14776317D01*
X14510930Y-14776317D01*
X14529978Y-14785841D01*
X14539502Y-14804889D01*
X14539502Y-14909651D01*
X14539502Y-14804889D02*
X14549025Y-14785841D01*
X14568073Y-14776317D01*
X14596644Y-14776317D01*
X14615692Y-14785841D01*
X14625216Y-14804889D01*
X14625216Y-14909651D01*
X14720454Y-14909651D02*
X14720454Y-14776317D01*
X14720454Y-14795365D02*
X14729978Y-14785841D01*
X14749025Y-14776317D01*
X14777597Y-14776317D01*
X14796644Y-14785841D01*
X14806168Y-14804889D01*
X14806168Y-14909651D01*
X14806168Y-14804889D02*
X14815692Y-14785841D01*
X14834740Y-14776317D01*
X14863311Y-14776317D01*
X14882359Y-14785841D01*
X14891883Y-14804889D01*
X14891883Y-14909651D01*
X15282359Y-14700127D02*
X15110930Y-14957270D01*
X15539502Y-14709651D02*
X15558549Y-14709651D01*
X15577597Y-14719174D01*
X15587121Y-14728698D01*
X15596644Y-14747746D01*
X15606168Y-14785841D01*
X15606168Y-14833460D01*
X15596644Y-14871555D01*
X15587121Y-14890603D01*
X15577597Y-14900127D01*
X15558549Y-14909651D01*
X15539502Y-14909651D01*
X15520454Y-14900127D01*
X15510930Y-14890603D01*
X15501406Y-14871555D01*
X15491883Y-14833460D01*
X15491883Y-14785841D01*
X15501406Y-14747746D01*
X15510930Y-14728698D01*
X15520454Y-14719174D01*
X15539502Y-14709651D01*
X15691883Y-14890603D02*
X15701406Y-14900127D01*
X15691883Y-14909651D01*
X15682359Y-14900127D01*
X15691883Y-14890603D01*
X15691883Y-14909651D01*
X15825216Y-14709651D02*
X15844263Y-14709651D01*
X15863311Y-14719174D01*
X15872835Y-14728698D01*
X15882359Y-14747746D01*
X15891883Y-14785841D01*
X15891883Y-14833460D01*
X15882359Y-14871555D01*
X15872835Y-14890603D01*
X15863311Y-14900127D01*
X15844263Y-14909651D01*
X15825216Y-14909651D01*
X15806168Y-14900127D01*
X15796644Y-14890603D01*
X15787121Y-14871555D01*
X15777597Y-14833460D01*
X15777597Y-14785841D01*
X15787121Y-14747746D01*
X15796644Y-14728698D01*
X15806168Y-14719174D01*
X15825216Y-14709651D01*
X16082359Y-14909651D02*
X15968073Y-14909651D01*
X16025216Y-14909651D02*
X16025216Y-14709651D01*
X16006168Y-14738222D01*
X15987121Y-14757270D01*
X15968073Y-14766793D01*
X16263311Y-14709651D02*
X16168073Y-14709651D01*
X16158549Y-14804889D01*
X16168073Y-14795365D01*
X16187121Y-14785841D01*
X16234740Y-14785841D01*
X16253787Y-14795365D01*
X16263311Y-14804889D01*
X16272835Y-14823936D01*
X16272835Y-14871555D01*
X16263311Y-14890603D01*
X16253787Y-14900127D01*
X16234740Y-14909651D01*
X16187121Y-14909651D01*
X16168073Y-14900127D01*
X16158549Y-14890603D01*
X16339502Y-14709651D02*
X16472835Y-14709651D01*
X16387121Y-14909651D01*
X16539502Y-14709651D02*
X16539502Y-14747746D01*
X16615692Y-14709651D02*
X16615692Y-14747746D01*
X16910930Y-14985841D02*
X16901406Y-14976317D01*
X16882359Y-14947746D01*
X16872835Y-14928698D01*
X16863311Y-14900127D01*
X16853787Y-14852508D01*
X16853787Y-14814412D01*
X16863311Y-14766793D01*
X16872835Y-14738222D01*
X16882359Y-14719174D01*
X16901406Y-14690603D01*
X16910930Y-14681079D01*
X17072835Y-14776317D02*
X17072835Y-14909651D01*
X17025216Y-14700127D02*
X16977597Y-14842984D01*
X17101406Y-14842984D01*
X17158549Y-14709651D02*
X17282359Y-14709651D01*
X17215692Y-14785841D01*
X17244264Y-14785841D01*
X17263311Y-14795365D01*
X17272835Y-14804889D01*
X17282359Y-14823936D01*
X17282359Y-14871555D01*
X17272835Y-14890603D01*
X17263311Y-14900127D01*
X17244264Y-14909651D01*
X17187121Y-14909651D01*
X17168073Y-14900127D01*
X17158549Y-14890603D01*
X17520454Y-14909651D02*
X17520454Y-14709651D01*
X17606168Y-14909651D02*
X17606168Y-14804889D01*
X17596645Y-14785841D01*
X17577597Y-14776317D01*
X17549025Y-14776317D01*
X17529978Y-14785841D01*
X17520454Y-14795365D01*
X17729978Y-14909651D02*
X17710930Y-14900127D01*
X17701406Y-14890603D01*
X17691883Y-14871555D01*
X17691883Y-14814412D01*
X17701406Y-14795365D01*
X17710930Y-14785841D01*
X17729978Y-14776317D01*
X17758549Y-14776317D01*
X17777597Y-14785841D01*
X17787121Y-14795365D01*
X17796645Y-14814412D01*
X17796645Y-14871555D01*
X17787121Y-14890603D01*
X17777597Y-14900127D01*
X17758549Y-14909651D01*
X17729978Y-14909651D01*
X17910930Y-14909651D02*
X17891883Y-14900127D01*
X17882359Y-14881079D01*
X17882359Y-14709651D01*
X18063311Y-14900127D02*
X18044264Y-14909651D01*
X18006168Y-14909651D01*
X17987121Y-14900127D01*
X17977597Y-14881079D01*
X17977597Y-14804889D01*
X17987121Y-14785841D01*
X18006168Y-14776317D01*
X18044264Y-14776317D01*
X18063311Y-14785841D01*
X18072835Y-14804889D01*
X18072835Y-14823936D01*
X17977597Y-14842984D01*
X18149025Y-14900127D02*
X18168073Y-14909651D01*
X18206168Y-14909651D01*
X18225216Y-14900127D01*
X18234740Y-14881079D01*
X18234740Y-14871555D01*
X18225216Y-14852508D01*
X18206168Y-14842984D01*
X18177597Y-14842984D01*
X18158549Y-14833460D01*
X18149025Y-14814412D01*
X18149025Y-14804889D01*
X18158549Y-14785841D01*
X18177597Y-14776317D01*
X18206168Y-14776317D01*
X18225216Y-14785841D01*
X18301406Y-14985841D02*
X18310930Y-14976317D01*
X18329978Y-14947746D01*
X18339502Y-14928698D01*
X18349025Y-14900127D01*
X18358549Y-14852508D01*
X18358549Y-14814412D01*
X18349025Y-14766793D01*
X18339502Y-14738222D01*
X18329978Y-14719174D01*
X18310930Y-14690603D01*
X18301406Y-14681079D01*
D14*
X13314025Y-15058174D02*
X13314025Y-15108174D01*
X13289025Y-15083174D02*
X13339025Y-15083174D01*
D11*
X13634740Y-14973651D02*
X13653787Y-14973651D01*
X13672835Y-14983174D01*
X13682359Y-14992698D01*
X13691883Y-15011746D01*
X13701406Y-15049841D01*
X13701406Y-15097460D01*
X13691883Y-15135555D01*
X13682359Y-15154603D01*
X13672835Y-15164127D01*
X13653787Y-15173651D01*
X13634740Y-15173651D01*
X13615692Y-15164127D01*
X13606168Y-15154603D01*
X13596644Y-15135555D01*
X13587121Y-15097460D01*
X13587121Y-15049841D01*
X13596644Y-15011746D01*
X13606168Y-14992698D01*
X13615692Y-14983174D01*
X13634740Y-14973651D01*
X13787121Y-15154603D02*
X13796644Y-15164127D01*
X13787121Y-15173651D01*
X13777597Y-15164127D01*
X13787121Y-15154603D01*
X13787121Y-15173651D01*
X13977597Y-14973651D02*
X13882359Y-14973651D01*
X13872835Y-15068889D01*
X13882359Y-15059365D01*
X13901406Y-15049841D01*
X13949025Y-15049841D01*
X13968073Y-15059365D01*
X13977597Y-15068889D01*
X13987121Y-15087936D01*
X13987121Y-15135555D01*
X13977597Y-15154603D01*
X13968073Y-15164127D01*
X13949025Y-15173651D01*
X13901406Y-15173651D01*
X13882359Y-15164127D01*
X13872835Y-15154603D01*
X14110930Y-14973651D02*
X14129978Y-14973651D01*
X14149025Y-14983174D01*
X14158549Y-14992698D01*
X14168073Y-15011746D01*
X14177597Y-15049841D01*
X14177597Y-15097460D01*
X14168073Y-15135555D01*
X14158549Y-15154603D01*
X14149025Y-15164127D01*
X14129978Y-15173651D01*
X14110930Y-15173651D01*
X14091883Y-15164127D01*
X14082359Y-15154603D01*
X14072835Y-15135555D01*
X14063311Y-15097460D01*
X14063311Y-15049841D01*
X14072835Y-15011746D01*
X14082359Y-14992698D01*
X14091883Y-14983174D01*
X14110930Y-14973651D01*
X14301406Y-14973651D02*
X14320454Y-14973651D01*
X14339502Y-14983174D01*
X14349025Y-14992698D01*
X14358549Y-15011746D01*
X14368073Y-15049841D01*
X14368073Y-15097460D01*
X14358549Y-15135555D01*
X14349025Y-15154603D01*
X14339502Y-15164127D01*
X14320454Y-15173651D01*
X14301406Y-15173651D01*
X14282359Y-15164127D01*
X14272835Y-15154603D01*
X14263311Y-15135555D01*
X14253787Y-15097460D01*
X14253787Y-15049841D01*
X14263311Y-15011746D01*
X14272835Y-14992698D01*
X14282359Y-14983174D01*
X14301406Y-14973651D01*
X14453787Y-15173651D02*
X14453787Y-15040317D01*
X14453787Y-15059365D02*
X14463311Y-15049841D01*
X14482359Y-15040317D01*
X14510930Y-15040317D01*
X14529978Y-15049841D01*
X14539502Y-15068889D01*
X14539502Y-15173651D01*
X14539502Y-15068889D02*
X14549025Y-15049841D01*
X14568073Y-15040317D01*
X14596644Y-15040317D01*
X14615692Y-15049841D01*
X14625216Y-15068889D01*
X14625216Y-15173651D01*
X14720454Y-15173651D02*
X14720454Y-15040317D01*
X14720454Y-15059365D02*
X14729978Y-15049841D01*
X14749025Y-15040317D01*
X14777597Y-15040317D01*
X14796644Y-15049841D01*
X14806168Y-15068889D01*
X14806168Y-15173651D01*
X14806168Y-15068889D02*
X14815692Y-15049841D01*
X14834740Y-15040317D01*
X14863311Y-15040317D01*
X14882359Y-15049841D01*
X14891883Y-15068889D01*
X14891883Y-15173651D01*
X15282359Y-14964127D02*
X15110930Y-15221270D01*
X15539502Y-14973651D02*
X15558549Y-14973651D01*
X15577597Y-14983174D01*
X15587121Y-14992698D01*
X15596644Y-15011746D01*
X15606168Y-15049841D01*
X15606168Y-15097460D01*
X15596644Y-15135555D01*
X15587121Y-15154603D01*
X15577597Y-15164127D01*
X15558549Y-15173651D01*
X15539502Y-15173651D01*
X15520454Y-15164127D01*
X15510930Y-15154603D01*
X15501406Y-15135555D01*
X15491883Y-15097460D01*
X15491883Y-15049841D01*
X15501406Y-15011746D01*
X15510930Y-14992698D01*
X15520454Y-14983174D01*
X15539502Y-14973651D01*
X15691883Y-15154603D02*
X15701406Y-15164127D01*
X15691883Y-15173651D01*
X15682359Y-15164127D01*
X15691883Y-15154603D01*
X15691883Y-15173651D01*
X15825216Y-14973651D02*
X15844263Y-14973651D01*
X15863311Y-14983174D01*
X15872835Y-14992698D01*
X15882359Y-15011746D01*
X15891883Y-15049841D01*
X15891883Y-15097460D01*
X15882359Y-15135555D01*
X15872835Y-15154603D01*
X15863311Y-15164127D01*
X15844263Y-15173651D01*
X15825216Y-15173651D01*
X15806168Y-15164127D01*
X15796644Y-15154603D01*
X15787121Y-15135555D01*
X15777597Y-15097460D01*
X15777597Y-15049841D01*
X15787121Y-15011746D01*
X15796644Y-14992698D01*
X15806168Y-14983174D01*
X15825216Y-14973651D01*
X16082359Y-15173651D02*
X15968073Y-15173651D01*
X16025216Y-15173651D02*
X16025216Y-14973651D01*
X16006168Y-15002222D01*
X15987121Y-15021270D01*
X15968073Y-15030793D01*
X16177597Y-15173651D02*
X16215692Y-15173651D01*
X16234740Y-15164127D01*
X16244263Y-15154603D01*
X16263311Y-15126032D01*
X16272835Y-15087936D01*
X16272835Y-15011746D01*
X16263311Y-14992698D01*
X16253787Y-14983174D01*
X16234740Y-14973651D01*
X16196644Y-14973651D01*
X16177597Y-14983174D01*
X16168073Y-14992698D01*
X16158549Y-15011746D01*
X16158549Y-15059365D01*
X16168073Y-15078412D01*
X16177597Y-15087936D01*
X16196644Y-15097460D01*
X16234740Y-15097460D01*
X16253787Y-15087936D01*
X16263311Y-15078412D01*
X16272835Y-15059365D01*
X16339502Y-14973651D02*
X16472835Y-14973651D01*
X16387121Y-15173651D01*
X16539502Y-14973651D02*
X16539502Y-15011746D01*
X16615692Y-14973651D02*
X16615692Y-15011746D01*
X16910930Y-15249841D02*
X16901406Y-15240317D01*
X16882359Y-15211746D01*
X16872835Y-15192698D01*
X16863311Y-15164127D01*
X16853787Y-15116508D01*
X16853787Y-15078412D01*
X16863311Y-15030793D01*
X16872835Y-15002222D01*
X16882359Y-14983174D01*
X16901406Y-14954603D01*
X16910930Y-14945079D01*
X16968073Y-14973651D02*
X17091883Y-14973651D01*
X17025216Y-15049841D01*
X17053787Y-15049841D01*
X17072835Y-15059365D01*
X17082359Y-15068889D01*
X17091883Y-15087936D01*
X17091883Y-15135555D01*
X17082359Y-15154603D01*
X17072835Y-15164127D01*
X17053787Y-15173651D01*
X16996645Y-15173651D01*
X16977597Y-15164127D01*
X16968073Y-15154603D01*
X17168073Y-14992698D02*
X17177597Y-14983174D01*
X17196645Y-14973651D01*
X17244264Y-14973651D01*
X17263311Y-14983174D01*
X17272835Y-14992698D01*
X17282359Y-15011746D01*
X17282359Y-15030793D01*
X17272835Y-15059365D01*
X17158549Y-15173651D01*
X17282359Y-15173651D01*
X17520454Y-15173651D02*
X17520454Y-14973651D01*
X17606168Y-15173651D02*
X17606168Y-15068889D01*
X17596645Y-15049841D01*
X17577597Y-15040317D01*
X17549025Y-15040317D01*
X17529978Y-15049841D01*
X17520454Y-15059365D01*
X17729978Y-15173651D02*
X17710930Y-15164127D01*
X17701406Y-15154603D01*
X17691883Y-15135555D01*
X17691883Y-15078412D01*
X17701406Y-15059365D01*
X17710930Y-15049841D01*
X17729978Y-15040317D01*
X17758549Y-15040317D01*
X17777597Y-15049841D01*
X17787121Y-15059365D01*
X17796645Y-15078412D01*
X17796645Y-15135555D01*
X17787121Y-15154603D01*
X17777597Y-15164127D01*
X17758549Y-15173651D01*
X17729978Y-15173651D01*
X17910930Y-15173651D02*
X17891883Y-15164127D01*
X17882359Y-15145079D01*
X17882359Y-14973651D01*
X18063311Y-15164127D02*
X18044264Y-15173651D01*
X18006168Y-15173651D01*
X17987121Y-15164127D01*
X17977597Y-15145079D01*
X17977597Y-15068889D01*
X17987121Y-15049841D01*
X18006168Y-15040317D01*
X18044264Y-15040317D01*
X18063311Y-15049841D01*
X18072835Y-15068889D01*
X18072835Y-15087936D01*
X17977597Y-15106984D01*
X18149025Y-15164127D02*
X18168073Y-15173651D01*
X18206168Y-15173651D01*
X18225216Y-15164127D01*
X18234740Y-15145079D01*
X18234740Y-15135555D01*
X18225216Y-15116508D01*
X18206168Y-15106984D01*
X18177597Y-15106984D01*
X18158549Y-15097460D01*
X18149025Y-15078412D01*
X18149025Y-15068889D01*
X18158549Y-15049841D01*
X18177597Y-15040317D01*
X18206168Y-15040317D01*
X18225216Y-15049841D01*
X18301406Y-15249841D02*
X18310930Y-15240317D01*
X18329978Y-15211746D01*
X18339502Y-15192698D01*
X18349025Y-15164127D01*
X18358549Y-15116508D01*
X18358549Y-15078412D01*
X18349025Y-15030793D01*
X18339502Y-15002222D01*
X18329978Y-14983174D01*
X18310930Y-14954603D01*
X18301406Y-14945079D01*
D15*
X13327310Y-15375459D02*
X13327310Y-15318890D01*
X13270741Y-15318890D01*
X13270741Y-15375459D01*
X13327310Y-15375459D01*
D11*
X13634740Y-15237651D02*
X13653787Y-15237651D01*
X13672835Y-15247174D01*
X13682359Y-15256698D01*
X13691883Y-15275746D01*
X13701406Y-15313841D01*
X13701406Y-15361460D01*
X13691883Y-15399555D01*
X13682359Y-15418603D01*
X13672835Y-15428127D01*
X13653787Y-15437651D01*
X13634740Y-15437651D01*
X13615692Y-15428127D01*
X13606168Y-15418603D01*
X13596644Y-15399555D01*
X13587121Y-15361460D01*
X13587121Y-15313841D01*
X13596644Y-15275746D01*
X13606168Y-15256698D01*
X13615692Y-15247174D01*
X13634740Y-15237651D01*
X13787121Y-15418603D02*
X13796644Y-15428127D01*
X13787121Y-15437651D01*
X13777597Y-15428127D01*
X13787121Y-15418603D01*
X13787121Y-15437651D01*
X13910930Y-15323365D02*
X13891883Y-15313841D01*
X13882359Y-15304317D01*
X13872835Y-15285270D01*
X13872835Y-15275746D01*
X13882359Y-15256698D01*
X13891883Y-15247174D01*
X13910930Y-15237651D01*
X13949025Y-15237651D01*
X13968073Y-15247174D01*
X13977597Y-15256698D01*
X13987121Y-15275746D01*
X13987121Y-15285270D01*
X13977597Y-15304317D01*
X13968073Y-15313841D01*
X13949025Y-15323365D01*
X13910930Y-15323365D01*
X13891883Y-15332889D01*
X13882359Y-15342412D01*
X13872835Y-15361460D01*
X13872835Y-15399555D01*
X13882359Y-15418603D01*
X13891883Y-15428127D01*
X13910930Y-15437651D01*
X13949025Y-15437651D01*
X13968073Y-15428127D01*
X13977597Y-15418603D01*
X13987121Y-15399555D01*
X13987121Y-15361460D01*
X13977597Y-15342412D01*
X13968073Y-15332889D01*
X13949025Y-15323365D01*
X14110930Y-15237651D02*
X14129978Y-15237651D01*
X14149025Y-15247174D01*
X14158549Y-15256698D01*
X14168073Y-15275746D01*
X14177597Y-15313841D01*
X14177597Y-15361460D01*
X14168073Y-15399555D01*
X14158549Y-15418603D01*
X14149025Y-15428127D01*
X14129978Y-15437651D01*
X14110930Y-15437651D01*
X14091883Y-15428127D01*
X14082359Y-15418603D01*
X14072835Y-15399555D01*
X14063311Y-15361460D01*
X14063311Y-15313841D01*
X14072835Y-15275746D01*
X14082359Y-15256698D01*
X14091883Y-15247174D01*
X14110930Y-15237651D01*
X14301406Y-15237651D02*
X14320454Y-15237651D01*
X14339502Y-15247174D01*
X14349025Y-15256698D01*
X14358549Y-15275746D01*
X14368073Y-15313841D01*
X14368073Y-15361460D01*
X14358549Y-15399555D01*
X14349025Y-15418603D01*
X14339502Y-15428127D01*
X14320454Y-15437651D01*
X14301406Y-15437651D01*
X14282359Y-15428127D01*
X14272835Y-15418603D01*
X14263311Y-15399555D01*
X14253787Y-15361460D01*
X14253787Y-15313841D01*
X14263311Y-15275746D01*
X14272835Y-15256698D01*
X14282359Y-15247174D01*
X14301406Y-15237651D01*
X14453787Y-15437651D02*
X14453787Y-15304317D01*
X14453787Y-15323365D02*
X14463311Y-15313841D01*
X14482359Y-15304317D01*
X14510930Y-15304317D01*
X14529978Y-15313841D01*
X14539502Y-15332889D01*
X14539502Y-15437651D01*
X14539502Y-15332889D02*
X14549025Y-15313841D01*
X14568073Y-15304317D01*
X14596644Y-15304317D01*
X14615692Y-15313841D01*
X14625216Y-15332889D01*
X14625216Y-15437651D01*
X14720454Y-15437651D02*
X14720454Y-15304317D01*
X14720454Y-15323365D02*
X14729978Y-15313841D01*
X14749025Y-15304317D01*
X14777597Y-15304317D01*
X14796644Y-15313841D01*
X14806168Y-15332889D01*
X14806168Y-15437651D01*
X14806168Y-15332889D02*
X14815692Y-15313841D01*
X14834740Y-15304317D01*
X14863311Y-15304317D01*
X14882359Y-15313841D01*
X14891883Y-15332889D01*
X14891883Y-15437651D01*
X15282359Y-15228127D02*
X15110930Y-15485270D01*
X15539502Y-15237651D02*
X15558549Y-15237651D01*
X15577597Y-15247174D01*
X15587121Y-15256698D01*
X15596644Y-15275746D01*
X15606168Y-15313841D01*
X15606168Y-15361460D01*
X15596644Y-15399555D01*
X15587121Y-15418603D01*
X15577597Y-15428127D01*
X15558549Y-15437651D01*
X15539502Y-15437651D01*
X15520454Y-15428127D01*
X15510930Y-15418603D01*
X15501406Y-15399555D01*
X15491883Y-15361460D01*
X15491883Y-15313841D01*
X15501406Y-15275746D01*
X15510930Y-15256698D01*
X15520454Y-15247174D01*
X15539502Y-15237651D01*
X15691883Y-15418603D02*
X15701406Y-15428127D01*
X15691883Y-15437651D01*
X15682359Y-15428127D01*
X15691883Y-15418603D01*
X15691883Y-15437651D01*
X15825216Y-15237651D02*
X15844263Y-15237651D01*
X15863311Y-15247174D01*
X15872835Y-15256698D01*
X15882359Y-15275746D01*
X15891883Y-15313841D01*
X15891883Y-15361460D01*
X15882359Y-15399555D01*
X15872835Y-15418603D01*
X15863311Y-15428127D01*
X15844263Y-15437651D01*
X15825216Y-15437651D01*
X15806168Y-15428127D01*
X15796644Y-15418603D01*
X15787121Y-15399555D01*
X15777597Y-15361460D01*
X15777597Y-15313841D01*
X15787121Y-15275746D01*
X15796644Y-15256698D01*
X15806168Y-15247174D01*
X15825216Y-15237651D01*
X15958549Y-15237651D02*
X16082359Y-15237651D01*
X16015692Y-15313841D01*
X16044263Y-15313841D01*
X16063311Y-15323365D01*
X16072835Y-15332889D01*
X16082359Y-15351936D01*
X16082359Y-15399555D01*
X16072835Y-15418603D01*
X16063311Y-15428127D01*
X16044263Y-15437651D01*
X15987121Y-15437651D01*
X15968073Y-15428127D01*
X15958549Y-15418603D01*
X16272835Y-15437651D02*
X16158549Y-15437651D01*
X16215692Y-15437651D02*
X16215692Y-15237651D01*
X16196644Y-15266222D01*
X16177597Y-15285270D01*
X16158549Y-15294793D01*
X16453787Y-15237651D02*
X16358549Y-15237651D01*
X16349025Y-15332889D01*
X16358549Y-15323365D01*
X16377597Y-15313841D01*
X16425216Y-15313841D01*
X16444263Y-15323365D01*
X16453787Y-15332889D01*
X16463311Y-15351936D01*
X16463311Y-15399555D01*
X16453787Y-15418603D01*
X16444263Y-15428127D01*
X16425216Y-15437651D01*
X16377597Y-15437651D01*
X16358549Y-15428127D01*
X16349025Y-15418603D01*
X16539502Y-15237651D02*
X16539502Y-15275746D01*
X16615692Y-15237651D02*
X16615692Y-15275746D01*
X16910930Y-15513841D02*
X16901406Y-15504317D01*
X16882359Y-15475746D01*
X16872835Y-15456698D01*
X16863311Y-15428127D01*
X16853787Y-15380508D01*
X16853787Y-15342412D01*
X16863311Y-15294793D01*
X16872835Y-15266222D01*
X16882359Y-15247174D01*
X16901406Y-15218603D01*
X16910930Y-15209079D01*
X17082359Y-15237651D02*
X16987121Y-15237651D01*
X16977597Y-15332889D01*
X16987121Y-15323365D01*
X17006168Y-15313841D01*
X17053787Y-15313841D01*
X17072835Y-15323365D01*
X17082359Y-15332889D01*
X17091883Y-15351936D01*
X17091883Y-15399555D01*
X17082359Y-15418603D01*
X17072835Y-15428127D01*
X17053787Y-15437651D01*
X17006168Y-15437651D01*
X16987121Y-15428127D01*
X16977597Y-15418603D01*
X17206168Y-15323365D02*
X17187121Y-15313841D01*
X17177597Y-15304317D01*
X17168073Y-15285270D01*
X17168073Y-15275746D01*
X17177597Y-15256698D01*
X17187121Y-15247174D01*
X17206168Y-15237651D01*
X17244264Y-15237651D01*
X17263311Y-15247174D01*
X17272835Y-15256698D01*
X17282359Y-15275746D01*
X17282359Y-15285270D01*
X17272835Y-15304317D01*
X17263311Y-15313841D01*
X17244264Y-15323365D01*
X17206168Y-15323365D01*
X17187121Y-15332889D01*
X17177597Y-15342412D01*
X17168073Y-15361460D01*
X17168073Y-15399555D01*
X17177597Y-15418603D01*
X17187121Y-15428127D01*
X17206168Y-15437651D01*
X17244264Y-15437651D01*
X17263311Y-15428127D01*
X17272835Y-15418603D01*
X17282359Y-15399555D01*
X17282359Y-15361460D01*
X17272835Y-15342412D01*
X17263311Y-15332889D01*
X17244264Y-15323365D01*
X17520454Y-15437651D02*
X17520454Y-15237651D01*
X17606168Y-15437651D02*
X17606168Y-15332889D01*
X17596645Y-15313841D01*
X17577597Y-15304317D01*
X17549025Y-15304317D01*
X17529978Y-15313841D01*
X17520454Y-15323365D01*
X17729978Y-15437651D02*
X17710930Y-15428127D01*
X17701406Y-15418603D01*
X17691883Y-15399555D01*
X17691883Y-15342412D01*
X17701406Y-15323365D01*
X17710930Y-15313841D01*
X17729978Y-15304317D01*
X17758549Y-15304317D01*
X17777597Y-15313841D01*
X17787121Y-15323365D01*
X17796645Y-15342412D01*
X17796645Y-15399555D01*
X17787121Y-15418603D01*
X17777597Y-15428127D01*
X17758549Y-15437651D01*
X17729978Y-15437651D01*
X17910930Y-15437651D02*
X17891883Y-15428127D01*
X17882359Y-15409079D01*
X17882359Y-15237651D01*
X18063311Y-15428127D02*
X18044264Y-15437651D01*
X18006168Y-15437651D01*
X17987121Y-15428127D01*
X17977597Y-15409079D01*
X17977597Y-15332889D01*
X17987121Y-15313841D01*
X18006168Y-15304317D01*
X18044264Y-15304317D01*
X18063311Y-15313841D01*
X18072835Y-15332889D01*
X18072835Y-15351936D01*
X17977597Y-15370984D01*
X18149025Y-15428127D02*
X18168073Y-15437651D01*
X18206168Y-15437651D01*
X18225216Y-15428127D01*
X18234740Y-15409079D01*
X18234740Y-15399555D01*
X18225216Y-15380508D01*
X18206168Y-15370984D01*
X18177597Y-15370984D01*
X18158549Y-15361460D01*
X18149025Y-15342412D01*
X18149025Y-15332889D01*
X18158549Y-15313841D01*
X18177597Y-15304317D01*
X18206168Y-15304317D01*
X18225216Y-15313841D01*
X18301406Y-15513841D02*
X18310930Y-15504317D01*
X18329978Y-15475746D01*
X18339502Y-15456698D01*
X18349025Y-15428127D01*
X18358549Y-15380508D01*
X18358549Y-15342412D01*
X18349025Y-15294793D01*
X18339502Y-15266222D01*
X18329978Y-15247174D01*
X18310930Y-15218603D01*
X18301406Y-15209079D01*
D16*
X13294525Y-15655674D02*
X13339025Y-15611174D01*
X13294525Y-15566674D01*
X13250025Y-15611174D01*
X13294525Y-15655674D01*
D11*
X13634740Y-15501651D02*
X13653787Y-15501651D01*
X13672835Y-15511174D01*
X13682359Y-15520698D01*
X13691883Y-15539746D01*
X13701406Y-15577841D01*
X13701406Y-15625460D01*
X13691883Y-15663555D01*
X13682359Y-15682603D01*
X13672835Y-15692127D01*
X13653787Y-15701651D01*
X13634740Y-15701651D01*
X13615692Y-15692127D01*
X13606168Y-15682603D01*
X13596644Y-15663555D01*
X13587121Y-15625460D01*
X13587121Y-15577841D01*
X13596644Y-15539746D01*
X13606168Y-15520698D01*
X13615692Y-15511174D01*
X13634740Y-15501651D01*
X13787121Y-15682603D02*
X13796644Y-15692127D01*
X13787121Y-15701651D01*
X13777597Y-15692127D01*
X13787121Y-15682603D01*
X13787121Y-15701651D01*
X13910930Y-15587365D02*
X13891883Y-15577841D01*
X13882359Y-15568317D01*
X13872835Y-15549270D01*
X13872835Y-15539746D01*
X13882359Y-15520698D01*
X13891883Y-15511174D01*
X13910930Y-15501651D01*
X13949025Y-15501651D01*
X13968073Y-15511174D01*
X13977597Y-15520698D01*
X13987121Y-15539746D01*
X13987121Y-15549270D01*
X13977597Y-15568317D01*
X13968073Y-15577841D01*
X13949025Y-15587365D01*
X13910930Y-15587365D01*
X13891883Y-15596889D01*
X13882359Y-15606412D01*
X13872835Y-15625460D01*
X13872835Y-15663555D01*
X13882359Y-15682603D01*
X13891883Y-15692127D01*
X13910930Y-15701651D01*
X13949025Y-15701651D01*
X13968073Y-15692127D01*
X13977597Y-15682603D01*
X13987121Y-15663555D01*
X13987121Y-15625460D01*
X13977597Y-15606412D01*
X13968073Y-15596889D01*
X13949025Y-15587365D01*
X14082359Y-15701651D02*
X14120454Y-15701651D01*
X14139502Y-15692127D01*
X14149025Y-15682603D01*
X14168073Y-15654032D01*
X14177597Y-15615936D01*
X14177597Y-15539746D01*
X14168073Y-15520698D01*
X14158549Y-15511174D01*
X14139502Y-15501651D01*
X14101406Y-15501651D01*
X14082359Y-15511174D01*
X14072835Y-15520698D01*
X14063311Y-15539746D01*
X14063311Y-15587365D01*
X14072835Y-15606412D01*
X14082359Y-15615936D01*
X14101406Y-15625460D01*
X14139502Y-15625460D01*
X14158549Y-15615936D01*
X14168073Y-15606412D01*
X14177597Y-15587365D01*
X14301406Y-15501651D02*
X14320454Y-15501651D01*
X14339502Y-15511174D01*
X14349025Y-15520698D01*
X14358549Y-15539746D01*
X14368073Y-15577841D01*
X14368073Y-15625460D01*
X14358549Y-15663555D01*
X14349025Y-15682603D01*
X14339502Y-15692127D01*
X14320454Y-15701651D01*
X14301406Y-15701651D01*
X14282359Y-15692127D01*
X14272835Y-15682603D01*
X14263311Y-15663555D01*
X14253787Y-15625460D01*
X14253787Y-15577841D01*
X14263311Y-15539746D01*
X14272835Y-15520698D01*
X14282359Y-15511174D01*
X14301406Y-15501651D01*
X14453787Y-15701651D02*
X14453787Y-15568317D01*
X14453787Y-15587365D02*
X14463311Y-15577841D01*
X14482359Y-15568317D01*
X14510930Y-15568317D01*
X14529978Y-15577841D01*
X14539502Y-15596889D01*
X14539502Y-15701651D01*
X14539502Y-15596889D02*
X14549025Y-15577841D01*
X14568073Y-15568317D01*
X14596644Y-15568317D01*
X14615692Y-15577841D01*
X14625216Y-15596889D01*
X14625216Y-15701651D01*
X14720454Y-15701651D02*
X14720454Y-15568317D01*
X14720454Y-15587365D02*
X14729978Y-15577841D01*
X14749025Y-15568317D01*
X14777597Y-15568317D01*
X14796644Y-15577841D01*
X14806168Y-15596889D01*
X14806168Y-15701651D01*
X14806168Y-15596889D02*
X14815692Y-15577841D01*
X14834740Y-15568317D01*
X14863311Y-15568317D01*
X14882359Y-15577841D01*
X14891883Y-15596889D01*
X14891883Y-15701651D01*
X15282359Y-15492127D02*
X15110930Y-15749270D01*
X15539502Y-15501651D02*
X15558549Y-15501651D01*
X15577597Y-15511174D01*
X15587121Y-15520698D01*
X15596644Y-15539746D01*
X15606168Y-15577841D01*
X15606168Y-15625460D01*
X15596644Y-15663555D01*
X15587121Y-15682603D01*
X15577597Y-15692127D01*
X15558549Y-15701651D01*
X15539502Y-15701651D01*
X15520454Y-15692127D01*
X15510930Y-15682603D01*
X15501406Y-15663555D01*
X15491883Y-15625460D01*
X15491883Y-15577841D01*
X15501406Y-15539746D01*
X15510930Y-15520698D01*
X15520454Y-15511174D01*
X15539502Y-15501651D01*
X15691883Y-15682603D02*
X15701406Y-15692127D01*
X15691883Y-15701651D01*
X15682359Y-15692127D01*
X15691883Y-15682603D01*
X15691883Y-15701651D01*
X15825216Y-15501651D02*
X15844263Y-15501651D01*
X15863311Y-15511174D01*
X15872835Y-15520698D01*
X15882359Y-15539746D01*
X15891883Y-15577841D01*
X15891883Y-15625460D01*
X15882359Y-15663555D01*
X15872835Y-15682603D01*
X15863311Y-15692127D01*
X15844263Y-15701651D01*
X15825216Y-15701651D01*
X15806168Y-15692127D01*
X15796644Y-15682603D01*
X15787121Y-15663555D01*
X15777597Y-15625460D01*
X15777597Y-15577841D01*
X15787121Y-15539746D01*
X15796644Y-15520698D01*
X15806168Y-15511174D01*
X15825216Y-15501651D01*
X15958549Y-15501651D02*
X16082359Y-15501651D01*
X16015692Y-15577841D01*
X16044263Y-15577841D01*
X16063311Y-15587365D01*
X16072835Y-15596889D01*
X16082359Y-15615936D01*
X16082359Y-15663555D01*
X16072835Y-15682603D01*
X16063311Y-15692127D01*
X16044263Y-15701651D01*
X15987121Y-15701651D01*
X15968073Y-15692127D01*
X15958549Y-15682603D01*
X16263311Y-15501651D02*
X16168073Y-15501651D01*
X16158549Y-15596889D01*
X16168073Y-15587365D01*
X16187121Y-15577841D01*
X16234740Y-15577841D01*
X16253787Y-15587365D01*
X16263311Y-15596889D01*
X16272835Y-15615936D01*
X16272835Y-15663555D01*
X16263311Y-15682603D01*
X16253787Y-15692127D01*
X16234740Y-15701651D01*
X16187121Y-15701651D01*
X16168073Y-15692127D01*
X16158549Y-15682603D01*
X16396644Y-15501651D02*
X16415692Y-15501651D01*
X16434740Y-15511174D01*
X16444263Y-15520698D01*
X16453787Y-15539746D01*
X16463311Y-15577841D01*
X16463311Y-15625460D01*
X16453787Y-15663555D01*
X16444263Y-15682603D01*
X16434740Y-15692127D01*
X16415692Y-15701651D01*
X16396644Y-15701651D01*
X16377597Y-15692127D01*
X16368073Y-15682603D01*
X16358549Y-15663555D01*
X16349025Y-15625460D01*
X16349025Y-15577841D01*
X16358549Y-15539746D01*
X16368073Y-15520698D01*
X16377597Y-15511174D01*
X16396644Y-15501651D01*
X16539502Y-15501651D02*
X16539502Y-15539746D01*
X16615692Y-15501651D02*
X16615692Y-15539746D01*
X16910930Y-15777841D02*
X16901406Y-15768317D01*
X16882359Y-15739746D01*
X16872835Y-15720698D01*
X16863311Y-15692127D01*
X16853787Y-15644508D01*
X16853787Y-15606412D01*
X16863311Y-15558793D01*
X16872835Y-15530222D01*
X16882359Y-15511174D01*
X16901406Y-15482603D01*
X16910930Y-15473079D01*
X16977597Y-15520698D02*
X16987121Y-15511174D01*
X17006168Y-15501651D01*
X17053787Y-15501651D01*
X17072835Y-15511174D01*
X17082359Y-15520698D01*
X17091883Y-15539746D01*
X17091883Y-15558793D01*
X17082359Y-15587365D01*
X16968073Y-15701651D01*
X17091883Y-15701651D01*
X17263311Y-15568317D02*
X17263311Y-15701651D01*
X17215692Y-15492127D02*
X17168073Y-15634984D01*
X17291883Y-15634984D01*
X17520454Y-15701651D02*
X17520454Y-15501651D01*
X17606168Y-15701651D02*
X17606168Y-15596889D01*
X17596645Y-15577841D01*
X17577597Y-15568317D01*
X17549025Y-15568317D01*
X17529978Y-15577841D01*
X17520454Y-15587365D01*
X17729978Y-15701651D02*
X17710930Y-15692127D01*
X17701406Y-15682603D01*
X17691883Y-15663555D01*
X17691883Y-15606412D01*
X17701406Y-15587365D01*
X17710930Y-15577841D01*
X17729978Y-15568317D01*
X17758549Y-15568317D01*
X17777597Y-15577841D01*
X17787121Y-15587365D01*
X17796645Y-15606412D01*
X17796645Y-15663555D01*
X17787121Y-15682603D01*
X17777597Y-15692127D01*
X17758549Y-15701651D01*
X17729978Y-15701651D01*
X17910930Y-15701651D02*
X17891883Y-15692127D01*
X17882359Y-15673079D01*
X17882359Y-15501651D01*
X18063311Y-15692127D02*
X18044264Y-15701651D01*
X18006168Y-15701651D01*
X17987121Y-15692127D01*
X17977597Y-15673079D01*
X17977597Y-15596889D01*
X17987121Y-15577841D01*
X18006168Y-15568317D01*
X18044264Y-15568317D01*
X18063311Y-15577841D01*
X18072835Y-15596889D01*
X18072835Y-15615936D01*
X17977597Y-15634984D01*
X18149025Y-15692127D02*
X18168073Y-15701651D01*
X18206168Y-15701651D01*
X18225216Y-15692127D01*
X18234740Y-15673079D01*
X18234740Y-15663555D01*
X18225216Y-15644508D01*
X18206168Y-15634984D01*
X18177597Y-15634984D01*
X18158549Y-15625460D01*
X18149025Y-15606412D01*
X18149025Y-15596889D01*
X18158549Y-15577841D01*
X18177597Y-15568317D01*
X18206168Y-15568317D01*
X18225216Y-15577841D01*
X18301406Y-15777841D02*
X18310930Y-15768317D01*
X18329978Y-15739746D01*
X18339502Y-15720698D01*
X18349025Y-15692127D01*
X18358549Y-15644508D01*
X18358549Y-15606412D01*
X18349025Y-15558793D01*
X18339502Y-15530222D01*
X18329978Y-15511174D01*
X18310930Y-15482603D01*
X18301406Y-15473079D01*
D17*
X13244025Y-15827674D02*
X13339025Y-15922674D01*
X13339025Y-15827674D02*
X13244025Y-15922674D01*
X13339025Y-15875174D02*
G75*
G03*
X13339025Y-15875174I-47500J0D01*
G01*
D11*
X13634740Y-15765651D02*
X13653787Y-15765651D01*
X13672835Y-15775174D01*
X13682359Y-15784698D01*
X13691883Y-15803746D01*
X13701406Y-15841841D01*
X13701406Y-15889460D01*
X13691883Y-15927555D01*
X13682359Y-15946603D01*
X13672835Y-15956127D01*
X13653787Y-15965651D01*
X13634740Y-15965651D01*
X13615692Y-15956127D01*
X13606168Y-15946603D01*
X13596644Y-15927555D01*
X13587121Y-15889460D01*
X13587121Y-15841841D01*
X13596644Y-15803746D01*
X13606168Y-15784698D01*
X13615692Y-15775174D01*
X13634740Y-15765651D01*
X13787121Y-15946603D02*
X13796644Y-15956127D01*
X13787121Y-15965651D01*
X13777597Y-15956127D01*
X13787121Y-15946603D01*
X13787121Y-15965651D01*
X13891883Y-15965651D02*
X13929978Y-15965651D01*
X13949025Y-15956127D01*
X13958549Y-15946603D01*
X13977597Y-15918032D01*
X13987121Y-15879936D01*
X13987121Y-15803746D01*
X13977597Y-15784698D01*
X13968073Y-15775174D01*
X13949025Y-15765651D01*
X13910930Y-15765651D01*
X13891883Y-15775174D01*
X13882359Y-15784698D01*
X13872835Y-15803746D01*
X13872835Y-15851365D01*
X13882359Y-15870412D01*
X13891883Y-15879936D01*
X13910930Y-15889460D01*
X13949025Y-15889460D01*
X13968073Y-15879936D01*
X13977597Y-15870412D01*
X13987121Y-15851365D01*
X14168073Y-15765651D02*
X14072835Y-15765651D01*
X14063311Y-15860889D01*
X14072835Y-15851365D01*
X14091883Y-15841841D01*
X14139502Y-15841841D01*
X14158549Y-15851365D01*
X14168073Y-15860889D01*
X14177597Y-15879936D01*
X14177597Y-15927555D01*
X14168073Y-15946603D01*
X14158549Y-15956127D01*
X14139502Y-15965651D01*
X14091883Y-15965651D01*
X14072835Y-15956127D01*
X14063311Y-15946603D01*
X14301406Y-15765651D02*
X14320454Y-15765651D01*
X14339502Y-15775174D01*
X14349025Y-15784698D01*
X14358549Y-15803746D01*
X14368073Y-15841841D01*
X14368073Y-15889460D01*
X14358549Y-15927555D01*
X14349025Y-15946603D01*
X14339502Y-15956127D01*
X14320454Y-15965651D01*
X14301406Y-15965651D01*
X14282359Y-15956127D01*
X14272835Y-15946603D01*
X14263311Y-15927555D01*
X14253787Y-15889460D01*
X14253787Y-15841841D01*
X14263311Y-15803746D01*
X14272835Y-15784698D01*
X14282359Y-15775174D01*
X14301406Y-15765651D01*
X14453787Y-15965651D02*
X14453787Y-15832317D01*
X14453787Y-15851365D02*
X14463311Y-15841841D01*
X14482359Y-15832317D01*
X14510930Y-15832317D01*
X14529978Y-15841841D01*
X14539502Y-15860889D01*
X14539502Y-15965651D01*
X14539502Y-15860889D02*
X14549025Y-15841841D01*
X14568073Y-15832317D01*
X14596644Y-15832317D01*
X14615692Y-15841841D01*
X14625216Y-15860889D01*
X14625216Y-15965651D01*
X14720454Y-15965651D02*
X14720454Y-15832317D01*
X14720454Y-15851365D02*
X14729978Y-15841841D01*
X14749025Y-15832317D01*
X14777597Y-15832317D01*
X14796644Y-15841841D01*
X14806168Y-15860889D01*
X14806168Y-15965651D01*
X14806168Y-15860889D02*
X14815692Y-15841841D01*
X14834740Y-15832317D01*
X14863311Y-15832317D01*
X14882359Y-15841841D01*
X14891883Y-15860889D01*
X14891883Y-15965651D01*
X15282359Y-15756127D02*
X15110930Y-16013270D01*
X15539502Y-15765651D02*
X15558549Y-15765651D01*
X15577597Y-15775174D01*
X15587121Y-15784698D01*
X15596644Y-15803746D01*
X15606168Y-15841841D01*
X15606168Y-15889460D01*
X15596644Y-15927555D01*
X15587121Y-15946603D01*
X15577597Y-15956127D01*
X15558549Y-15965651D01*
X15539502Y-15965651D01*
X15520454Y-15956127D01*
X15510930Y-15946603D01*
X15501406Y-15927555D01*
X15491883Y-15889460D01*
X15491883Y-15841841D01*
X15501406Y-15803746D01*
X15510930Y-15784698D01*
X15520454Y-15775174D01*
X15539502Y-15765651D01*
X15691883Y-15946603D02*
X15701406Y-15956127D01*
X15691883Y-15965651D01*
X15682359Y-15956127D01*
X15691883Y-15946603D01*
X15691883Y-15965651D01*
X15825216Y-15765651D02*
X15844263Y-15765651D01*
X15863311Y-15775174D01*
X15872835Y-15784698D01*
X15882359Y-15803746D01*
X15891883Y-15841841D01*
X15891883Y-15889460D01*
X15882359Y-15927555D01*
X15872835Y-15946603D01*
X15863311Y-15956127D01*
X15844263Y-15965651D01*
X15825216Y-15965651D01*
X15806168Y-15956127D01*
X15796644Y-15946603D01*
X15787121Y-15927555D01*
X15777597Y-15889460D01*
X15777597Y-15841841D01*
X15787121Y-15803746D01*
X15796644Y-15784698D01*
X15806168Y-15775174D01*
X15825216Y-15765651D01*
X15958549Y-15765651D02*
X16082359Y-15765651D01*
X16015692Y-15841841D01*
X16044263Y-15841841D01*
X16063311Y-15851365D01*
X16072835Y-15860889D01*
X16082359Y-15879936D01*
X16082359Y-15927555D01*
X16072835Y-15946603D01*
X16063311Y-15956127D01*
X16044263Y-15965651D01*
X15987121Y-15965651D01*
X15968073Y-15956127D01*
X15958549Y-15946603D01*
X16149025Y-15765651D02*
X16282359Y-15765651D01*
X16196644Y-15965651D01*
X16444263Y-15832317D02*
X16444263Y-15965651D01*
X16396644Y-15756127D02*
X16349025Y-15898984D01*
X16472835Y-15898984D01*
X16539502Y-15765651D02*
X16539502Y-15803746D01*
X16615692Y-15765651D02*
X16615692Y-15803746D01*
X16910930Y-16041841D02*
X16901406Y-16032317D01*
X16882359Y-16003746D01*
X16872835Y-15984698D01*
X16863311Y-15956127D01*
X16853787Y-15908508D01*
X16853787Y-15870412D01*
X16863311Y-15822793D01*
X16872835Y-15794222D01*
X16882359Y-15775174D01*
X16901406Y-15746603D01*
X16910930Y-15737079D01*
X17072835Y-15832317D02*
X17072835Y-15965651D01*
X17025216Y-15756127D02*
X16977597Y-15898984D01*
X17101406Y-15898984D01*
X17329978Y-15965651D02*
X17329978Y-15765651D01*
X17415692Y-15965651D02*
X17415692Y-15860889D01*
X17406168Y-15841841D01*
X17387121Y-15832317D01*
X17358549Y-15832317D01*
X17339502Y-15841841D01*
X17329978Y-15851365D01*
X17539502Y-15965651D02*
X17520454Y-15956127D01*
X17510930Y-15946603D01*
X17501406Y-15927555D01*
X17501406Y-15870412D01*
X17510930Y-15851365D01*
X17520454Y-15841841D01*
X17539502Y-15832317D01*
X17568073Y-15832317D01*
X17587121Y-15841841D01*
X17596645Y-15851365D01*
X17606168Y-15870412D01*
X17606168Y-15927555D01*
X17596645Y-15946603D01*
X17587121Y-15956127D01*
X17568073Y-15965651D01*
X17539502Y-15965651D01*
X17720454Y-15965651D02*
X17701406Y-15956127D01*
X17691883Y-15937079D01*
X17691883Y-15765651D01*
X17872835Y-15956127D02*
X17853787Y-15965651D01*
X17815692Y-15965651D01*
X17796645Y-15956127D01*
X17787121Y-15937079D01*
X17787121Y-15860889D01*
X17796645Y-15841841D01*
X17815692Y-15832317D01*
X17853787Y-15832317D01*
X17872835Y-15841841D01*
X17882359Y-15860889D01*
X17882359Y-15879936D01*
X17787121Y-15898984D01*
X17958549Y-15956127D02*
X17977597Y-15965651D01*
X18015692Y-15965651D01*
X18034740Y-15956127D01*
X18044264Y-15937079D01*
X18044264Y-15927555D01*
X18034740Y-15908508D01*
X18015692Y-15898984D01*
X17987121Y-15898984D01*
X17968073Y-15889460D01*
X17958549Y-15870412D01*
X17958549Y-15860889D01*
X17968073Y-15841841D01*
X17987121Y-15832317D01*
X18015692Y-15832317D01*
X18034740Y-15841841D01*
X18110930Y-16041841D02*
X18120454Y-16032317D01*
X18139502Y-16003746D01*
X18149025Y-15984698D01*
X18158549Y-15956127D01*
X18168073Y-15908508D01*
X18168073Y-15870412D01*
X18158549Y-15822793D01*
X18149025Y-15794222D01*
X18139502Y-15775174D01*
X18120454Y-15746603D01*
X18110930Y-15737079D01*
D10*
X13239025Y-16089174D02*
X13339025Y-16189174D01*
X13339025Y-16089174D02*
X13239025Y-16189174D01*
X13289025Y-16089174D02*
X13289025Y-16189174D01*
X13239025Y-16139174D02*
X13339025Y-16139174D01*
D11*
X13701406Y-16229651D02*
X13587121Y-16229651D01*
X13644263Y-16229651D02*
X13644263Y-16029651D01*
X13625216Y-16058222D01*
X13606168Y-16077270D01*
X13587121Y-16086793D01*
X13787121Y-16210603D02*
X13796644Y-16220127D01*
X13787121Y-16229651D01*
X13777597Y-16220127D01*
X13787121Y-16210603D01*
X13787121Y-16229651D01*
X13920454Y-16029651D02*
X13939502Y-16029651D01*
X13958549Y-16039174D01*
X13968073Y-16048698D01*
X13977597Y-16067746D01*
X13987121Y-16105841D01*
X13987121Y-16153460D01*
X13977597Y-16191555D01*
X13968073Y-16210603D01*
X13958549Y-16220127D01*
X13939502Y-16229651D01*
X13920454Y-16229651D01*
X13901406Y-16220127D01*
X13891883Y-16210603D01*
X13882359Y-16191555D01*
X13872835Y-16153460D01*
X13872835Y-16105841D01*
X13882359Y-16067746D01*
X13891883Y-16048698D01*
X13901406Y-16039174D01*
X13920454Y-16029651D01*
X14110930Y-16029651D02*
X14129978Y-16029651D01*
X14149025Y-16039174D01*
X14158549Y-16048698D01*
X14168073Y-16067746D01*
X14177597Y-16105841D01*
X14177597Y-16153460D01*
X14168073Y-16191555D01*
X14158549Y-16210603D01*
X14149025Y-16220127D01*
X14129978Y-16229651D01*
X14110930Y-16229651D01*
X14091883Y-16220127D01*
X14082359Y-16210603D01*
X14072835Y-16191555D01*
X14063311Y-16153460D01*
X14063311Y-16105841D01*
X14072835Y-16067746D01*
X14082359Y-16048698D01*
X14091883Y-16039174D01*
X14110930Y-16029651D01*
X14301406Y-16029651D02*
X14320454Y-16029651D01*
X14339502Y-16039174D01*
X14349025Y-16048698D01*
X14358549Y-16067746D01*
X14368073Y-16105841D01*
X14368073Y-16153460D01*
X14358549Y-16191555D01*
X14349025Y-16210603D01*
X14339502Y-16220127D01*
X14320454Y-16229651D01*
X14301406Y-16229651D01*
X14282359Y-16220127D01*
X14272835Y-16210603D01*
X14263311Y-16191555D01*
X14253787Y-16153460D01*
X14253787Y-16105841D01*
X14263311Y-16067746D01*
X14272835Y-16048698D01*
X14282359Y-16039174D01*
X14301406Y-16029651D01*
X14453787Y-16229651D02*
X14453787Y-16096317D01*
X14453787Y-16115365D02*
X14463311Y-16105841D01*
X14482359Y-16096317D01*
X14510930Y-16096317D01*
X14529978Y-16105841D01*
X14539502Y-16124889D01*
X14539502Y-16229651D01*
X14539502Y-16124889D02*
X14549025Y-16105841D01*
X14568073Y-16096317D01*
X14596644Y-16096317D01*
X14615692Y-16105841D01*
X14625216Y-16124889D01*
X14625216Y-16229651D01*
X14720454Y-16229651D02*
X14720454Y-16096317D01*
X14720454Y-16115365D02*
X14729978Y-16105841D01*
X14749025Y-16096317D01*
X14777597Y-16096317D01*
X14796644Y-16105841D01*
X14806168Y-16124889D01*
X14806168Y-16229651D01*
X14806168Y-16124889D02*
X14815692Y-16105841D01*
X14834740Y-16096317D01*
X14863311Y-16096317D01*
X14882359Y-16105841D01*
X14891883Y-16124889D01*
X14891883Y-16229651D01*
X15282359Y-16020127D02*
X15110930Y-16277270D01*
X15539502Y-16029651D02*
X15558549Y-16029651D01*
X15577597Y-16039174D01*
X15587121Y-16048698D01*
X15596644Y-16067746D01*
X15606168Y-16105841D01*
X15606168Y-16153460D01*
X15596644Y-16191555D01*
X15587121Y-16210603D01*
X15577597Y-16220127D01*
X15558549Y-16229651D01*
X15539502Y-16229651D01*
X15520454Y-16220127D01*
X15510930Y-16210603D01*
X15501406Y-16191555D01*
X15491883Y-16153460D01*
X15491883Y-16105841D01*
X15501406Y-16067746D01*
X15510930Y-16048698D01*
X15520454Y-16039174D01*
X15539502Y-16029651D01*
X15691883Y-16210603D02*
X15701406Y-16220127D01*
X15691883Y-16229651D01*
X15682359Y-16220127D01*
X15691883Y-16210603D01*
X15691883Y-16229651D01*
X15825216Y-16029651D02*
X15844263Y-16029651D01*
X15863311Y-16039174D01*
X15872835Y-16048698D01*
X15882359Y-16067746D01*
X15891883Y-16105841D01*
X15891883Y-16153460D01*
X15882359Y-16191555D01*
X15872835Y-16210603D01*
X15863311Y-16220127D01*
X15844263Y-16229651D01*
X15825216Y-16229651D01*
X15806168Y-16220127D01*
X15796644Y-16210603D01*
X15787121Y-16191555D01*
X15777597Y-16153460D01*
X15777597Y-16105841D01*
X15787121Y-16067746D01*
X15796644Y-16048698D01*
X15806168Y-16039174D01*
X15825216Y-16029651D01*
X15958549Y-16029651D02*
X16082359Y-16029651D01*
X16015692Y-16105841D01*
X16044263Y-16105841D01*
X16063311Y-16115365D01*
X16072835Y-16124889D01*
X16082359Y-16143936D01*
X16082359Y-16191555D01*
X16072835Y-16210603D01*
X16063311Y-16220127D01*
X16044263Y-16229651D01*
X15987121Y-16229651D01*
X15968073Y-16220127D01*
X15958549Y-16210603D01*
X16177597Y-16229651D02*
X16215692Y-16229651D01*
X16234740Y-16220127D01*
X16244263Y-16210603D01*
X16263311Y-16182032D01*
X16272835Y-16143936D01*
X16272835Y-16067746D01*
X16263311Y-16048698D01*
X16253787Y-16039174D01*
X16234740Y-16029651D01*
X16196644Y-16029651D01*
X16177597Y-16039174D01*
X16168073Y-16048698D01*
X16158549Y-16067746D01*
X16158549Y-16115365D01*
X16168073Y-16134412D01*
X16177597Y-16143936D01*
X16196644Y-16153460D01*
X16234740Y-16153460D01*
X16253787Y-16143936D01*
X16263311Y-16134412D01*
X16272835Y-16115365D01*
X16444263Y-16096317D02*
X16444263Y-16229651D01*
X16396644Y-16020127D02*
X16349025Y-16162984D01*
X16472835Y-16162984D01*
X16539502Y-16029651D02*
X16539502Y-16067746D01*
X16615692Y-16029651D02*
X16615692Y-16067746D01*
X16910930Y-16305841D02*
X16901406Y-16296317D01*
X16882359Y-16267746D01*
X16872835Y-16248698D01*
X16863311Y-16220127D01*
X16853787Y-16172508D01*
X16853787Y-16134412D01*
X16863311Y-16086793D01*
X16872835Y-16058222D01*
X16882359Y-16039174D01*
X16901406Y-16010603D01*
X16910930Y-16001079D01*
X17091883Y-16229651D02*
X16977597Y-16229651D01*
X17034740Y-16229651D02*
X17034740Y-16029651D01*
X17015692Y-16058222D01*
X16996645Y-16077270D01*
X16977597Y-16086793D01*
X17215692Y-16029651D02*
X17234740Y-16029651D01*
X17253787Y-16039174D01*
X17263311Y-16048698D01*
X17272835Y-16067746D01*
X17282359Y-16105841D01*
X17282359Y-16153460D01*
X17272835Y-16191555D01*
X17263311Y-16210603D01*
X17253787Y-16220127D01*
X17234740Y-16229651D01*
X17215692Y-16229651D01*
X17196645Y-16220127D01*
X17187121Y-16210603D01*
X17177597Y-16191555D01*
X17168073Y-16153460D01*
X17168073Y-16105841D01*
X17177597Y-16067746D01*
X17187121Y-16048698D01*
X17196645Y-16039174D01*
X17215692Y-16029651D01*
X17520454Y-16229651D02*
X17520454Y-16029651D01*
X17606168Y-16229651D02*
X17606168Y-16124889D01*
X17596645Y-16105841D01*
X17577597Y-16096317D01*
X17549025Y-16096317D01*
X17529978Y-16105841D01*
X17520454Y-16115365D01*
X17729978Y-16229651D02*
X17710930Y-16220127D01*
X17701406Y-16210603D01*
X17691883Y-16191555D01*
X17691883Y-16134412D01*
X17701406Y-16115365D01*
X17710930Y-16105841D01*
X17729978Y-16096317D01*
X17758549Y-16096317D01*
X17777597Y-16105841D01*
X17787121Y-16115365D01*
X17796645Y-16134412D01*
X17796645Y-16191555D01*
X17787121Y-16210603D01*
X17777597Y-16220127D01*
X17758549Y-16229651D01*
X17729978Y-16229651D01*
X17910930Y-16229651D02*
X17891883Y-16220127D01*
X17882359Y-16201079D01*
X17882359Y-16029651D01*
X18063311Y-16220127D02*
X18044264Y-16229651D01*
X18006168Y-16229651D01*
X17987121Y-16220127D01*
X17977597Y-16201079D01*
X17977597Y-16124889D01*
X17987121Y-16105841D01*
X18006168Y-16096317D01*
X18044264Y-16096317D01*
X18063311Y-16105841D01*
X18072835Y-16124889D01*
X18072835Y-16143936D01*
X17977597Y-16162984D01*
X18149025Y-16220127D02*
X18168073Y-16229651D01*
X18206168Y-16229651D01*
X18225216Y-16220127D01*
X18234740Y-16201079D01*
X18234740Y-16191555D01*
X18225216Y-16172508D01*
X18206168Y-16162984D01*
X18177597Y-16162984D01*
X18158549Y-16153460D01*
X18149025Y-16134412D01*
X18149025Y-16124889D01*
X18158549Y-16105841D01*
X18177597Y-16096317D01*
X18206168Y-16096317D01*
X18225216Y-16105841D01*
X18301406Y-16305841D02*
X18310930Y-16296317D01*
X18329978Y-16267746D01*
X18339502Y-16248698D01*
X18349025Y-16220127D01*
X18358549Y-16172508D01*
X18358549Y-16134412D01*
X18349025Y-16086793D01*
X18339502Y-16058222D01*
X18329978Y-16039174D01*
X18310930Y-16010603D01*
X18301406Y-16001079D01*
D18*
X13182025Y-16324674D02*
X13339025Y-16481674D01*
X13339025Y-16324674D02*
X13182025Y-16481674D01*
X13316034Y-16458683D02*
X13316034Y-16347666D01*
X13205017Y-16347666D01*
X13205017Y-16458683D01*
X13316034Y-16458683D01*
D11*
X13701406Y-16493651D02*
X13587121Y-16493651D01*
X13644263Y-16493651D02*
X13644263Y-16293651D01*
X13625216Y-16322222D01*
X13606168Y-16341270D01*
X13587121Y-16350793D01*
X13787121Y-16474603D02*
X13796644Y-16484127D01*
X13787121Y-16493651D01*
X13777597Y-16484127D01*
X13787121Y-16474603D01*
X13787121Y-16493651D01*
X13977597Y-16293651D02*
X13882359Y-16293651D01*
X13872835Y-16388889D01*
X13882359Y-16379365D01*
X13901406Y-16369841D01*
X13949025Y-16369841D01*
X13968073Y-16379365D01*
X13977597Y-16388889D01*
X13987121Y-16407936D01*
X13987121Y-16455555D01*
X13977597Y-16474603D01*
X13968073Y-16484127D01*
X13949025Y-16493651D01*
X13901406Y-16493651D01*
X13882359Y-16484127D01*
X13872835Y-16474603D01*
X14053787Y-16293651D02*
X14187121Y-16293651D01*
X14101406Y-16493651D01*
X14301406Y-16293651D02*
X14320454Y-16293651D01*
X14339502Y-16303174D01*
X14349025Y-16312698D01*
X14358549Y-16331746D01*
X14368073Y-16369841D01*
X14368073Y-16417460D01*
X14358549Y-16455555D01*
X14349025Y-16474603D01*
X14339502Y-16484127D01*
X14320454Y-16493651D01*
X14301406Y-16493651D01*
X14282359Y-16484127D01*
X14272835Y-16474603D01*
X14263311Y-16455555D01*
X14253787Y-16417460D01*
X14253787Y-16369841D01*
X14263311Y-16331746D01*
X14272835Y-16312698D01*
X14282359Y-16303174D01*
X14301406Y-16293651D01*
X14453787Y-16493651D02*
X14453787Y-16360317D01*
X14453787Y-16379365D02*
X14463311Y-16369841D01*
X14482359Y-16360317D01*
X14510930Y-16360317D01*
X14529978Y-16369841D01*
X14539502Y-16388889D01*
X14539502Y-16493651D01*
X14539502Y-16388889D02*
X14549025Y-16369841D01*
X14568073Y-16360317D01*
X14596644Y-16360317D01*
X14615692Y-16369841D01*
X14625216Y-16388889D01*
X14625216Y-16493651D01*
X14720454Y-16493651D02*
X14720454Y-16360317D01*
X14720454Y-16379365D02*
X14729978Y-16369841D01*
X14749025Y-16360317D01*
X14777597Y-16360317D01*
X14796644Y-16369841D01*
X14806168Y-16388889D01*
X14806168Y-16493651D01*
X14806168Y-16388889D02*
X14815692Y-16369841D01*
X14834740Y-16360317D01*
X14863311Y-16360317D01*
X14882359Y-16369841D01*
X14891883Y-16388889D01*
X14891883Y-16493651D01*
X15282359Y-16284127D02*
X15110930Y-16541270D01*
X15539502Y-16293651D02*
X15558549Y-16293651D01*
X15577597Y-16303174D01*
X15587121Y-16312698D01*
X15596644Y-16331746D01*
X15606168Y-16369841D01*
X15606168Y-16417460D01*
X15596644Y-16455555D01*
X15587121Y-16474603D01*
X15577597Y-16484127D01*
X15558549Y-16493651D01*
X15539502Y-16493651D01*
X15520454Y-16484127D01*
X15510930Y-16474603D01*
X15501406Y-16455555D01*
X15491883Y-16417460D01*
X15491883Y-16369841D01*
X15501406Y-16331746D01*
X15510930Y-16312698D01*
X15520454Y-16303174D01*
X15539502Y-16293651D01*
X15691883Y-16474603D02*
X15701406Y-16484127D01*
X15691883Y-16493651D01*
X15682359Y-16484127D01*
X15691883Y-16474603D01*
X15691883Y-16493651D01*
X15825216Y-16293651D02*
X15844263Y-16293651D01*
X15863311Y-16303174D01*
X15872835Y-16312698D01*
X15882359Y-16331746D01*
X15891883Y-16369841D01*
X15891883Y-16417460D01*
X15882359Y-16455555D01*
X15872835Y-16474603D01*
X15863311Y-16484127D01*
X15844263Y-16493651D01*
X15825216Y-16493651D01*
X15806168Y-16484127D01*
X15796644Y-16474603D01*
X15787121Y-16455555D01*
X15777597Y-16417460D01*
X15777597Y-16369841D01*
X15787121Y-16331746D01*
X15796644Y-16312698D01*
X15806168Y-16303174D01*
X15825216Y-16293651D01*
X16063311Y-16293651D02*
X16025216Y-16293651D01*
X16006168Y-16303174D01*
X15996644Y-16312698D01*
X15977597Y-16341270D01*
X15968073Y-16379365D01*
X15968073Y-16455555D01*
X15977597Y-16474603D01*
X15987121Y-16484127D01*
X16006168Y-16493651D01*
X16044263Y-16493651D01*
X16063311Y-16484127D01*
X16072835Y-16474603D01*
X16082359Y-16455555D01*
X16082359Y-16407936D01*
X16072835Y-16388889D01*
X16063311Y-16379365D01*
X16044263Y-16369841D01*
X16006168Y-16369841D01*
X15987121Y-16379365D01*
X15977597Y-16388889D01*
X15968073Y-16407936D01*
X16272835Y-16493651D02*
X16158549Y-16493651D01*
X16215692Y-16493651D02*
X16215692Y-16293651D01*
X16196644Y-16322222D01*
X16177597Y-16341270D01*
X16158549Y-16350793D01*
X16387121Y-16379365D02*
X16368073Y-16369841D01*
X16358549Y-16360317D01*
X16349025Y-16341270D01*
X16349025Y-16331746D01*
X16358549Y-16312698D01*
X16368073Y-16303174D01*
X16387121Y-16293651D01*
X16425216Y-16293651D01*
X16444263Y-16303174D01*
X16453787Y-16312698D01*
X16463311Y-16331746D01*
X16463311Y-16341270D01*
X16453787Y-16360317D01*
X16444263Y-16369841D01*
X16425216Y-16379365D01*
X16387121Y-16379365D01*
X16368073Y-16388889D01*
X16358549Y-16398412D01*
X16349025Y-16417460D01*
X16349025Y-16455555D01*
X16358549Y-16474603D01*
X16368073Y-16484127D01*
X16387121Y-16493651D01*
X16425216Y-16493651D01*
X16444263Y-16484127D01*
X16453787Y-16474603D01*
X16463311Y-16455555D01*
X16463311Y-16417460D01*
X16453787Y-16398412D01*
X16444263Y-16388889D01*
X16425216Y-16379365D01*
X16539502Y-16293651D02*
X16539502Y-16331746D01*
X16615692Y-16293651D02*
X16615692Y-16331746D01*
X16910930Y-16569841D02*
X16901406Y-16560317D01*
X16882359Y-16531746D01*
X16872835Y-16512698D01*
X16863311Y-16484127D01*
X16853787Y-16436508D01*
X16853787Y-16398412D01*
X16863311Y-16350793D01*
X16872835Y-16322222D01*
X16882359Y-16303174D01*
X16901406Y-16274603D01*
X16910930Y-16265079D01*
X17072835Y-16360317D02*
X17072835Y-16493651D01*
X17025216Y-16284127D02*
X16977597Y-16426984D01*
X17101406Y-16426984D01*
X17329978Y-16493651D02*
X17329978Y-16293651D01*
X17415692Y-16493651D02*
X17415692Y-16388889D01*
X17406168Y-16369841D01*
X17387121Y-16360317D01*
X17358549Y-16360317D01*
X17339502Y-16369841D01*
X17329978Y-16379365D01*
X17539502Y-16493651D02*
X17520454Y-16484127D01*
X17510930Y-16474603D01*
X17501406Y-16455555D01*
X17501406Y-16398412D01*
X17510930Y-16379365D01*
X17520454Y-16369841D01*
X17539502Y-16360317D01*
X17568073Y-16360317D01*
X17587121Y-16369841D01*
X17596645Y-16379365D01*
X17606168Y-16398412D01*
X17606168Y-16455555D01*
X17596645Y-16474603D01*
X17587121Y-16484127D01*
X17568073Y-16493651D01*
X17539502Y-16493651D01*
X17720454Y-16493651D02*
X17701406Y-16484127D01*
X17691883Y-16465079D01*
X17691883Y-16293651D01*
X17872835Y-16484127D02*
X17853787Y-16493651D01*
X17815692Y-16493651D01*
X17796645Y-16484127D01*
X17787121Y-16465079D01*
X17787121Y-16388889D01*
X17796645Y-16369841D01*
X17815692Y-16360317D01*
X17853787Y-16360317D01*
X17872835Y-16369841D01*
X17882359Y-16388889D01*
X17882359Y-16407936D01*
X17787121Y-16426984D01*
X17958549Y-16484127D02*
X17977597Y-16493651D01*
X18015692Y-16493651D01*
X18034740Y-16484127D01*
X18044264Y-16465079D01*
X18044264Y-16455555D01*
X18034740Y-16436508D01*
X18015692Y-16426984D01*
X17987121Y-16426984D01*
X17968073Y-16417460D01*
X17958549Y-16398412D01*
X17958549Y-16388889D01*
X17968073Y-16369841D01*
X17987121Y-16360317D01*
X18015692Y-16360317D01*
X18034740Y-16369841D01*
X18110930Y-16569841D02*
X18120454Y-16560317D01*
X18139502Y-16531746D01*
X18149025Y-16512698D01*
X18158549Y-16484127D01*
X18168073Y-16436508D01*
X18168073Y-16398412D01*
X18158549Y-16350793D01*
X18149025Y-16322222D01*
X18139502Y-16303174D01*
X18120454Y-16274603D01*
X18110930Y-16265079D01*
X13139025Y-16580174D02*
X13339025Y-16780175D01*
X13339025Y-16580174D02*
X13139025Y-16780175D01*
X13239025Y-16780175D02*
X13339025Y-16680174D01*
X13239025Y-16580174D01*
X13139025Y-16680174D01*
X13239025Y-16780175D01*
X13577597Y-16570651D02*
X13701406Y-16570651D01*
X13634740Y-16646841D01*
X13663311Y-16646841D01*
X13682359Y-16656365D01*
X13691883Y-16665889D01*
X13701406Y-16684936D01*
X13701406Y-16732555D01*
X13691883Y-16751603D01*
X13682359Y-16761127D01*
X13663311Y-16770651D01*
X13606168Y-16770651D01*
X13587121Y-16761127D01*
X13577597Y-16751603D01*
X13787121Y-16751603D02*
X13796644Y-16761127D01*
X13787121Y-16770651D01*
X13777597Y-16761127D01*
X13787121Y-16751603D01*
X13787121Y-16770651D01*
X13920454Y-16570651D02*
X13939502Y-16570651D01*
X13958549Y-16580174D01*
X13968073Y-16589698D01*
X13977597Y-16608746D01*
X13987121Y-16646841D01*
X13987121Y-16694460D01*
X13977597Y-16732555D01*
X13968073Y-16751603D01*
X13958549Y-16761127D01*
X13939502Y-16770651D01*
X13920454Y-16770651D01*
X13901406Y-16761127D01*
X13891883Y-16751603D01*
X13882359Y-16732555D01*
X13872835Y-16694460D01*
X13872835Y-16646841D01*
X13882359Y-16608746D01*
X13891883Y-16589698D01*
X13901406Y-16580174D01*
X13920454Y-16570651D01*
X14110930Y-16570651D02*
X14129978Y-16570651D01*
X14149025Y-16580174D01*
X14158549Y-16589698D01*
X14168073Y-16608746D01*
X14177597Y-16646841D01*
X14177597Y-16694460D01*
X14168073Y-16732555D01*
X14158549Y-16751603D01*
X14149025Y-16761127D01*
X14129978Y-16770651D01*
X14110930Y-16770651D01*
X14091883Y-16761127D01*
X14082359Y-16751603D01*
X14072835Y-16732555D01*
X14063311Y-16694460D01*
X14063311Y-16646841D01*
X14072835Y-16608746D01*
X14082359Y-16589698D01*
X14091883Y-16580174D01*
X14110930Y-16570651D01*
X14301406Y-16570651D02*
X14320454Y-16570651D01*
X14339502Y-16580174D01*
X14349025Y-16589698D01*
X14358549Y-16608746D01*
X14368073Y-16646841D01*
X14368073Y-16694460D01*
X14358549Y-16732555D01*
X14349025Y-16751603D01*
X14339502Y-16761127D01*
X14320454Y-16770651D01*
X14301406Y-16770651D01*
X14282359Y-16761127D01*
X14272835Y-16751603D01*
X14263311Y-16732555D01*
X14253787Y-16694460D01*
X14253787Y-16646841D01*
X14263311Y-16608746D01*
X14272835Y-16589698D01*
X14282359Y-16580174D01*
X14301406Y-16570651D01*
X14453787Y-16770651D02*
X14453787Y-16637317D01*
X14453787Y-16656365D02*
X14463311Y-16646841D01*
X14482359Y-16637317D01*
X14510930Y-16637317D01*
X14529978Y-16646841D01*
X14539502Y-16665889D01*
X14539502Y-16770651D01*
X14539502Y-16665889D02*
X14549025Y-16646841D01*
X14568073Y-16637317D01*
X14596644Y-16637317D01*
X14615692Y-16646841D01*
X14625216Y-16665889D01*
X14625216Y-16770651D01*
X14720454Y-16770651D02*
X14720454Y-16637317D01*
X14720454Y-16656365D02*
X14729978Y-16646841D01*
X14749025Y-16637317D01*
X14777597Y-16637317D01*
X14796644Y-16646841D01*
X14806168Y-16665889D01*
X14806168Y-16770651D01*
X14806168Y-16665889D02*
X14815692Y-16646841D01*
X14834740Y-16637317D01*
X14863311Y-16637317D01*
X14882359Y-16646841D01*
X14891883Y-16665889D01*
X14891883Y-16770651D01*
X15282359Y-16561127D02*
X15110930Y-16818270D01*
X15539502Y-16570651D02*
X15558549Y-16570651D01*
X15577597Y-16580174D01*
X15587121Y-16589698D01*
X15596644Y-16608746D01*
X15606168Y-16646841D01*
X15606168Y-16694460D01*
X15596644Y-16732555D01*
X15587121Y-16751603D01*
X15577597Y-16761127D01*
X15558549Y-16770651D01*
X15539502Y-16770651D01*
X15520454Y-16761127D01*
X15510930Y-16751603D01*
X15501406Y-16732555D01*
X15491883Y-16694460D01*
X15491883Y-16646841D01*
X15501406Y-16608746D01*
X15510930Y-16589698D01*
X15520454Y-16580174D01*
X15539502Y-16570651D01*
X15691883Y-16751603D02*
X15701406Y-16761127D01*
X15691883Y-16770651D01*
X15682359Y-16761127D01*
X15691883Y-16751603D01*
X15691883Y-16770651D01*
X15891883Y-16770651D02*
X15777597Y-16770651D01*
X15834740Y-16770651D02*
X15834740Y-16570651D01*
X15815692Y-16599222D01*
X15796644Y-16618270D01*
X15777597Y-16627793D01*
X16082359Y-16770651D02*
X15968073Y-16770651D01*
X16025216Y-16770651D02*
X16025216Y-16570651D01*
X16006168Y-16599222D01*
X15987121Y-16618270D01*
X15968073Y-16627793D01*
X16196644Y-16656365D02*
X16177597Y-16646841D01*
X16168073Y-16637317D01*
X16158549Y-16618270D01*
X16158549Y-16608746D01*
X16168073Y-16589698D01*
X16177597Y-16580174D01*
X16196644Y-16570651D01*
X16234740Y-16570651D01*
X16253787Y-16580174D01*
X16263311Y-16589698D01*
X16272835Y-16608746D01*
X16272835Y-16618270D01*
X16263311Y-16637317D01*
X16253787Y-16646841D01*
X16234740Y-16656365D01*
X16196644Y-16656365D01*
X16177597Y-16665889D01*
X16168073Y-16675412D01*
X16158549Y-16694460D01*
X16158549Y-16732555D01*
X16168073Y-16751603D01*
X16177597Y-16761127D01*
X16196644Y-16770651D01*
X16234740Y-16770651D01*
X16253787Y-16761127D01*
X16263311Y-16751603D01*
X16272835Y-16732555D01*
X16272835Y-16694460D01*
X16263311Y-16675412D01*
X16253787Y-16665889D01*
X16234740Y-16656365D01*
X16463311Y-16770651D02*
X16349025Y-16770651D01*
X16406168Y-16770651D02*
X16406168Y-16570651D01*
X16387121Y-16599222D01*
X16368073Y-16618270D01*
X16349025Y-16627793D01*
X16539502Y-16570651D02*
X16539502Y-16608746D01*
X16615692Y-16570651D02*
X16615692Y-16608746D01*
X16910930Y-16846841D02*
X16901406Y-16837317D01*
X16882359Y-16808746D01*
X16872835Y-16789698D01*
X16863311Y-16761127D01*
X16853787Y-16713508D01*
X16853787Y-16675412D01*
X16863311Y-16627793D01*
X16872835Y-16599222D01*
X16882359Y-16580174D01*
X16901406Y-16551603D01*
X16910930Y-16542079D01*
X17072835Y-16637317D02*
X17072835Y-16770651D01*
X17025216Y-16561127D02*
X16977597Y-16703984D01*
X17101406Y-16703984D01*
X17329978Y-16770651D02*
X17329978Y-16570651D01*
X17415692Y-16770651D02*
X17415692Y-16665889D01*
X17406168Y-16646841D01*
X17387121Y-16637317D01*
X17358549Y-16637317D01*
X17339502Y-16646841D01*
X17329978Y-16656365D01*
X17539502Y-16770651D02*
X17520454Y-16761127D01*
X17510930Y-16751603D01*
X17501406Y-16732555D01*
X17501406Y-16675412D01*
X17510930Y-16656365D01*
X17520454Y-16646841D01*
X17539502Y-16637317D01*
X17568073Y-16637317D01*
X17587121Y-16646841D01*
X17596645Y-16656365D01*
X17606168Y-16675412D01*
X17606168Y-16732555D01*
X17596645Y-16751603D01*
X17587121Y-16761127D01*
X17568073Y-16770651D01*
X17539502Y-16770651D01*
X17720454Y-16770651D02*
X17701406Y-16761127D01*
X17691883Y-16742079D01*
X17691883Y-16570651D01*
X17872835Y-16761127D02*
X17853787Y-16770651D01*
X17815692Y-16770651D01*
X17796645Y-16761127D01*
X17787121Y-16742079D01*
X17787121Y-16665889D01*
X17796645Y-16646841D01*
X17815692Y-16637317D01*
X17853787Y-16637317D01*
X17872835Y-16646841D01*
X17882359Y-16665889D01*
X17882359Y-16684936D01*
X17787121Y-16703984D01*
X17958549Y-16761127D02*
X17977597Y-16770651D01*
X18015692Y-16770651D01*
X18034740Y-16761127D01*
X18044264Y-16742079D01*
X18044264Y-16732555D01*
X18034740Y-16713508D01*
X18015692Y-16703984D01*
X17987121Y-16703984D01*
X17968073Y-16694460D01*
X17958549Y-16675412D01*
X17958549Y-16665889D01*
X17968073Y-16646841D01*
X17987121Y-16637317D01*
X18015692Y-16637317D01*
X18034740Y-16646841D01*
X18110930Y-16846841D02*
X18120454Y-16837317D01*
X18139502Y-16808746D01*
X18149025Y-16789698D01*
X18158549Y-16761127D01*
X18168073Y-16713508D01*
X18168073Y-16675412D01*
X18158549Y-16627793D01*
X18149025Y-16599222D01*
X18139502Y-16580174D01*
X18120454Y-16551603D01*
X18110930Y-16542079D01*
M02*
