M48
; DRILL file {KiCad (6.0.11)} date Sun 05 Mar 2023 04:18:58 PM EST
; FORMAT={-:-/ absolute / metric / decimal}
; #@! TF.CreationDate,2023-03-05T16:18:58-05:00
; #@! TF.GenerationSoftware,Kicad,Pcbnew,(6.0.11)
; #@! TF.FileFunction,Plated,1,2,PTH
FMAT,2
METRIC
; #@! TA.AperFunction,Plated,PTH,ComponentDrill
T1C0.200
; #@! TA.AperFunction,Plated,PTH,ViaDrill
T2C0.400
; #@! TA.AperFunction,Plated,PTH,ComponentDrill
T3C0.500
; #@! TA.AperFunction,Plated,PTH,ComponentDrill
T4C0.800
; #@! TA.AperFunction,Plated,PTH,ComponentDrill
T5C0.890
; #@! TA.AperFunction,Plated,PTH,ComponentDrill
T6C0.950
; #@! TA.AperFunction,Plated,PTH,ComponentDrill
T7C1.000
; #@! TA.AperFunction,Plated,PTH,ComponentDrill
T8C1.570
; #@! TA.AperFunction,Plated,PTH,ComponentDrill
T9C3.000
%
G90
G05
T1
X203.766Y-115.724
X203.766Y-117.124
X205.166Y-115.724
X205.166Y-117.124
X206.566Y-115.724
X206.566Y-117.124
T2
X144.282Y-117.465
X145.597Y-105.863
X146.314Y-111.115
X148.471Y-105.164
X156.337Y-117.475
X156.73Y-79.236
X156.835Y-59.065
X156.845Y-71.374
X158.069Y-85.644
X158.496Y-111.125
X158.74Y-94.244
X160.513Y-64.074
X162.56Y-97.536
X168.402Y-117.475
X170.561Y-111.125
X177.573Y-74.268
X179.578Y-73.025
X179.578Y-78.359
X180.594Y-117.475
X182.372Y-89.789
X182.372Y-91.44
X182.626Y-96.52
X182.753Y-111.125
X183.018Y-95.104
X183.642Y-72.517
X183.642Y-73.66
X184.639Y-76.854
X184.785Y-72.517
X184.785Y-73.66
X184.785Y-74.803
X185.599Y-91.161
X185.928Y-72.517
X185.928Y-73.66
X185.928Y-74.803
X187.071Y-74.803
X187.198Y-87.376
X192.913Y-92.075
X201.168Y-104.14
X201.561Y-118.899
X201.93Y-103.378
X208.996Y-115.391
X210.185Y-103.632
X217.805Y-58.674
T3
X139.99Y-49.149
X139.99Y-130.302
X140.649Y-47.558
X140.649Y-50.74
X140.649Y-128.711
X140.649Y-131.893
X142.24Y-46.899
X142.24Y-51.399
X142.24Y-128.052
X142.24Y-132.552
X143.831Y-47.558
X143.831Y-50.74
X143.831Y-128.711
X143.831Y-131.893
X144.49Y-49.149
X144.49Y-130.302
X235.494Y-49.149
X235.494Y-130.302
X236.153Y-47.558
X236.153Y-50.74
X236.153Y-128.711
X236.153Y-131.893
X237.744Y-46.899
X237.744Y-51.399
X237.744Y-128.052
X237.744Y-132.552
X239.335Y-47.558
X239.335Y-50.74
X239.335Y-128.711
X239.335Y-131.893
X239.994Y-49.149
X239.994Y-130.302
T4
X139.7Y-98.679
X154.94Y-98.679
X170.83Y-99.05
X170.83Y-106.67
X173.37Y-99.05
X173.37Y-106.67
X175.91Y-99.05
X175.91Y-106.67
X178.45Y-99.05
X178.45Y-106.67
X180.99Y-99.05
X180.99Y-106.67
X183.53Y-99.05
X183.53Y-106.67
X186.07Y-99.05
X186.07Y-106.67
X188.61Y-99.05
X188.61Y-106.67
X200.106Y-122.122
X213.614Y-61.631
X213.614Y-64.171
X213.614Y-66.711
X213.614Y-69.251
X213.614Y-71.791
X213.614Y-74.331
X213.614Y-76.871
X213.614Y-79.411
X213.614Y-81.951
X213.614Y-84.491
X213.614Y-87.031
X213.614Y-89.571
X213.614Y-92.111
X213.614Y-94.651
X213.614Y-97.191
X213.614Y-99.731
X213.614Y-102.271
X213.614Y-104.811
X213.614Y-107.351
X215.346Y-122.122
X239.01Y-104.808
X239.01Y-107.348
X239.014Y-61.631
X239.014Y-64.171
X239.014Y-66.711
X239.014Y-69.251
X239.014Y-71.791
X239.014Y-74.331
X239.014Y-76.871
X239.014Y-79.411
X239.014Y-81.951
X239.014Y-84.491
X239.014Y-87.031
X239.014Y-89.571
X239.014Y-92.111
X239.014Y-94.651
X239.014Y-97.191
X239.014Y-99.731
X239.014Y-102.271
T5
X146.175Y-62.484
X146.175Y-64.516
X146.175Y-66.548
X146.175Y-68.58
X146.175Y-82.804
X146.175Y-84.836
X146.175Y-86.868
X146.175Y-88.9
X147.955Y-61.468
X147.955Y-63.5
X147.955Y-65.532
X147.955Y-67.564
X147.955Y-81.788
X147.955Y-83.82
X147.955Y-85.852
X147.955Y-87.884
X152.775Y-58.16
X152.775Y-60.45
X152.775Y-69.59
X152.775Y-71.88
X152.775Y-78.48
X152.775Y-80.77
X152.775Y-89.91
X152.775Y-92.2
T6
X201.884Y-126.948
X204.384Y-126.948
X206.884Y-126.948
X209.384Y-126.948
T7
X142.378Y-122.545
X144.878Y-122.545
X154.443Y-122.555
X156.943Y-122.555
X166.582Y-122.555
X169.082Y-122.555
X178.647Y-122.555
X181.147Y-122.555
X189.91Y-122.545
X192.41Y-122.545
T8
X147.065Y-56.89
X147.065Y-73.15
X147.065Y-77.21
X147.065Y-93.47
T9
X142.24Y-49.149
X142.24Y-130.302
X237.744Y-49.149
X237.744Y-130.302
T0
M30
