%TF.GenerationSoftware,KiCad,Pcbnew,(6.0.11)*%
%TF.CreationDate,2023-03-05T16:19:06-05:00*%
%TF.ProjectId,pre-thermal-throttle-pcb,7072652d-7468-4657-926d-616c2d746872,rev?*%
%TF.SameCoordinates,Original*%
%TF.FileFunction,Drillmap*%
%TF.FilePolarity,Positive*%
%FSLAX45Y45*%
G04 Gerber Fmt 4.5, Leading zero omitted, Abs format (unit mm)*
G04 Created by KiCad (PCBNEW (6.0.11)) date 2023-03-05 16:19:06*
%MOMM*%
%LPD*%
G01*
G04 APERTURE LIST*
%ADD10C,0.100000*%
%ADD11C,0.200000*%
%ADD12C,0.325000*%
G04 APERTURE END LIST*
D10*
X23384374Y-13910174D02*
G75*
G03*
X24654374Y-12640174I0J1270000D01*
G01*
X24654374Y-5304926D02*
X24654374Y-12640174D01*
X14614026Y-4034926D02*
X23384374Y-4034926D01*
X13344026Y-5304926D02*
X13344025Y-12640174D01*
X23384374Y-13910174D02*
X14614025Y-13910174D01*
X14614026Y-4034926D02*
G75*
G03*
X13344026Y-5304926I0J-1270000D01*
G01*
X13344025Y-12640174D02*
G75*
G03*
X14614025Y-13910174I1270001J1D01*
G01*
X24654374Y-5304926D02*
G75*
G03*
X23384374Y-4034926I-1270004J-4D01*
G01*
D11*
D12*
X14201000Y-5704500D02*
X14526000Y-6029500D01*
X14526000Y-5704500D02*
X14201000Y-6029500D01*
X14201000Y-6974500D02*
X14526000Y-7299500D01*
X14526000Y-6974500D02*
X14201000Y-7299500D01*
X14201000Y-7736500D02*
X14526000Y-8061500D01*
X14526000Y-7736500D02*
X14201000Y-8061500D01*
X14201000Y-9006500D02*
X14526000Y-9331500D01*
X14526000Y-9006500D02*
X14201000Y-9331500D01*
D11*
X13596644Y-14225651D02*
X13596644Y-14025651D01*
X13644263Y-14025651D01*
X13672835Y-14035174D01*
X13691883Y-14054222D01*
X13701406Y-14073270D01*
X13710930Y-14111365D01*
X13710930Y-14139936D01*
X13701406Y-14178032D01*
X13691883Y-14197079D01*
X13672835Y-14216127D01*
X13644263Y-14225651D01*
X13596644Y-14225651D01*
X13796644Y-14225651D02*
X13796644Y-14092317D01*
X13796644Y-14130412D02*
X13806168Y-14111365D01*
X13815692Y-14101841D01*
X13834740Y-14092317D01*
X13853787Y-14092317D01*
X13920454Y-14225651D02*
X13920454Y-14092317D01*
X13920454Y-14025651D02*
X13910930Y-14035174D01*
X13920454Y-14044698D01*
X13929978Y-14035174D01*
X13920454Y-14025651D01*
X13920454Y-14044698D01*
X14044263Y-14225651D02*
X14025216Y-14216127D01*
X14015692Y-14197079D01*
X14015692Y-14025651D01*
X14149025Y-14225651D02*
X14129978Y-14216127D01*
X14120454Y-14197079D01*
X14120454Y-14025651D01*
X14377597Y-14225651D02*
X14377597Y-14025651D01*
X14444263Y-14168508D01*
X14510930Y-14025651D01*
X14510930Y-14225651D01*
X14691883Y-14225651D02*
X14691883Y-14120889D01*
X14682359Y-14101841D01*
X14663311Y-14092317D01*
X14625216Y-14092317D01*
X14606168Y-14101841D01*
X14691883Y-14216127D02*
X14672835Y-14225651D01*
X14625216Y-14225651D01*
X14606168Y-14216127D01*
X14596644Y-14197079D01*
X14596644Y-14178032D01*
X14606168Y-14158984D01*
X14625216Y-14149460D01*
X14672835Y-14149460D01*
X14691883Y-14139936D01*
X14787121Y-14092317D02*
X14787121Y-14292317D01*
X14787121Y-14101841D02*
X14806168Y-14092317D01*
X14844263Y-14092317D01*
X14863311Y-14101841D01*
X14872835Y-14111365D01*
X14882359Y-14130412D01*
X14882359Y-14187555D01*
X14872835Y-14206603D01*
X14863311Y-14216127D01*
X14844263Y-14225651D01*
X14806168Y-14225651D01*
X14787121Y-14216127D01*
X14968073Y-14206603D02*
X14977597Y-14216127D01*
X14968073Y-14225651D01*
X14958549Y-14216127D01*
X14968073Y-14206603D01*
X14968073Y-14225651D01*
X14968073Y-14101841D02*
X14977597Y-14111365D01*
X14968073Y-14120889D01*
X14958549Y-14111365D01*
X14968073Y-14101841D01*
X14968073Y-14120889D01*
X13139025Y-14455174D02*
X13339025Y-14655174D01*
X13339025Y-14455174D02*
X13139025Y-14655174D01*
X13577597Y-14445651D02*
X13701406Y-14445651D01*
X13634740Y-14521841D01*
X13663311Y-14521841D01*
X13682359Y-14531365D01*
X13691883Y-14540889D01*
X13701406Y-14559936D01*
X13701406Y-14607555D01*
X13691883Y-14626603D01*
X13682359Y-14636127D01*
X13663311Y-14645651D01*
X13606168Y-14645651D01*
X13587121Y-14636127D01*
X13577597Y-14626603D01*
X13787121Y-14626603D02*
X13796644Y-14636127D01*
X13787121Y-14645651D01*
X13777597Y-14636127D01*
X13787121Y-14626603D01*
X13787121Y-14645651D01*
X13872835Y-14464698D02*
X13882359Y-14455174D01*
X13901406Y-14445651D01*
X13949025Y-14445651D01*
X13968073Y-14455174D01*
X13977597Y-14464698D01*
X13987121Y-14483746D01*
X13987121Y-14502793D01*
X13977597Y-14531365D01*
X13863311Y-14645651D01*
X13987121Y-14645651D01*
X14168073Y-14445651D02*
X14072835Y-14445651D01*
X14063311Y-14540889D01*
X14072835Y-14531365D01*
X14091883Y-14521841D01*
X14139502Y-14521841D01*
X14158549Y-14531365D01*
X14168073Y-14540889D01*
X14177597Y-14559936D01*
X14177597Y-14607555D01*
X14168073Y-14626603D01*
X14158549Y-14636127D01*
X14139502Y-14645651D01*
X14091883Y-14645651D01*
X14072835Y-14636127D01*
X14063311Y-14626603D01*
X14301406Y-14445651D02*
X14320454Y-14445651D01*
X14339502Y-14455174D01*
X14349025Y-14464698D01*
X14358549Y-14483746D01*
X14368073Y-14521841D01*
X14368073Y-14569460D01*
X14358549Y-14607555D01*
X14349025Y-14626603D01*
X14339502Y-14636127D01*
X14320454Y-14645651D01*
X14301406Y-14645651D01*
X14282359Y-14636127D01*
X14272835Y-14626603D01*
X14263311Y-14607555D01*
X14253787Y-14569460D01*
X14253787Y-14521841D01*
X14263311Y-14483746D01*
X14272835Y-14464698D01*
X14282359Y-14455174D01*
X14301406Y-14445651D01*
X14453787Y-14645651D02*
X14453787Y-14512317D01*
X14453787Y-14531365D02*
X14463311Y-14521841D01*
X14482359Y-14512317D01*
X14510930Y-14512317D01*
X14529978Y-14521841D01*
X14539502Y-14540889D01*
X14539502Y-14645651D01*
X14539502Y-14540889D02*
X14549025Y-14521841D01*
X14568073Y-14512317D01*
X14596644Y-14512317D01*
X14615692Y-14521841D01*
X14625216Y-14540889D01*
X14625216Y-14645651D01*
X14720454Y-14645651D02*
X14720454Y-14512317D01*
X14720454Y-14531365D02*
X14729978Y-14521841D01*
X14749025Y-14512317D01*
X14777597Y-14512317D01*
X14796644Y-14521841D01*
X14806168Y-14540889D01*
X14806168Y-14645651D01*
X14806168Y-14540889D02*
X14815692Y-14521841D01*
X14834740Y-14512317D01*
X14863311Y-14512317D01*
X14882359Y-14521841D01*
X14891883Y-14540889D01*
X14891883Y-14645651D01*
X15282359Y-14436127D02*
X15110930Y-14693270D01*
X15539502Y-14445651D02*
X15558549Y-14445651D01*
X15577597Y-14455174D01*
X15587121Y-14464698D01*
X15596644Y-14483746D01*
X15606168Y-14521841D01*
X15606168Y-14569460D01*
X15596644Y-14607555D01*
X15587121Y-14626603D01*
X15577597Y-14636127D01*
X15558549Y-14645651D01*
X15539502Y-14645651D01*
X15520454Y-14636127D01*
X15510930Y-14626603D01*
X15501406Y-14607555D01*
X15491883Y-14569460D01*
X15491883Y-14521841D01*
X15501406Y-14483746D01*
X15510930Y-14464698D01*
X15520454Y-14455174D01*
X15539502Y-14445651D01*
X15691883Y-14626603D02*
X15701406Y-14636127D01*
X15691883Y-14645651D01*
X15682359Y-14636127D01*
X15691883Y-14626603D01*
X15691883Y-14645651D01*
X15891883Y-14645651D02*
X15777597Y-14645651D01*
X15834740Y-14645651D02*
X15834740Y-14445651D01*
X15815692Y-14474222D01*
X15796644Y-14493270D01*
X15777597Y-14502793D01*
X15968073Y-14464698D02*
X15977597Y-14455174D01*
X15996644Y-14445651D01*
X16044263Y-14445651D01*
X16063311Y-14455174D01*
X16072835Y-14464698D01*
X16082359Y-14483746D01*
X16082359Y-14502793D01*
X16072835Y-14531365D01*
X15958549Y-14645651D01*
X16082359Y-14645651D01*
X16196644Y-14531365D02*
X16177597Y-14521841D01*
X16168073Y-14512317D01*
X16158549Y-14493270D01*
X16158549Y-14483746D01*
X16168073Y-14464698D01*
X16177597Y-14455174D01*
X16196644Y-14445651D01*
X16234740Y-14445651D01*
X16253787Y-14455174D01*
X16263311Y-14464698D01*
X16272835Y-14483746D01*
X16272835Y-14493270D01*
X16263311Y-14512317D01*
X16253787Y-14521841D01*
X16234740Y-14531365D01*
X16196644Y-14531365D01*
X16177597Y-14540889D01*
X16168073Y-14550412D01*
X16158549Y-14569460D01*
X16158549Y-14607555D01*
X16168073Y-14626603D01*
X16177597Y-14636127D01*
X16196644Y-14645651D01*
X16234740Y-14645651D01*
X16253787Y-14636127D01*
X16263311Y-14626603D01*
X16272835Y-14607555D01*
X16272835Y-14569460D01*
X16263311Y-14550412D01*
X16253787Y-14540889D01*
X16234740Y-14531365D01*
X16396644Y-14445651D02*
X16415692Y-14445651D01*
X16434740Y-14455174D01*
X16444263Y-14464698D01*
X16453787Y-14483746D01*
X16463311Y-14521841D01*
X16463311Y-14569460D01*
X16453787Y-14607555D01*
X16444263Y-14626603D01*
X16434740Y-14636127D01*
X16415692Y-14645651D01*
X16396644Y-14645651D01*
X16377597Y-14636127D01*
X16368073Y-14626603D01*
X16358549Y-14607555D01*
X16349025Y-14569460D01*
X16349025Y-14521841D01*
X16358549Y-14483746D01*
X16368073Y-14464698D01*
X16377597Y-14455174D01*
X16396644Y-14445651D01*
X16539502Y-14445651D02*
X16539502Y-14483746D01*
X16615692Y-14445651D02*
X16615692Y-14483746D01*
X16910930Y-14721841D02*
X16901406Y-14712317D01*
X16882359Y-14683746D01*
X16872835Y-14664698D01*
X16863311Y-14636127D01*
X16853787Y-14588508D01*
X16853787Y-14550412D01*
X16863311Y-14502793D01*
X16872835Y-14474222D01*
X16882359Y-14455174D01*
X16901406Y-14426603D01*
X16910930Y-14417079D01*
X17072835Y-14512317D02*
X17072835Y-14645651D01*
X17025216Y-14436127D02*
X16977597Y-14578984D01*
X17101406Y-14578984D01*
X17329978Y-14645651D02*
X17329978Y-14445651D01*
X17415692Y-14645651D02*
X17415692Y-14540889D01*
X17406168Y-14521841D01*
X17387121Y-14512317D01*
X17358549Y-14512317D01*
X17339502Y-14521841D01*
X17329978Y-14531365D01*
X17539502Y-14645651D02*
X17520454Y-14636127D01*
X17510930Y-14626603D01*
X17501406Y-14607555D01*
X17501406Y-14550412D01*
X17510930Y-14531365D01*
X17520454Y-14521841D01*
X17539502Y-14512317D01*
X17568073Y-14512317D01*
X17587121Y-14521841D01*
X17596645Y-14531365D01*
X17606168Y-14550412D01*
X17606168Y-14607555D01*
X17596645Y-14626603D01*
X17587121Y-14636127D01*
X17568073Y-14645651D01*
X17539502Y-14645651D01*
X17720454Y-14645651D02*
X17701406Y-14636127D01*
X17691883Y-14617079D01*
X17691883Y-14445651D01*
X17872835Y-14636127D02*
X17853787Y-14645651D01*
X17815692Y-14645651D01*
X17796645Y-14636127D01*
X17787121Y-14617079D01*
X17787121Y-14540889D01*
X17796645Y-14521841D01*
X17815692Y-14512317D01*
X17853787Y-14512317D01*
X17872835Y-14521841D01*
X17882359Y-14540889D01*
X17882359Y-14559936D01*
X17787121Y-14578984D01*
X17958549Y-14636127D02*
X17977597Y-14645651D01*
X18015692Y-14645651D01*
X18034740Y-14636127D01*
X18044264Y-14617079D01*
X18044264Y-14607555D01*
X18034740Y-14588508D01*
X18015692Y-14578984D01*
X17987121Y-14578984D01*
X17968073Y-14569460D01*
X17958549Y-14550412D01*
X17958549Y-14540889D01*
X17968073Y-14521841D01*
X17987121Y-14512317D01*
X18015692Y-14512317D01*
X18034740Y-14521841D01*
X18110930Y-14721841D02*
X18120454Y-14712317D01*
X18139502Y-14683746D01*
X18149025Y-14664698D01*
X18158549Y-14636127D01*
X18168073Y-14588508D01*
X18168073Y-14550412D01*
X18158549Y-14502793D01*
X18149025Y-14474222D01*
X18139502Y-14455174D01*
X18120454Y-14426603D01*
X18110930Y-14417079D01*
X18472835Y-14721841D02*
X18463311Y-14712317D01*
X18444264Y-14683746D01*
X18434740Y-14664698D01*
X18425216Y-14636127D01*
X18415692Y-14588508D01*
X18415692Y-14550412D01*
X18425216Y-14502793D01*
X18434740Y-14474222D01*
X18444264Y-14455174D01*
X18463311Y-14426603D01*
X18472835Y-14417079D01*
X18549025Y-14512317D02*
X18549025Y-14645651D01*
X18549025Y-14531365D02*
X18558549Y-14521841D01*
X18577597Y-14512317D01*
X18606168Y-14512317D01*
X18625216Y-14521841D01*
X18634740Y-14540889D01*
X18634740Y-14645651D01*
X18758549Y-14645651D02*
X18739502Y-14636127D01*
X18729978Y-14626603D01*
X18720454Y-14607555D01*
X18720454Y-14550412D01*
X18729978Y-14531365D01*
X18739502Y-14521841D01*
X18758549Y-14512317D01*
X18787121Y-14512317D01*
X18806168Y-14521841D01*
X18815692Y-14531365D01*
X18825216Y-14550412D01*
X18825216Y-14607555D01*
X18815692Y-14626603D01*
X18806168Y-14636127D01*
X18787121Y-14645651D01*
X18758549Y-14645651D01*
X18882359Y-14512317D02*
X18958549Y-14512317D01*
X18910930Y-14445651D02*
X18910930Y-14617079D01*
X18920454Y-14636127D01*
X18939502Y-14645651D01*
X18958549Y-14645651D01*
X19177597Y-14512317D02*
X19177597Y-14712317D01*
X19177597Y-14521841D02*
X19196645Y-14512317D01*
X19234740Y-14512317D01*
X19253787Y-14521841D01*
X19263311Y-14531365D01*
X19272835Y-14550412D01*
X19272835Y-14607555D01*
X19263311Y-14626603D01*
X19253787Y-14636127D01*
X19234740Y-14645651D01*
X19196645Y-14645651D01*
X19177597Y-14636127D01*
X19387121Y-14645651D02*
X19368073Y-14636127D01*
X19358549Y-14617079D01*
X19358549Y-14445651D01*
X19549025Y-14645651D02*
X19549025Y-14540889D01*
X19539502Y-14521841D01*
X19520454Y-14512317D01*
X19482359Y-14512317D01*
X19463311Y-14521841D01*
X19549025Y-14636127D02*
X19529978Y-14645651D01*
X19482359Y-14645651D01*
X19463311Y-14636127D01*
X19453787Y-14617079D01*
X19453787Y-14598032D01*
X19463311Y-14578984D01*
X19482359Y-14569460D01*
X19529978Y-14569460D01*
X19549025Y-14559936D01*
X19615692Y-14512317D02*
X19691883Y-14512317D01*
X19644264Y-14445651D02*
X19644264Y-14617079D01*
X19653787Y-14636127D01*
X19672835Y-14645651D01*
X19691883Y-14645651D01*
X19834740Y-14636127D02*
X19815692Y-14645651D01*
X19777597Y-14645651D01*
X19758549Y-14636127D01*
X19749025Y-14617079D01*
X19749025Y-14540889D01*
X19758549Y-14521841D01*
X19777597Y-14512317D01*
X19815692Y-14512317D01*
X19834740Y-14521841D01*
X19844264Y-14540889D01*
X19844264Y-14559936D01*
X19749025Y-14578984D01*
X20015692Y-14645651D02*
X20015692Y-14445651D01*
X20015692Y-14636127D02*
X19996645Y-14645651D01*
X19958549Y-14645651D01*
X19939502Y-14636127D01*
X19929978Y-14626603D01*
X19920454Y-14607555D01*
X19920454Y-14550412D01*
X19929978Y-14531365D01*
X19939502Y-14521841D01*
X19958549Y-14512317D01*
X19996645Y-14512317D01*
X20015692Y-14521841D01*
X20091883Y-14721841D02*
X20101406Y-14712317D01*
X20120454Y-14683746D01*
X20129978Y-14664698D01*
X20139502Y-14636127D01*
X20149025Y-14588508D01*
X20149025Y-14550412D01*
X20139502Y-14502793D01*
X20129978Y-14474222D01*
X20120454Y-14455174D01*
X20101406Y-14426603D01*
X20091883Y-14417079D01*
M02*
